<svg id="e8sPVau2cxQ1" xmlns="http://www.w3.org/2000/svg" xmlns:xlink="http://www.w3.org/1999/xlink" viewBox="0 0 1006 991" shape-rendering="geometricPrecision" text-rendering="geometricPrecision"><style><![CDATA[#e8sPVau2cxQ6_tr {animation: e8sPVau2cxQ6_tr__tr 9100ms linear infinite normal forwards}@keyframes e8sPVau2cxQ6_tr__tr { 0% {transform: translate(503px,501.715px) rotate(0deg)} 100% {transform: translate(503px,501.715px) rotate(723.6deg)}} #e8sPVau2cxQ18 {animation: e8sPVau2cxQ18_c_o 9100ms linear infinite normal forwards}@keyframes e8sPVau2cxQ18_c_o { 0% {opacity: 0} 45.054945% {opacity: 0} 46.153846% {opacity: 1} 94.505495% {opacity: 1} 95.604396% {opacity: 0} 100% {opacity: 0}} #e8sPVau2cxQ23 {animation: e8sPVau2cxQ23_c_o 9100ms linear infinite normal forwards}@keyframes e8sPVau2cxQ23_c_o { 0% {opacity: 0} 37.362637% {opacity: 0} 38.461538% {opacity: 1} 86.813187% {opacity: 1} 87.912088% {opacity: 0} 100% {opacity: 0}} #e8sPVau2cxQ26 {animation: e8sPVau2cxQ26_c_o 9100ms linear infinite normal forwards}@keyframes e8sPVau2cxQ26_c_o { 0% {opacity: 0} 29.67033% {opacity: 0} 30.769231% {opacity: 1} 75.824176% {opacity: 1} 76.923077% {opacity: 0} 100% {opacity: 0}} #e8sPVau2cxQ30 {animation: e8sPVau2cxQ30_c_o 9100ms linear infinite normal forwards}@keyframes e8sPVau2cxQ30_c_o { 0% {opacity: 0} 21.978022% {opacity: 0} 23.076923% {opacity: 1} 68.131868% {opacity: 1} 69.230769% {opacity: 0} 100% {opacity: 0}} #e8sPVau2cxQ34 {animation: e8sPVau2cxQ34_c_o 9100ms linear infinite normal forwards}@keyframes e8sPVau2cxQ34_c_o { 0% {opacity: 0} 14.285714% {opacity: 0} 15.384615% {opacity: 1} 60.43956% {opacity: 1} 61.538462% {opacity: 0} 100% {opacity: 0}} #e8sPVau2cxQ39 {animation: e8sPVau2cxQ39_c_o 9100ms linear infinite normal forwards}@keyframes e8sPVau2cxQ39_c_o { 0% {opacity: 0} 6.593407% {opacity: 0} 7.692308% {opacity: 1} 52.747253% {opacity: 1} 53.846154% {opacity: 0} 100% {opacity: 0}}]]></style><g id="e8sPVau2cxQ2"><g id="e8sPVau2cxQ3"><ellipse id="e8sPVau2cxQ4" rx="299.01" ry="294.2" transform="matrix(1 0 0 1 501.99 490.92)" fill="rgb(255,255,255)" stroke="none" stroke-width="1" stroke-miterlimit="1"/><path id="e8sPVau2cxQ5" d="M375,142.23C415.703235,127.424856,458.687837,119.873781,502,119.92C706.9,119.92,873,286.03,873,490.92C873,695.81,706.9,861.92,502,861.92C297.1,861.92,131,695.82,131,490.92C130.898761,426.489336,147.653328,363.152935,179.6,307.2" fill="none" stroke="rgb(218,195,251)" stroke-width="8" stroke-linecap="round" stroke-linejoin="round" stroke-miterlimit="1"/><g id="e8sPVau2cxQ6_tr" transform="translate(503,501.715) rotate(0)"><path id="e8sPVau2cxQ6" d="M258,213.37C216.76,202.01,211,202.14,202.66,192.22C192.077482,178.587441,194.16778,159.027348,207.392117,147.93892C220.616454,136.850491,240.241393,138.202649,251.82,151C260.14,160.91,259.01,166.58,263.04,209.17C263.16813,210.483852,262.639777,211.776319,261.627958,212.624167C260.616139,213.472016,259.251161,213.766055,257.98,213.41Z" transform="translate(-502.999992,-501.714976)" fill="rgb(119,0,241)" stroke="none" stroke-width="1" stroke-miterlimit="1"/></g><g id="e8sPVau2cxQ7"><path id="e8sPVau2cxQ8" d="M378.78,524.74L378.78,494.53Q378.78,488.89,377.21,486.07C376.259337,484.242094,374.32736,483.139224,372.27,483.25C369.534977,483.10711,366.967834,484.572375,365.7,487Q363.62,490.77,363.61,498.82L363.61,524.71L344.12,524.71L344.12,494.53Q344.12,488.89,342.62,486.07C341.726485,484.246367,339.827527,483.135358,337.8,483.25C334.975921,483.11602,332.348504,484.694049,331.14,487.25Q329.06,491.25,329.05,500.4L329.05,524.72L309.61,524.72L309.61,469.19L324.27,469.19L326.73,476.04L327.88,476.04C329.39465,473.479819,331.660553,471.447839,334.37,470.22C337.403903,468.8407,340.707867,468.157357,344.04,468.22Q356.22,468.22,361.15,475.53L362.69,475.53C364.372981,473.168695,366.668921,471.311888,369.33,470.16C372.275278,468.840211,375.47281,468.178182,378.7,468.22Q388.7,468.22,393.48,473.27Q398.26,478.32,398.25,488.62L398.25,524.76Z" fill="rgb(135,39,215)" stroke="none" stroke-width="1" stroke-miterlimit="1"/><path id="e8sPVau2cxQ9" d="M491.13,524.74L469.64,469.19L489.93,469.19L499.47,502.05C499.47,502.21,499.56,502.49,499.66,502.88C499.76,503.27,499.86,503.74,499.96,504.28C500.06,504.82,500.15,505.39,500.23,505.99C500.313586,506.552868,500.357028,507.120968,500.36,507.69L500.71,507.69C500.739045,505.806124,501.042225,503.936514,501.61,502.14L511.61,469.19L531.85,469.19L510.39,524.74Z" fill="rgb(135,39,215)" stroke="none" stroke-width="1" stroke-miterlimit="1"/><path id="e8sPVau2cxQ10" d="M538.17,455.35Q538.17,451.03,540.61,448.93Q543.05,446.83,548.47,446.81C552.08,446.81,554.72,447.53,556.37,448.97C558.02,450.41,558.86,452.53,558.86,455.34Q558.86,463.79,548.47,463.78Q538.08,463.77,538.17,455.35ZM558.17,524.74L538.67,524.74L538.67,469.2L558.12,469.2Z" fill="rgb(135,39,215)" stroke="none" stroke-width="1" stroke-miterlimit="1"/><path id="e8sPVau2cxQ11" d="M589.2,525.72C585.421604,525.791719,581.727026,524.602416,578.7,522.34C575.442764,519.759342,573.009886,516.283803,571.7,512.34C569.98479,507.411948,569.165208,502.216748,569.28,497Q569.28,483.45,574.8,475.81C580.222793,468.535585,590.032254,466.110445,598.22,470.02C600.87101,471.53787,603.101645,473.69289,604.71,476.29L605.11,476.29C604.484207,471.984937,604.170057,467.640309,604.17,463.29L604.17,448.44L623.76,448.44L623.76,524.74L609.09,524.74L604.92,517.74L604.17,517.74Q599.13,525.72,589.2,525.72ZM597.2,510.57Q601.87,510.57,603.79,507.68Q605.71,504.79,605.85,498.74L605.85,497.22Q605.85,489.87,603.71,486.75C602.29,484.68,600.05,483.63,597,483.62C594.479928,483.567657,592.150754,484.957397,591,487.2Q588.88,490.78,588.89,497.33C588.89,501.64,589.6,504.93,591.03,507.18C591.643689,508.242445,592.53575,509.117218,593.61,509.71C594.695132,510.308977,595.921052,510.605961,597.16,510.57Z" fill="rgb(135,39,215)" stroke="none" stroke-width="1" stroke-miterlimit="1"/><path id="e8sPVau2cxQ12" d="M429.22,503C428.900406,500.955869,428.749897,498.888867,428.77,496.82Q428.77,489.65,430.71,486.07C431.957513,483.715775,434.471494,482.313898,437.13,482.49Q441.71,482.49,443.59,486.12C443.66,486.26,443.73,486.4,443.8,486.57L455.12,473.75C454.129585,473.008976,453.086864,472.340565,452,471.75C447.48488,469.363006,442.436183,468.16536,437.33,468.27Q423.89,468.27,416.44,475.79Q408.99,483.31,409,496.9Q409,509.9,416.3,517.68Z" fill="rgb(135,39,215)" stroke="none" stroke-width="1" stroke-miterlimit="1"/><path id="e8sPVau2cxQ13" d="M461.81,481.66C461.05573,480.243212,460.164831,478.903514,459.15,477.66L445.34,493.3C445.43,494.41,445.47,495.59,445.47,496.86Q445.47,504.03,443.61,507.77C442.451717,510.214327,439.919242,511.704485,437.22,511.53C435.007892,511.664738,432.867926,510.717785,431.48,508.99L420.62,521.29Q427.31,525.76,437.02,525.77Q450.4,525.77,457.83,518.16Q465.26,510.55,465.27,496.9C465.400205,491.611487,464.211077,486.373825,461.81,481.66Z" fill="rgb(135,39,215)" stroke="none" stroke-width="1" stroke-miterlimit="1"/><path id="e8sPVau2cxQ14" d="M654.81,502C654.591601,500.275447,654.48804,498.538286,654.5,496.8Q654.5,489.63,656.44,486.06C657.675494,483.697883,660.19041,482.289373,662.85,482.47C665.78,482.47,667.85,483.59,669.15,485.81L680.23,473.27C679.424249,472.695749,678.586204,472.168215,677.72,471.69C673.208344,469.293806,668.15722,468.095584,663.05,468.21Q649.63,468.21,642.17,475.73Q634.71,483.25,634.74,496.84Q634.74,509.42,641.52,517.07Z" fill="rgb(135,39,215)" stroke="none" stroke-width="1" stroke-miterlimit="1"/><path id="e8sPVau2cxQ15" d="M687.54,481.66C686.669595,480.013497,685.616271,478.470412,684.4,477.06L671,492.26C671.159983,493.781423,671.240093,495.310188,671.24,496.84Q671.24,504.01,669.37,507.75C668.220053,510.19118,665.692518,511.679133,663,511.5C660.513617,511.661068,658.139713,510.443386,656.82,508.33L645.82,520.83Q652.69,525.72,662.82,525.72Q676.2,525.72,683.63,518.11Q691.06,510.5,691,496.85C691.121879,491.578315,689.932981,486.358846,687.54,481.66Z" fill="rgb(135,39,215)" stroke="none" stroke-width="1" stroke-miterlimit="1"/></g><rect id="e8sPVau2cxQ16" width="1006" height="991" rx="0" ry="0" fill="none" stroke="none" stroke-width="1" stroke-miterlimit="1"/></g><g id="e8sPVau2cxQ17"><g id="e8sPVau2cxQ18" opacity="0"><g id="e8sPVau2cxQ19"><circle id="e8sPVau2cxQ20" r="47.81" transform="matrix(1 0 0 1 171.68 312.02)" fill="rgb(218,195,251)" stroke="none" stroke-width="1" stroke-miterlimit="1"/></g><path id="e8sPVau2cxQ21" d="M166.36,317.36L153.46,318.9L153.3,318.9C151.347192,318.894507,149.765493,317.312808,149.76,315.36C149.756468,313.570146,150.709936,311.914925,152.26,311.02L152.61,310.82L166,304.37L165.74,295.67C165.72206,294.919792,165.847646,294.173067,166.11,293.47C166.38117,292.77218,166.785323,292.133685,167.3,291.59C168.344777,290.488719,169.782657,289.845268,171.3,289.8L171.44,289.8C172.195189,289.8,172.942903,289.949543,173.64,290.24C175.041571,290.831183,176.152386,291.952783,176.73,293.36C177.009423,294.05972,177.152001,294.806553,177.15,295.56L176.89,304.26L190.49,310.83C191.339383,311.245676,192.056176,311.889751,192.56,312.69C193.065613,313.492241,193.332665,314.421724,193.33,315.37C193.327372,316.315005,192.948066,317.219961,192.276101,317.884419C191.604136,318.548876,190.694975,318.91799,189.75,318.91L189.49,318.91L176.49,317.36L176.35,322.04L177.97,322.63C178.77876,322.941394,179.475471,323.488312,179.97,324.2C180.470823,324.918879,180.739533,325.773866,180.74,326.65C180.740004,327.574689,180.37199,328.461359,179.717199,329.114274C179.062408,329.767189,178.174685,330.132657,177.25,330.13L175.58,330.13L175.51,330.47C175.206262,331.906257,174.177943,333.08146,172.794708,333.573141C171.411473,334.064822,169.872111,333.80232,168.73,332.88C167.97214,332.274264,167.45172,331.421058,167.26,330.47L167.19,330.13L165.52,330.13C163.753368,330.099487,162.286523,328.757022,162.1,327L162.1,326.67C162.108581,325.006432,163.073802,323.496328,164.58,322.79L164.9,322.65L166.52,322.06L166.39,317.4ZM153.06,315.36C153.057476,315.475248,153.137247,315.576012,153.25,315.6L169.55,313.65L169.86,324.28L166.1,325.66L165.92,325.73C165.616416,325.880095,165.409428,326.173642,165.37,326.51L165.37,326.64C165.379044,326.686783,165.403728,326.7291,165.44,326.76C165.47867,326.774587,165.52133,326.774587,165.56,326.76L169.91,326.76L170.53,329.76C170.577916,329.966069,170.689954,330.151632,170.85,330.29C171.190565,330.557027,171.669435,330.557027,172.01,330.29C172.176657,330.157322,172.290198,329.96927,172.33,329.76L172.95,326.76L177.3,326.76C177.40115,326.76014,177.484676,326.68101,177.49,326.58C177.488782,326.167707,177.234652,325.798424,176.85,325.65L173,324.3L173.31,313.64L189.72,315.64L189.79,315.64C189.852773,315.640059,189.912842,315.614459,189.956275,315.569138C189.999708,315.523817,190.022729,315.462713,190.02,315.4C190.025658,314.725193,189.633923,314.110169,189.02,313.83L173.5,306.33L173.82,295.53C173.820102,294.210622,172.759276,293.136424,171.44,293.12L171.34,293.12C171.022524,293.128951,170.709915,293.200308,170.42,293.33C170.134833,293.464754,169.877139,293.651243,169.66,293.88C169.439846,294.109254,169.269599,294.38165,169.16,294.68C169.046408,294.976567,168.99205,295.292523,169,295.61L169.32,306.43L154.09,313.79L153.87,313.91C153.349224,314.224861,153.033594,314.791474,153.04,315.4Z" fill="rgb(119,0,241)" stroke="none" stroke-width="1" stroke-miterlimit="1"/></g><g id="e8sPVau2cxQ22"><g id="e8sPVau2cxQ23" opacity="0"><circle id="e8sPVau2cxQ24" r="47.81" transform="matrix(1 0 0 1 179.68 680.02)" fill="rgb(218,195,251)" stroke="none" stroke-width="1" stroke-miterlimit="1"/><path id="e8sPVau2cxQ25" d="M173.46,684.34C173.186761,684.071602,172.837696,683.893579,172.46,683.83C172.093644,683.761186,171.71522,683.799375,171.37,683.94C171.136542,684.026336,170.924891,684.162885,170.75,684.34C170.575057,684.516646,170.438831,684.727798,170.35,684.96C170.105337,685.546613,170.165178,686.216078,170.51,686.75C170.688232,687.007887,170.924589,687.220265,171.2,687.37C171.472429,687.520731,171.778652,687.599867,172.09,687.6C172.725248,687.597046,173.317457,687.278453,173.67,686.75C173.842878,686.490488,173.94618,686.190911,173.97,685.88C173.999482,685.566493,173.951403,685.250546,173.83,684.96C173.742848,684.733784,173.617717,684.524105,173.46,684.34ZM188.59,684.34C187.828762,683.652963,186.671238,683.652963,185.91,684.34C185.738232,684.519175,185.602443,684.729648,185.51,684.96C185.361157,685.306484,185.319366,685.689573,185.39,686.06C185.45315,686.43996,185.635217,686.790089,185.91,687.06C186.089175,687.231768,186.299648,687.367557,186.53,687.46C186.75703,687.559297,187.002205,687.610375,187.25,687.61C187.497707,687.609518,187.742708,687.558476,187.97,687.46C188.199055,687.365066,188.40909,687.22956,188.59,687.06C189.130765,686.519476,189.292594,685.706386,189,685C188.904954,684.756723,188.765976,684.533002,188.59,684.34ZM193.51,693.05C196.233045,690.87125,197.529584,687.366363,196.88,683.94L194,668.81C193.162469,664.339111,189.25866,661.099243,184.71,661.1L174.62,661.1C170.07134,661.099243,166.167531,664.339111,165.33,668.81L162.49,683.94C161.840416,687.366363,163.136955,690.87125,165.86,693.05L163.22,695.69C163.043245,695.865413,162.900803,696.072293,162.8,696.3C162.709948,696.533356,162.659259,696.780043,162.65,697.03C162.649398,697.281046,162.700457,697.529531,162.8,697.76C162.892303,697.992805,163.031913,698.203923,163.21,698.38C163.387987,698.555748,163.598599,698.695024,163.83,698.79C164.059317,698.880653,164.303422,698.928118,164.55,698.93C165.055335,698.928861,165.538698,698.723252,165.89,698.36L169.43,694.83C170.19798,695.027649,170.987037,695.131737,171.78,695.14L187.59,695.14C188.382963,695.131737,189.17202,695.027649,189.94,694.83L193.47,698.36C193.828321,698.710351,194.308867,698.90759,194.81,698.91C195.307576,698.895354,195.781806,698.695678,196.14,698.35C196.492491,697.99717,196.690339,697.518737,196.69,697.02C196.689775,696.523318,196.496082,696.046259,196.15,695.69ZM169,669.51C169.501236,666.823652,171.847292,664.877014,174.58,664.88L184.71,664.88C186.032517,664.881124,187.313038,665.344517,188.33,666.19C189.362716,667.030195,190.070012,668.204306,190.33,669.51L191,673C188.151558,676.25959,184.033805,678.129692,179.705,678.129692C175.376195,678.129692,171.258442,676.25959,168.41,673ZM192,689.31C191.466645,689.948219,190.801398,690.463359,190.05,690.82C189.296395,691.174627,188.472855,691.355737,187.64,691.35L171.78,691.35C170.09429,691.34827,168.496436,690.597874,167.418601,689.301767C166.340766,688.005661,165.894316,686.297763,166.2,684.64L167.55,677.47C174.56252,683.37485,184.80748,683.37485,191.82,677.47L193.16,684.64C193.318622,685.458937,193.291283,686.303044,193.08,687.11C192.883777,687.912968,192.51526,688.663651,192,689.31Z" fill="rgb(119,0,241)" stroke="none" stroke-width="1" stroke-miterlimit="1"/></g></g><g id="e8sPVau2cxQ26" opacity="0"><g id="e8sPVau2cxQ27"><circle id="e8sPVau2cxQ28" r="47.81" transform="matrix(1 0 0 1 501.95 857.16)" fill="rgb(218,195,251)" stroke="none" stroke-width="1" stroke-miterlimit="1"/><path id="e8sPVau2cxQ29" d="M510.9,841C509.281667,839.675006,507.389545,838.72553,505.36,838.22C501.61006,837.288476,497.642086,837.938955,494.385842,840.019018C491.129598,842.099081,488.871262,845.42592,488.14,849.22C487.341877,853.369216,488.442473,857.657871,491.14,860.91C492.380351,862.305415,493.08859,864.093717,493.14,865.96L493.14,871.23C493.139997,872.629425,493.696601,873.971388,494.687081,874.959993C495.677562,875.948597,497.020577,876.502655,498.42,876.5L505.42,876.5C506.818505,876.502661,508.160497,875.948285,509.149391,874.959391C510.138285,873.970497,510.692661,872.628505,510.69,871.23L510.69,866.29C510.753556,864.232833,511.507315,862.256857,512.83,860.68C517.705072,854.691098,516.810217,845.885722,510.83,841ZM507.23,871.2C507.219189,872.167508,506.437508,872.949189,505.47,872.96L498.47,872.96C498.000887,872.959163,497.551294,872.772132,497.22,872.44C496.896657,872.107767,496.713971,871.663587,496.71,871.2L496.71,869.44L507.26,869.44ZM510.16,858.47C508.390348,860.567279,507.360644,863.188983,507.23,865.93L503.71,865.93L503.71,860.65C503.706029,860.186413,503.523343,859.742233,503.2,859.41C502.696813,858.91042,501.942974,858.761587,501.287677,859.032443C500.632379,859.303299,500.203617,859.940941,500.2,860.65L500.2,866L496.68,866C496.634,863.305336,495.638953,860.713257,493.87,858.68C491.492821,855.829332,490.790314,851.938418,492.020519,848.436435C493.250724,844.934452,496.232269,842.337702,499.87,841.6C501.401223,841.289708,502.981992,841.320436,504.5,841.69C509.205416,842.862077,512.505888,847.090807,512.5,851.94C512.496484,854.32747,511.670062,856.640747,510.16,858.49Z" fill="rgb(119,0,241)" stroke="none" stroke-width="1" stroke-miterlimit="1"/></g></g><g id="e8sPVau2cxQ30" opacity="0"><g id="e8sPVau2cxQ31"><circle id="e8sPVau2cxQ32" r="47.81" transform="matrix(1 0 0 1 821.95 677.16)" fill="rgb(218,195,251)" stroke="none" stroke-width="1" stroke-miterlimit="1"/><path id="e8sPVau2cxQ33" d="M815.41,687.65C814.781111,687.649876,814.18527,687.931608,813.786296,688.417737C813.387322,688.903865,813.227217,689.543214,813.35,690.16C813.425517,690.571837,813.628383,690.949587,813.93,691.24C814.221787,691.532529,814.59444,691.731045,815,691.81C815.409202,691.898691,815.83592,691.856718,816.22,691.69C816.605607,691.537032,816.934106,691.267943,817.16,690.92C817.712007,690.086601,817.603456,688.980222,816.9,688.27C816.50328,687.8768,815.968547,687.654294,815.41,687.65ZM809.11,687.65C808.260619,687.653357,807.496062,688.165689,807.17,688.95C807.010964,689.332527,806.969196,689.753688,807.05,690.16C807.125517,690.571837,807.328383,690.949587,807.63,691.24C807.921787,691.532529,808.29444,691.731045,808.7,691.81C809.109202,691.898691,809.53592,691.856718,809.92,691.69C810.305607,691.537032,810.634106,691.267943,810.86,690.92C811.412007,690.086601,811.303456,688.980222,810.6,688.27C810.20328,687.8768,809.668547,687.654294,809.11,687.65ZM821.71,687.65C821.081111,687.649876,820.48527,687.931608,820.086296,688.417737C819.687322,688.903865,819.527217,689.543214,819.65,690.16C819.725517,690.571837,819.928383,690.949587,820.23,691.24C820.523227,691.530581,820.895253,691.728763,821.3,691.81C821.709202,691.898691,822.13592,691.856718,822.52,691.69C822.905607,691.537032,823.234106,691.267943,823.46,690.92C824.012007,690.086601,823.903456,688.980222,823.2,688.27C822.80328,687.8768,822.268547,687.654294,821.71,687.65ZM828.22,669.8C828.40217,669.467185,828.671903,669.190536,829,669C829.65029,668.626922,830.44971,668.626922,831.1,669C831.419211,669.180978,831.684865,669.443181,831.87,669.76C832.441847,670.762097,833.717556,671.111239,834.72,670.54C834.967919,670.409816,835.18857,670.233295,835.37,670.02C835.548081,669.801832,835.680686,669.550222,835.76,669.28C835.914954,668.737306,835.850302,668.155444,835.58,667.66C835.029645,666.701266,834.236338,665.904509,833.28,665.35C831.830612,664.513153,830.108137,664.286392,828.491548,664.719608C826.874959,665.152824,825.496696,666.210525,824.66,667.66C824.49535,668.129311,824.49535,668.640689,824.66,669.11C824.826072,669.576972,825.151955,669.970158,825.58,670.22C826.462339,670.742402,827.593345,670.547547,828.25,669.76ZM842.92,663.5C840.292644,658.95724,835.442825,656.159645,830.195,656.159645C824.947175,656.159645,820.097356,658.95724,817.47,663.5C817.331595,663.740637,817.239983,664.005294,817.2,664.28C817.169466,664.554698,817.189805,664.832672,817.26,665.1C817.332021,665.36915,817.457892,665.620893,817.63,665.84C817.799821,666.058382,818.010373,666.241766,818.25,666.38C818.868802,666.737266,819.631198,666.737266,820.25,666.38C820.569618,666.195126,820.835126,665.929618,821.02,665.61C822.899233,662.364947,826.365082,660.36698,830.115,660.36698C833.864918,660.36698,837.330767,662.364947,839.21,665.61C839.345119,665.851834,839.529004,666.062962,839.75,666.23C839.966713,666.400015,840.214756,666.525735,840.48,666.6C840.750599,666.65468,841.029401,666.65468,841.3,666.6C841.855217,666.522751,842.361603,666.241029,842.72,665.81C842.898047,665.595556,843.030724,665.347212,843.11,665.08C843.188253,664.810733,843.21205,664.528569,843.18,664.25C843.144314,663.98514,843.055906,663.730117,842.92,663.5ZM834.31,681.35L832.21,681.35L832.21,675.05C832.21,674.493045,831.988751,673.958902,831.594924,673.565076C831.201098,673.171249,830.666955,672.95,830.11,672.95C828.954725,672.960848,828.020848,673.894725,828.01,675.05L828.01,681.35L807,681.35C803.525164,681.360979,800.710979,684.175164,800.7,687.65L800.7,691.85C800.705487,695.328741,803.521272,698.148996,807,698.16L834.3,698.16C835.972598,698.160002,837.576545,697.494881,838.758312,696.311239C839.940079,695.127596,840.602655,693.522596,840.6,691.85L840.6,687.65C840.6,684.170606,837.779394,681.35,834.3,681.35ZM836.41,691.85C836.411598,692.40777,836.192279,692.943482,835.8,693.34C835.40328,693.7332,834.868547,693.955706,834.31,693.96L807,693.96C805.840861,693.949077,804.905416,693.009178,804.9,691.85L804.9,687.65C804.899273,687.093373,805.122751,686.559908,805.52,686.17C805.911813,685.775571,806.444046,685.552609,807,685.55L834.3,685.55C834.858547,685.554294,835.39328,685.7768,835.79,686.17C836.179842,686.564057,836.398962,687.095693,836.4,687.65Z" fill="rgb(119,0,241)" stroke="none" stroke-width="1" stroke-miterlimit="1"/></g></g><g id="e8sPVau2cxQ34" opacity="0"><g id="e8sPVau2cxQ35"><circle id="e8sPVau2cxQ36" r="47.81" transform="matrix(1 0 0 1 821.95 308.16)" fill="rgb(218,195,251)" stroke="none" stroke-width="1" stroke-miterlimit="1"/><path id="e8sPVau2cxQ37" d="M823.29,316.27L823,316C822.894122,315.92951,822.779919,315.872408,822.66,315.83L822.32,315.68C822.014307,315.606924,821.695693,315.606924,821.39,315.68C821.091662,315.768495,820.820125,315.930042,820.6,316.15C820.433544,316.337039,820.298464,316.549791,820.2,316.78C820.058818,317.125081,820.020612,317.503669,820.09,317.87C820.15315,318.24996,820.335217,318.600089,820.61,318.87C820.878206,319.147079,821.22914,319.329565,821.61,319.39C821.975139,319.466749,822.354921,319.431906,822.7,319.29C822.924772,319.18291,823.133461,319.044906,823.32,318.88C823.588398,318.606761,823.766421,318.257696,823.83,317.88C823.909528,317.514177,823.871016,317.132558,823.72,316.79C823.610528,316.591246,823.464661,316.414848,823.29,316.27ZM829.51,289.27L814.39,289.27C811.258545,289.27,808.72,291.808545,808.72,294.94L808.72,321.41C808.719995,324.543076,811.256929,327.084484,814.39,327.09L829.51,327.09C832.646977,327.09,835.19,324.546977,835.19,321.41L835.19,294.92C835.190002,293.414488,834.591257,291.970784,833.525761,290.907165C832.460266,289.843546,831.015509,289.247345,829.51,289.25ZM831.41,321.41C831.410007,321.912997,831.20951,322.395247,830.852901,322.74998C830.496291,323.104712,830.01299,323.302661,829.51,323.3L814.39,323.3C813.887925,323.302678,813.405638,323.104413,813.050613,322.749387C812.695587,322.394362,812.497322,321.912075,812.5,321.41L812.5,294.92C812.497322,294.417925,812.695587,293.935638,813.050613,293.580613C813.405638,293.225587,813.887925,293.027322,814.39,293.03L829.51,293.03C830.01299,293.027339,830.496291,293.225288,830.852901,293.58002C831.20951,293.934753,831.410007,294.417003,831.41,294.92Z" fill="rgb(119,0,241)" stroke="none" stroke-width="1" stroke-miterlimit="1"/></g></g><g id="e8sPVau2cxQ38"><g id="e8sPVau2cxQ39" opacity="0"><circle id="e8sPVau2cxQ40" r="47.81" transform="matrix(1 0 0 1 502.95 121.16)" fill="rgb(218,195,251)" stroke="none" stroke-width="1" stroke-miterlimit="1"/><path id="e8sPVau2cxQ41" d="M518.08,113.62L506.73,103.62C504.57593,101.699434,501.32407,101.699434,499.17,103.62L487.82,113.62C487.217339,114.152784,486.73936,114.811712,486.42,115.55C486.093376,116.286685,485.926383,117.084162,485.93,117.89L485.93,134.42C485.929998,135.925512,486.528743,137.369216,487.594239,138.432835C488.659734,139.496454,490.104491,140.092655,491.61,140.09L514.3,140.09C517.431455,140.09,519.97,137.551455,519.97,134.42L519.97,117.87C519.976804,116.24823,519.288819,114.701175,518.08,113.62ZM506.73,136.31L499.17,136.31L499.17,126.85C499.17,125.806182,500.016182,124.96,501.06,124.96L504.84,124.96C505.883818,124.96,506.73,125.806182,506.73,126.85ZM516.19,134.42C516.179173,135.4593,515.3393,136.299173,514.3,136.31L510.51,136.31L510.51,126.85C510.51,125.346223,509.912627,123.904036,508.849295,122.840705C507.785964,121.777373,506.343777,121.18,504.84,121.18L501.06,121.18C499.556223,121.18,498.114036,121.777373,497.050705,122.840705C495.987373,123.904036,495.39,125.346223,495.39,126.85L495.39,136.31L491.61,136.31C490.566182,136.31,489.72,135.463818,489.72,134.42L489.72,117.87C489.717945,117.601647,489.772463,117.335873,489.88,117.09C489.995265,116.846517,490.158531,116.62883,490.36,116.45L501.7,106.53C502.415975,105.904545,503.484025,105.904545,504.2,106.53L515.54,116.45C515.744527,116.625992,515.908315,116.844376,516.02,117.09C516.13069,117.335218,516.188609,117.600961,516.19,117.87Z" fill="rgb(119,0,241)" stroke="none" stroke-width="1" stroke-miterlimit="1"/></g></g></g></g></svg>