<svg width="52" height="47" viewBox="0 0 52 47" fill="none" xmlns="http://www.w3.org/2000/svg">
<path fill-rule="evenodd" clip-rule="evenodd" d="M8.19841 37.2083H6.39169C4.69576 37.2083 3.07014 36.5895 1.87277 35.487C0.673258 34.3864 0 32.8922 0 31.3333V25.4583C0 11.4073 11.456 0 25.5668 0C39.6775 0 51.1335 11.4073 51.1335 25.4583V31.3333C51.1335 32.8922 50.4603 34.3864 49.2608 35.487C48.0634 36.5895 46.4378 37.2083 44.7419 37.2083H42.9351C37.2039 46.2813 28.2257 47 25.5668 47C22.9078 47 13.9296 46.2813 8.19841 37.2083ZM42.6113 25.7012C41.3308 26.1633 39.9076 25.3487 39.9076 24.1404C39.9076 23.545 39.8607 22.9458 39.7947 22.3485C36.0428 21.8511 32.0863 18.5768 31.9137 15.0576C29.112 18.9841 22.2729 23.2239 16.906 23.2239C19.2198 21.855 20.8241 17.7934 20.9605 16.354C19.7226 18.4925 14.7861 22.4954 11.2643 23.1828L11.2259 24.1404C11.2259 25.3526 9.8006 26.1614 8.52226 25.7012V33.086C9.13373 33.5874 9.86877 33.9947 10.7402 34.2493C11.2196 34.3903 11.618 34.688 11.8502 35.0796C16.5502 43.003 23.4106 43.0833 25.5668 43.0833C27.5461 43.0833 33.4903 43.0148 38.0881 36.8774C35.8063 37.7253 33.2624 38.0602 30.0793 38.1562C29.291 39.3312 27.5652 40.1458 25.5668 40.1458C22.8226 40.1458 20.5962 38.6105 20.5962 36.7188C20.5962 34.827 22.8226 33.2917 25.5668 33.2917C27.5546 33.2917 29.2697 34.0965 30.0665 35.2598C34.1146 35.2089 39.3047 34.6057 42.6113 30.08V25.7012ZM19.1751 24.4792C20.6366 24.4792 21.8234 25.7952 21.8234 27.4167C21.8234 29.0382 20.6366 30.3542 19.1751 30.3542C17.7135 30.3542 16.5268 29.0382 16.5268 27.4167C16.5268 25.7952 17.7135 24.4792 19.1751 24.4792ZM31.9585 24.4792C33.42 24.4792 34.6068 25.7952 34.6068 27.4167C34.6068 29.0382 33.42 30.3542 31.9585 30.3542C30.4969 30.3542 29.3102 29.0382 29.3102 27.4167C29.3102 25.7952 30.4969 24.4792 31.9585 24.4792ZM43.6297 21.5417H46.5209C44.6971 11.5189 36.0023 3.91667 25.5668 3.91667C15.1313 3.91667 6.43643 11.5189 4.61267 21.5417H7.50385C8.61174 13.6633 14.7712 6.41942 25.5668 6.41942C36.3623 6.41942 42.5218 13.6633 43.6297 21.5417Z" fill="#FEFEFE"/>
</svg>
