<svg width="43" height="48" viewBox="0 0 43 48" fill="none" xmlns="http://www.w3.org/2000/svg">
<path d="M23.65 24L22.1708 16H20.8615L19.35 24C18.0686 24.694 17.2 25.968 17.2 27.446C17.2 29.654 19.1264 31.446 21.5 31.446C23.8736 31.446 25.8 29.654 25.8 27.446C25.8 25.968 24.9314 24.694 23.65 24ZM21.5 8C9.6277 8 0 16.954 0 28C0 39.046 9.6277 48 21.5 48C33.3723 48 43 39.046 43 28C43 16.954 33.3723 8 21.5 8ZM21.5 44C12.0164 44 4.3 36.822 4.3 28C4.3 19.178 12.0164 12 21.5 12C30.9837 12 38.7 19.178 38.7 28C38.7 36.822 30.9837 44 21.5 44ZM17.2 4.362V0H25.8V4.362C22.7083 3.876 20.2272 3.886 17.2 4.362ZM36.9349 8.814L39.9599 6L43 8.828L40.1599 11.47C39.1666 10.502 38.0873 9.618 36.9349 8.814ZM9.675 28C9.675 28.552 9.1934 29 8.6 29C8.0066 29 7.525 28.552 7.525 28C7.525 27.448 8.0066 27 8.6 27C9.1934 27 9.675 27.448 9.675 28ZM35.475 28C35.475 28.552 34.9934 29 34.4 29C33.8066 29 33.325 28.552 33.325 28C33.325 27.448 33.8066 27 34.4 27C34.9934 27 35.475 27.448 35.475 28ZM22.575 40C22.575 40.552 22.0934 41 21.5 41C20.9066 41 20.425 40.552 20.425 40C20.425 39.448 20.9066 39 21.5 39C22.0934 39 22.575 39.448 22.575 40ZM13.975 36C13.975 36.552 13.4934 37 12.9 37C12.3066 37 11.825 36.552 11.825 36C11.825 35.448 12.3066 35 12.9 35C13.4934 35 13.975 35.448 13.975 36ZM31.175 36C31.175 36.552 30.6934 37 30.1 37C29.5066 37 29.025 36.552 29.025 36C29.025 35.448 29.5066 35 30.1 35C30.6934 35 31.175 35.448 31.175 36ZM13.975 18C13.975 18.552 13.4934 19 12.9 19C12.3066 19 11.825 18.552 11.825 18C11.825 17.448 12.3066 17 12.9 17C13.4934 17 13.975 17.448 13.975 18ZM31.175 18C31.175 18.552 30.6934 19 30.1 19C29.5066 19 29.025 18.552 29.025 18C29.025 17.448 29.5066 17 30.1 17C30.6934 17 31.175 17.448 31.175 18Z" fill="#FEFEFE"/>
</svg>
