<svg width="21" height="17" viewBox="0 0 21 17" fill="none" xmlns="http://www.w3.org/2000/svg">
<path d="M6.38264 9.71429H5.74438C4.33421 9.71429 3.19132 10.8033 3.19132 12.1474V14.5669C3.19132 15.9106 4.33421 17 5.74438 17H6.38264C7.08753 17 7.65917 16.4551 7.65917 15.7834V10.9308C7.65917 10.2588 7.08753 9.71429 6.38264 9.71429ZM14.6801 9.71429H14.0418C13.3369 9.71429 12.7653 10.2588 12.7653 10.9308V15.7834C12.7653 16.4551 13.3369 17 14.0418 17H14.6801C16.0902 17 17.2331 15.9106 17.2331 14.5669V12.1474C17.2331 10.8037 16.0902 9.71429 14.6801 9.71429ZM10.2122 0C4.50415 0 0.182304 4.52056 0 9.71429V13.9643C0 14.2997 0.285623 14.5714 0.638264 14.5714H1.27653C1.62917 14.5714 1.91479 14.2997 1.91479 13.9643V9.71429C1.91479 5.36297 5.63787 1.82902 10.2122 1.82826C14.7866 1.82902 18.5097 5.36297 18.5097 9.71429V13.9643C18.5097 14.2997 18.7953 14.5714 19.1479 14.5714H19.7862C20.1388 14.5714 20.4245 14.2997 20.4245 13.9643V9.71429C20.2422 4.52056 15.9203 0 10.2122 0Z" fill="white"/>
</svg>
