<svg width="25" height="27" viewBox="0 0 25 27" fill="none" xmlns="http://www.w3.org/2000/svg">
<path d="M23.0068 8.4427L15.2049 1.57548C14.4897 0.933206 13.5638 0.578125 12.6043 0.578125C11.6447 0.578125 10.7189 0.933206 10.0037 1.57548L2.2018 8.4427C1.78878 8.81358 1.45919 9.26854 1.23498 9.7773C1.01077 10.2861 0.897086 10.8369 0.90149 11.3933V22.8038C0.90149 23.8426 1.31248 24.8388 2.04405 25.5733C2.77561 26.3078 3.76783 26.7205 4.80242 26.7205H20.4061C21.4407 26.7205 22.4329 26.3078 23.1645 25.5733C23.8961 24.8388 24.3071 23.8426 24.3071 22.8038V11.3802C24.3096 10.8261 24.195 10.2777 23.9709 9.77134C23.7467 9.26497 23.4181 8.81212 23.0068 8.4427ZM15.2049 24.1094H10.0037V17.5816C10.0037 17.2353 10.1407 16.9033 10.3845 16.6584C10.6284 16.4136 10.9591 16.276 11.304 16.276H13.9046C14.2494 16.276 14.5802 16.4136 14.824 16.6584C15.0679 16.9033 15.2049 17.2353 15.2049 17.5816V24.1094ZM21.7064 22.8038C21.7064 23.1501 21.5694 23.4821 21.3256 23.727C21.0817 23.9718 20.751 24.1094 20.4061 24.1094H17.8055V17.5816C17.8055 16.5428 17.3945 15.5466 16.663 14.8121C15.9314 14.0776 14.9392 13.6649 13.9046 13.6649H11.304C10.2694 13.6649 9.27716 14.0776 8.54559 14.8121C7.81403 15.5466 7.40304 16.5428 7.40304 17.5816V24.1094H4.80242C4.45756 24.1094 4.12682 23.9718 3.88296 23.727C3.63911 23.4821 3.50211 23.1501 3.50211 22.8038V11.3802C3.50234 11.1948 3.54189 11.0116 3.61812 10.8428C3.69435 10.674 3.80551 10.5234 3.94422 10.401L11.7461 3.54687C11.9834 3.33756 12.2884 3.22213 12.6043 3.22213C12.9201 3.22213 13.2252 3.33756 13.4625 3.54687L21.2643 10.401C21.403 10.5234 21.5142 10.674 21.5904 10.8428C21.6667 11.0116 21.7062 11.1948 21.7064 11.3802V22.8038Z" fill="#B583F9"/>
</svg>
