<svg width="24" height="26" viewBox="0 0 24 26" fill="none" xmlns="http://www.w3.org/2000/svg">
<path d="M7.66098 15.8746C7.47799 15.6956 7.24584 15.5744 6.99369 15.5261C6.74155 15.4779 6.48067 15.5047 6.24385 15.6033C6.08252 15.6614 5.93601 15.754 5.81468 15.8745C5.69334 15.995 5.60015 16.1406 5.54168 16.3008C5.45734 16.4973 5.42335 16.7114 5.44275 16.9241C5.46216 17.1368 5.53435 17.3414 5.65286 17.5196C5.77138 17.6978 5.93252 17.844 6.12187 17.9452C6.31122 18.0464 6.52286 18.0993 6.73786 18.0993C6.95286 18.0993 7.16451 18.0464 7.35385 17.9452C7.5432 17.844 7.70435 17.6978 7.82286 17.5196C7.94138 17.3414 8.01357 17.1368 8.03297 16.9241C8.05237 16.7114 8.01838 16.4973 7.93404 16.3008C7.86826 16.1443 7.77589 16.0001 7.66098 15.8746ZM18.0635 15.8746C17.812 15.644 17.4824 15.516 17.1403 15.516C16.7981 15.516 16.4685 15.644 16.2171 15.8746C16.1022 16.0001 16.0098 16.1443 15.9441 16.3009C15.8426 16.5358 15.8144 16.7955 15.863 17.0465C15.9117 17.2974 16.035 17.5281 16.217 17.7087C16.3434 17.8229 16.4886 17.9147 16.6462 17.98C16.8018 18.0482 16.9701 18.0834 17.1402 18.0834C17.3103 18.0834 17.4785 18.0482 17.6341 17.98C17.7916 17.9144 17.9368 17.8226 18.0634 17.7087C18.2454 17.5281 18.3687 17.2975 18.4174 17.0465C18.466 16.7956 18.4378 16.5359 18.3364 16.301C18.2707 16.1444 18.1784 16.0002 18.0635 15.8746ZM21.4435 21.8231C22.3641 21.0942 23.0667 20.1294 23.4756 19.0328C23.8845 17.9362 23.9842 16.7496 23.7637 15.6009L21.8133 5.26752C21.5336 3.78737 20.7421 2.45082 19.5756 1.48897C18.409 0.527119 16.9407 0.000438745 15.4247 0H8.45331C6.93725 0.000453053 5.469 0.527146 4.30245 1.48901C3.1359 2.45087 2.34439 3.78742 2.06477 5.26757L0.114304 15.6009C-0.106121 16.7496 -0.00650371 17.9363 0.402401 19.0329C0.811305 20.1294 1.51396 21.0942 2.43452 21.8231L0.617199 23.6285C0.494672 23.748 0.397196 23.8904 0.330401 24.0476C0.263606 24.2048 0.228816 24.3735 0.228038 24.5441C0.22726 24.7147 0.260511 24.8837 0.32587 25.0415C0.39123 25.1992 0.487402 25.3426 0.608835 25.4632C0.730267 25.5838 0.874553 25.6793 1.03336 25.7443C1.19217 25.8092 1.36235 25.8422 1.53408 25.8414C1.70581 25.8407 1.87568 25.8061 2.03389 25.7398C2.1921 25.6734 2.33551 25.5766 2.45584 25.4549L4.8863 23.0406C5.41418 23.1774 5.95729 23.2478 6.50284 23.25H17.3751C17.9207 23.2478 18.4638 23.1774 18.9917 23.0406L21.4222 25.4549C21.6667 25.6935 21.9963 25.8264 22.339 25.8249C22.6818 25.8234 23.0101 25.6874 23.2525 25.4466C23.4949 25.2059 23.6317 24.8797 23.6333 24.5392C23.6349 24.1987 23.501 23.8714 23.2608 23.6285L21.4435 21.8231ZM4.61967 5.74439C4.78779 4.85633 5.26285 4.05448 5.9628 3.47733C6.66275 2.90018 7.54363 2.58398 8.45331 2.58333H15.4247C16.3344 2.58398 17.2152 2.90018 17.9152 3.47733C18.6151 4.05448 19.0902 4.85633 19.2583 5.74439L19.7091 8.13259C18.7383 9.22994 17.5431 10.109 16.2032 10.7113C14.8634 11.3135 13.4096 11.625 11.939 11.625C10.4684 11.625 9.01461 11.3135 7.67474 10.7113C6.33487 10.109 5.13968 9.22994 4.16888 8.13259L4.61967 5.74439ZM20.3758 19.2665C20.0104 19.7052 19.552 20.0582 19.0332 20.3002C18.5145 20.5423 17.9483 20.6674 17.3751 20.6667H6.50284C5.92976 20.6665 5.36375 20.5408 4.84506 20.2988C4.32638 20.0567 3.86774 19.7041 3.50177 19.266C3.13579 18.8279 2.87146 18.3151 2.72757 17.7641C2.58367 17.213 2.56375 16.6373 2.6692 16.0777L3.5938 11.1793C5.92863 13.1354 8.88461 14.2083 11.939 14.2083C14.9934 14.2083 17.9494 13.1354 20.2842 11.1793L21.2088 16.0777C21.3152 16.6374 21.2957 17.2135 21.1517 17.7648C21.0077 18.316 20.7427 18.8289 20.3758 19.2665Z" fill="#B583F9"/>
</svg>
