<svg width="19" height="27" viewBox="0 0 19 27" fill="none" xmlns="http://www.w3.org/2000/svg">
<path d="M10.5264 19.2687L10.3313 19.112C10.2588 19.0626 10.1801 19.0231 10.0973 18.9945L9.8632 18.8901C9.65232 18.8458 9.43379 18.8549 9.22725 18.9164C9.02071 18.9779 8.83264 19.09 8.67992 19.2426C8.56507 19.3695 8.47271 19.5152 8.40686 19.6734C8.30845 19.9113 8.28233 20.1731 8.33178 20.4258C8.38122 20.6786 8.50402 20.911 8.68473 21.0938C8.86544 21.2767 9.09597 21.4017 9.34732 21.4533C9.59867 21.5049 9.85959 21.4807 10.0973 21.3837C10.2526 21.308 10.397 21.2114 10.5264 21.0965C10.7068 20.9129 10.829 20.6797 10.8776 20.4265C10.9262 20.1732 10.899 19.9112 10.7994 19.6734C10.7346 19.5225 10.642 19.3851 10.5264 19.2687ZM14.8044 0.612305H4.40191C3.36731 0.612305 2.3751 1.02495 1.64353 1.75947C0.911966 2.49399 0.500977 3.49021 0.500977 4.52897V22.8068C0.500977 23.8455 0.911966 24.8417 1.64353 25.5763C2.3751 26.3108 3.36731 26.7234 4.40191 26.7234H14.8044C15.839 26.7234 16.8312 26.3108 17.5628 25.5763C18.2943 24.8417 18.7053 23.8455 18.7053 22.8068V4.52897C18.7053 3.49021 18.2943 2.49399 17.5628 1.75947C16.8312 1.02495 15.839 0.612305 14.8044 0.612305ZM16.1047 22.8068C16.1047 23.153 15.9677 23.4851 15.7238 23.7299C15.48 23.9748 15.1492 24.1123 14.8044 24.1123H4.40191C4.05704 24.1123 3.7263 23.9748 3.48245 23.7299C3.23859 23.4851 3.1016 23.153 3.1016 22.8068V4.52897C3.1016 4.18272 3.23859 3.85064 3.48245 3.6058C3.7263 3.36097 4.05704 3.22342 4.40191 3.22342H14.8044C15.1492 3.22342 15.48 3.36097 15.7238 3.6058C15.9677 3.85064 16.1047 4.18272 16.1047 4.52897V22.8068Z" fill="#B583F9"/>
</svg>
