<svg width="26" height="26" viewBox="0 0 26 26" fill="none" xmlns="http://www.w3.org/2000/svg">
<path d="M19.25 25.4999C14.1466 25.4933 9.25414 23.463 5.6455 19.8544C2.03686 16.2458 0.0066149 11.3533 0 6.2499C0 4.7249 0.605802 3.26237 1.68414 2.18403C2.76247 1.1057 4.22501 0.499899 5.75 0.499899C6.07293 0.497439 6.39531 0.526747 6.7125 0.587399C7.01914 0.632774 7.32058 0.708136 7.6125 0.812399C7.81781 0.884435 8.00076 1.00882 8.14326 1.17324C8.28576 1.33766 8.38288 1.53643 8.425 1.7499L10.1375 9.2499C10.1837 9.45348 10.1781 9.66537 10.1213 9.86625C10.0646 10.0671 9.95839 10.2506 9.8125 10.3999C9.65 10.5749 9.6375 10.5874 8.1 11.3874C9.33124 14.0885 11.4915 16.2576 14.1875 17.4999C15 15.9499 15.0125 15.9374 15.1875 15.7749C15.3368 15.629 15.5203 15.5228 15.7211 15.4661C15.922 15.4093 16.1339 15.4037 16.3375 15.4499L23.8375 17.1624C24.0441 17.2103 24.2352 17.3101 24.3926 17.4522C24.5501 17.5944 24.6687 17.7742 24.7375 17.9749C24.843 18.2716 24.9225 18.5769 24.975 18.8874C25.0253 19.2016 25.0504 19.5192 25.05 19.8374C25.027 21.3559 24.4041 22.8036 23.3175 23.8645C22.2308 24.9254 20.7686 25.5133 19.25 25.4999ZM5.75 2.9999C4.88906 3.00319 4.06432 3.34666 3.45554 3.95544C2.84676 4.56422 2.50329 5.38896 2.5 6.2499C2.50331 10.6913 4.2691 14.9498 7.40962 18.0903C10.5501 21.2308 14.8086 22.9966 19.25 22.9999C20.1109 22.9966 20.9357 22.6531 21.5445 22.0444C22.1532 21.4356 22.4967 20.6108 22.5 19.7499V19.3374L16.7 17.9999L16.3375 18.6874C15.775 19.7749 15.3625 20.5624 14.3125 20.1374C12.2411 19.396 10.3609 18.2024 8.80842 16.6435C7.25597 15.0846 6.07028 13.1994 5.3375 11.1249C4.8875 10.1499 5.7375 9.6999 6.8125 9.1374L7.5 8.7999L6.1625 2.9999H5.75Z" fill="#B583F9"/>
</svg>
