<svg width="47" height="47" viewBox="0 0 47 47" fill="none" xmlns="http://www.w3.org/2000/svg">
<path d="M34.8764 2.65839C34.4569 2.65839 34.0454 2.82807 33.7486 3.12597C33.4518 3.4253 33.2812 3.83855 33.2812 4.25974C33.2812 4.68093 33.4518 5.09242 33.7486 5.39191C34.0469 5.68981 34.4569 5.86124 34.8764 5.86124C35.2959 5.86124 35.7074 5.68981 36.0041 5.39191C36.3024 5.09242 36.4715 4.68093 36.4715 4.25974C36.4715 3.8368 36.3024 3.4253 36.0041 3.12597C35.7074 2.82807 35.2973 2.65839 34.8764 2.65839Z" fill="#FEFEFE"/>
<path d="M45.4044 22.9382H43.2332C41.5928 19.2474 38.2517 16.1129 33.8402 14.1337V11.0426C33.8402 10.2501 33.2629 9.57691 32.4825 9.45903C32.2597 9.42503 27.3441 8.72754 24.5003 11.9353C24.0027 11.9088 23.512 11.8953 23.0338 11.8953C17.421 11.8953 12.1263 13.5391 8.12504 16.5238C6.45852 17.7668 5.09379 19.1823 4.05695 20.7196C3.97576 20.6481 3.89443 20.5688 3.81625 20.4799C3.23136 19.8143 3.05856 18.9275 3.28802 17.7683C3.45972 16.9008 2.89841 16.0578 2.03437 15.8854C1.17002 15.7122 0.330673 16.2766 0.158973 17.144C-0.507569 20.5113 1.04342 22.5784 2.55327 23.6054C1.99165 25.0829 1.69984 26.6326 1.69984 28.2207C1.69984 29.7524 1.8929 30.988 2.30704 32.1094C4.57584 38.2504 9.64644 45.9585 9.86118 46.2837C10.1566 46.7311 10.6557 47.0001 11.1905 47.0001H17.3049C17.7927 47.0001 18.2539 46.7759 18.5563 46.3916C18.8589 46.0074 18.9695 45.5052 18.8568 45.0287L18.6618 44.2044C21.435 44.6448 24.3528 44.6598 27.1444 44.243L26.9586 45.0287C26.8458 45.5052 26.9566 46.0074 27.2592 46.3916C27.5617 46.7759 28.0227 47.0001 28.5106 47.0001H34.8774C35.4556 47.0001 35.9886 46.6858 36.2703 46.1788L42.6325 34.7299H45.4049C46.2857 34.7299 47 34.0129 47 33.1284V24.5396C46.9995 23.6552 46.2854 22.9382 45.4044 22.9382ZM43.8094 31.5273H41.6955C41.1173 31.5273 40.5843 31.8415 40.3026 32.3485L33.9404 43.7974H30.5283L30.8205 42.5621C30.949 42.0187 30.7864 41.4475 30.3912 41.0545C29.9962 40.6612 29.4256 40.5035 28.8858 40.6374C26.998 41.106 25.029 41.3435 23.0336 41.3435C20.9417 41.3435 18.8885 41.0853 16.9306 40.5758C16.3889 40.4352 15.8135 40.5893 15.4141 40.9822C15.0145 41.3753 14.8493 41.9496 14.9786 42.496L15.2864 43.7974H12.0577C10.7588 41.7561 7.05544 35.7538 5.29777 30.9958C5.01941 30.2422 4.88965 29.3603 4.88965 28.2208C4.88965 20.985 13.029 15.0983 23.0336 15.0983C23.7019 15.0983 24.4001 15.1282 25.1084 15.187C25.689 15.237 26.25 14.9615 26.5713 14.4731C27.537 13.0038 29.3795 12.6444 30.6501 12.5848V15.1984C30.6501 15.8568 31.0516 16.4481 31.6619 16.689C36.1432 18.4567 39.4171 21.5093 40.6435 25.0642C40.866 25.7089 41.4711 26.1414 42.1506 26.1414H43.8092L43.8094 31.5273Z" fill="#FEFEFE"/>
<path d="M20.4012 11.13C23.4576 11.13 25.944 8.63352 25.944 5.56508C25.944 2.49663 23.4574 0 20.4012 0C17.345 0 14.8584 2.49648 14.8584 5.56492C14.8584 8.63336 17.3448 11.13 20.4012 11.13ZM20.4012 3.20285C21.6984 3.20285 22.7539 4.26258 22.7539 5.56492C22.7539 6.86725 21.6984 7.92698 20.4012 7.92698C19.104 7.92698 18.0485 6.86725 18.0485 5.56492C18.0485 4.26258 19.1039 3.20285 20.4012 3.20285Z" fill="#FEFEFE"/>
</svg>
