<svg width="26" height="26" viewBox="0 0 26 26" fill="none" xmlns="http://www.w3.org/2000/svg">
<path d="M10.0546 15.6812L2.7134 16.5587L2.6209 16.5612C1.50965 16.5612 0.608398 15.6612 0.608398 14.5487C0.608398 13.5462 1.1334 12.6174 2.02715 12.0774L2.2284 11.9687L9.8409 8.28745L9.69465 3.3412C9.68266 2.91416 9.755 2.48894 9.9075 2.08988C10.06 1.69081 10.2897 1.32573 10.5834 1.01552C10.8771 0.705307 11.2292 0.456047 11.6193 0.281999C12.0095 0.107952 12.4301 0.0125308 12.8571 0.00119537L12.9396 -5.39448e-05C13.3681 0.000760474 13.7923 0.0862345 14.1876 0.251462C14.583 0.416688 14.9418 0.658408 15.2435 0.962735C15.5451 1.26706 15.7837 1.628 15.9454 2.0248C16.1071 2.42161 16.1889 2.84646 16.1859 3.27495L16.0409 8.2287L23.7759 11.9687C24.2611 12.2033 24.6703 12.5699 24.9567 13.0264C25.243 13.483 25.3948 14.011 25.3946 14.5499C25.3946 15.6612 24.4946 16.5612 23.3559 16.5612L23.2084 16.5524L15.8234 15.6687L15.7446 18.3337L16.6646 18.6712C17.1328 18.8423 17.5372 19.1531 17.8229 19.5616C18.1086 19.9701 18.262 20.4565 18.2621 20.9549C18.2621 22.0499 17.3746 22.9374 16.2784 22.9374L15.3284 22.9374L15.2884 23.1299C15.1752 23.669 14.8799 24.1528 14.4523 24.4999C14.0246 24.8471 13.4905 25.0366 12.9396 25.0366C12.3888 25.0366 11.8547 24.8471 11.427 24.4999C10.9994 24.1528 10.7041 23.669 10.5909 23.1299L10.5509 22.9362L9.6009 22.9362C8.59715 22.9362 7.75715 22.1899 7.62715 21.1437L7.61715 20.9549C7.61715 20.0237 8.14965 19.1762 9.0259 18.7487L9.2134 18.6699L10.1334 18.3324L10.0559 15.6824L10.0546 15.6812ZM2.4834 14.5487C2.4834 14.6237 2.54465 14.6849 2.59215 14.6862L11.8696 13.5774L12.0459 19.6274L9.90215 20.4124L9.8034 20.4524C9.6134 20.5462 9.4909 20.7399 9.48965 20.8949L9.49215 20.9674C9.49548 20.9933 9.5081 21.0171 9.52764 21.0343C9.54719 21.0516 9.57233 21.0611 9.5984 21.0612L12.0734 21.0599L12.4259 22.7474C12.4501 22.8657 12.5144 22.9719 12.6079 23.0483C12.7014 23.1246 12.8183 23.1662 12.939 23.1662C13.0597 23.1662 13.1767 23.1246 13.2702 23.0483C13.3637 22.9719 13.428 22.8657 13.4521 22.7474L13.8034 21.0599L16.2784 21.0599C16.3371 21.0599 16.3859 21.0124 16.3859 20.9537C16.3859 20.8394 16.3508 20.7278 16.2853 20.6341C16.2198 20.5404 16.127 20.4692 16.0196 20.4299L13.8309 19.6299L14.0071 13.5624L23.3459 14.6837L23.3834 14.6837C23.4584 14.6837 23.5184 14.6237 23.5184 14.5487C23.5184 14.3623 23.4658 14.1797 23.3668 14.0219C23.2677 13.864 23.1262 13.7373 22.9584 13.6562L14.1296 9.38745L14.3096 3.24494C14.3096 2.48745 13.6959 1.87369 12.9521 1.87369L12.8984 1.87369C12.7183 1.87903 12.541 1.91981 12.3767 1.9937C12.2123 2.06759 12.0642 2.17314 11.9407 2.30432C11.8172 2.4355 11.7207 2.58973 11.6568 2.75821C11.5929 2.92669 11.5629 3.1061 11.5684 3.2862L11.7484 9.4462L3.0834 13.6349L2.95965 13.7012C2.81416 13.7897 2.69391 13.9141 2.61049 14.0626C2.52708 14.211 2.48331 14.3784 2.4834 14.5487Z" fill="#B583F9"/>
</svg>
