<svg width="27" height="28" viewBox="0 0 27 28" fill="none" xmlns="http://www.w3.org/2000/svg">
<path d="M9.33333 20.6666C9.06962 20.6666 8.81184 20.7448 8.59257 20.8913C8.37331 21.0378 8.20241 21.2461 8.10149 21.4897C8.00058 21.7333 7.97417 22.0014 8.02562 22.2601C8.07707 22.5187 8.20405 22.7563 8.39052 22.9427C8.57699 23.1292 8.81457 23.2562 9.07321 23.3077C9.33185 23.3591 9.59994 23.3327 9.84358 23.2318C10.0872 23.1309 10.2955 22.96 10.442 22.7407C10.5885 22.5214 10.6667 22.2636 10.6667 21.9999C10.6667 21.6463 10.5262 21.3072 10.2761 21.0571C10.0261 20.8071 9.68696 20.6666 9.33333 20.6666ZM5.33333 20.6666C5.06962 20.6666 4.81184 20.7448 4.59257 20.8913C4.37331 21.0378 4.20241 21.2461 4.10149 21.4897C4.00058 21.7333 3.97417 22.0014 4.02562 22.2601C4.07707 22.5187 4.20405 22.7563 4.39052 22.9427C4.57699 23.1292 4.81457 23.2562 5.07321 23.3077C5.33185 23.3591 5.59994 23.3327 5.84358 23.2318C6.08721 23.1309 6.29545 22.96 6.44196 22.7407C6.58847 22.5214 6.66667 22.2636 6.66667 21.9999C6.66667 21.6463 6.52619 21.3072 6.27614 21.0571C6.02609 20.8071 5.68696 20.6666 5.33333 20.6666ZM13.3333 20.6666C13.0696 20.6666 12.8118 20.7448 12.5926 20.8913C12.3733 21.0378 12.2024 21.2461 12.1015 21.4897C12.0006 21.7333 11.9742 22.0014 12.0256 22.2601C12.0771 22.5187 12.2041 22.7563 12.3905 22.9427C12.577 23.1292 12.8146 23.2562 13.0732 23.3077C13.3319 23.3591 13.5999 23.3327 13.8436 23.2318C14.0872 23.1309 14.2955 22.96 14.442 22.7407C14.5885 22.5214 14.6667 22.2636 14.6667 21.9999C14.6667 21.6463 14.5262 21.3072 14.2761 21.0571C14.0261 20.8071 13.687 20.6666 13.3333 20.6666ZM17.4667 9.33327C17.5839 9.13122 17.7521 8.9635 17.9545 8.84692C18.1569 8.73033 18.3864 8.66897 18.62 8.66897C18.8536 8.66897 19.0831 8.73033 19.2855 8.84692C19.4879 8.9635 19.6561 9.13122 19.7733 9.33327C19.9492 9.63825 20.2386 9.86128 20.5783 9.9537C20.918 10.0461 21.2805 10.0004 21.5867 9.8266C21.7439 9.74405 21.8831 9.63091 21.9961 9.49382C22.109 9.35673 22.1934 9.19846 22.2444 9.0283C22.2953 8.85813 22.3117 8.67951 22.2926 8.50291C22.2736 8.32632 22.2194 8.15531 22.1333 7.99994C21.7826 7.39066 21.2775 6.88457 20.6689 6.53267C20.0603 6.18077 19.3697 5.99549 18.6667 5.99549C17.9636 5.99549 17.2731 6.18077 16.6644 6.53267C16.0558 6.88457 15.5507 7.39066 15.2 7.99994C15.0874 8.29444 15.0829 8.61931 15.1871 8.91687C15.2913 9.21442 15.4977 9.46541 15.7694 9.62527C16.0412 9.78513 16.3608 9.84351 16.6715 9.79005C16.9822 9.7366 17.264 9.57476 17.4667 9.33327ZM26.8 5.33327C25.9804 3.91579 24.8024 2.73885 23.3842 1.92061C21.9659 1.10237 20.3574 0.671631 18.72 0.671631C17.0826 0.671631 15.4741 1.10237 14.0558 1.92061C12.6376 2.73885 11.4596 3.91579 10.64 5.33327C10.5518 5.48545 10.4947 5.65357 10.4717 5.82794C10.4488 6.00231 10.4607 6.17949 10.5065 6.34928C10.5524 6.51906 10.6314 6.6781 10.7389 6.81723C10.8465 6.95636 10.9806 7.07283 11.1333 7.15994C11.3168 7.2644 11.5224 7.32381 11.7333 7.33327C11.9683 7.3342 12.1993 7.27304 12.403 7.15597C12.6067 7.0389 12.7759 6.87008 12.8933 6.6666C13.4785 5.65322 14.3201 4.81171 15.3335 4.22664C16.3469 3.64158 17.4965 3.33356 18.6667 3.33356C19.8369 3.33356 20.9864 3.64158 21.9999 4.22664C23.0133 4.81171 23.8549 5.65322 24.44 6.6666C24.5271 6.81939 24.6436 6.95343 24.7827 7.06101C24.9218 7.16859 25.0809 7.24758 25.2507 7.29343C25.4204 7.33929 25.5976 7.3511 25.772 7.32819C25.9464 7.30528 26.1145 7.2481 26.2667 7.15994C26.4228 7.07623 26.5607 6.96225 26.6723 6.82464C26.7839 6.68704 26.8669 6.52857 26.9166 6.35851C26.9663 6.18844 26.9815 6.01018 26.9615 5.83415C26.9415 5.65812 26.8866 5.48784 26.8 5.33327ZM21.3333 16.6666H20V12.6666C20 12.313 19.8595 11.9738 19.6095 11.7238C19.3594 11.4737 19.0203 11.3333 18.6667 11.3333C18.313 11.3333 17.9739 11.4737 17.7239 11.7238C17.4738 11.9738 17.3333 12.313 17.3333 12.6666V16.6666H4C2.93913 16.6666 1.92172 17.088 1.17157 17.8382C0.421427 18.5883 0 19.6057 0 20.6666V23.3333C0 24.3941 0.421427 25.4116 1.17157 26.1617C1.92172 26.9118 2.93913 27.3333 4 27.3333H21.3333C22.3942 27.3333 23.4116 26.9118 24.1618 26.1617C24.9119 25.4116 25.3333 24.3941 25.3333 23.3333V20.6666C25.3333 19.6057 24.9119 18.5883 24.1618 17.8382C23.4116 17.088 22.3942 16.6666 21.3333 16.6666ZM22.6667 23.3333C22.6667 23.6869 22.5262 24.026 22.2761 24.2761C22.0261 24.5261 21.687 24.6666 21.3333 24.6666H4C3.64638 24.6666 3.30724 24.5261 3.05719 24.2761C2.80714 24.026 2.66667 23.6869 2.66667 23.3333V20.6666C2.66667 20.313 2.80714 19.9738 3.05719 19.7238C3.30724 19.4737 3.64638 19.3333 4 19.3333H21.3333C21.687 19.3333 22.0261 19.4737 22.2761 19.7238C22.5262 19.9738 22.6667 20.313 22.6667 20.6666V23.3333Z" fill="#B583F9"/>
</svg>
