<svg width="51" height="50" viewBox="0 0 51 50" fill="none" xmlns="http://www.w3.org/2000/svg">
<path d="M17.5 37.4906C17.0055 37.4906 16.5222 37.6372 16.1111 37.9119C15.7 38.1866 15.3795 38.5771 15.1903 39.0339C15.0011 39.4907 14.9516 39.9934 15.048 40.4783C15.1445 40.9633 15.3826 41.4087 15.7322 41.7583C16.0819 42.108 16.5273 42.3461 17.0123 42.4425C17.4972 42.539 17.9999 42.4895 18.4567 42.3003C18.9135 42.1111 19.304 41.7906 19.5787 41.3795C19.8534 40.9684 20 40.485 20 39.9906C20 39.3275 19.7366 38.6916 19.2678 38.2228C18.7989 37.754 18.163 37.4906 17.5 37.4906ZM10 37.4906C9.50555 37.4906 9.0222 37.6372 8.61107 37.9119C8.19995 38.1866 7.87952 38.5771 7.6903 39.0339C7.50108 39.4907 7.45157 39.9934 7.54804 40.4783C7.6445 40.9633 7.8826 41.4087 8.23223 41.7583C8.58186 42.108 9.02732 42.3461 9.51227 42.4425C9.99723 42.539 10.4999 42.4895 10.9567 42.3003C11.4135 42.1111 11.804 41.7906 12.0787 41.3795C12.3534 40.9684 12.5 40.485 12.5 39.9906C12.5 39.3275 12.2366 38.6916 11.7678 38.2228C11.2989 37.754 10.663 37.4906 10 37.4906ZM25 37.4906C24.5055 37.4906 24.0222 37.6372 23.6111 37.9119C23.2 38.1866 22.8795 38.5771 22.6903 39.0339C22.5011 39.4907 22.4516 39.9934 22.548 40.4783C22.6445 40.9633 22.8826 41.4087 23.2322 41.7583C23.5819 42.108 24.0273 42.3461 24.5123 42.4425C24.9972 42.539 25.4999 42.4895 25.9567 42.3003C26.4135 42.1111 26.804 41.7906 27.0787 41.3795C27.3534 40.9684 27.5 40.485 27.5 39.9906C27.5 39.3275 27.2366 38.6916 26.7678 38.2228C26.2989 37.754 25.663 37.4906 25 37.4906ZM32.75 16.2406C32.9698 15.8617 33.2852 15.5473 33.6647 15.3287C34.0442 15.1101 34.4745 14.995 34.9125 14.995C35.3505 14.995 35.7808 15.1101 36.1603 15.3287C36.5398 15.5473 36.8552 15.8617 37.075 16.2406C37.4048 16.8124 37.9474 17.2306 38.5843 17.4039C39.2213 17.5772 39.901 17.4915 40.475 17.1656C40.7699 17.0108 41.0309 16.7987 41.2426 16.5416C41.4544 16.2846 41.6127 15.9878 41.7082 15.6687C41.8036 15.3497 41.8344 15.0148 41.7987 14.6837C41.7629 14.3525 41.6614 14.0319 41.5 13.7406C40.8424 12.5982 39.8953 11.6493 38.7542 10.9895C37.613 10.3296 36.3182 9.98223 35 9.98223C33.6818 9.98223 32.387 10.3296 31.2458 10.9895C30.1047 11.6493 29.1576 12.5982 28.5 13.7406C28.2889 14.2928 28.2803 14.9019 28.4758 15.4598C28.6713 16.0177 29.0581 16.4883 29.5676 16.7881C30.0772 17.0878 30.6765 17.1973 31.2591 17.097C31.8417 16.9968 32.3699 16.6934 32.75 16.2406ZM50.25 8.74058C48.7133 6.08279 46.5045 3.87603 43.8453 2.34184C41.1861 0.807639 38.17 0 35.1 0C32.03 0 29.0139 0.807639 26.3547 2.34184C23.6955 3.87603 21.4867 6.08279 19.95 8.74058C19.7847 9.02591 19.6775 9.34113 19.6345 9.66807C19.5916 9.99502 19.6137 10.3272 19.6997 10.6456C19.7857 10.9639 19.9338 11.2621 20.1355 11.523C20.3372 11.7839 20.5885 12.0023 20.875 12.1656C21.219 12.3614 21.6046 12.4728 22 12.4906C22.4405 12.4923 22.8737 12.3776 23.2556 12.1581C23.6376 11.9386 23.9547 11.6221 24.175 11.2406C25.2721 9.34049 26.8501 7.76265 28.7503 6.66565C30.6505 5.56865 32.8059 4.99113 35 4.99113C37.1941 4.99113 39.3496 5.56865 41.2497 6.66565C43.1499 7.76265 44.7279 9.34049 45.825 11.2406C45.9883 11.527 46.2067 11.7784 46.4676 11.9801C46.7284 12.1818 47.0266 12.3299 47.345 12.4159C47.6633 12.5019 47.9956 12.524 48.3225 12.481C48.6494 12.4381 48.9647 12.3309 49.25 12.1656C49.5428 12.0086 49.8013 11.7949 50.0106 11.5369C50.2198 11.2789 50.3755 10.9818 50.4686 10.6629C50.5617 10.344 50.5903 10.0098 50.5528 9.67973C50.5153 9.34967 50.4123 9.0304 50.25 8.74058V8.74058ZM40 29.9906H37.5V22.4906C37.5 21.8275 37.2366 21.1916 36.7678 20.7228C36.2989 20.254 35.663 19.9906 35 19.9906C34.337 19.9906 33.7011 20.254 33.2322 20.7228C32.7634 21.1916 32.5 21.8275 32.5 22.4906V29.9906H7.5C5.51088 29.9906 3.60322 30.7808 2.1967 32.1873C0.790176 33.5938 0 35.5015 0 37.4906V42.4906C0 44.4797 0.790176 46.3874 2.1967 47.7939C3.60322 49.2004 5.51088 49.9906 7.5 49.9906H40C41.9891 49.9906 43.8968 49.2004 45.3033 47.7939C46.7098 46.3874 47.5 44.4797 47.5 42.4906V37.4906C47.5 35.5015 46.7098 33.5938 45.3033 32.1873C43.8968 30.7808 41.9891 29.9906 40 29.9906ZM42.5 42.4906C42.5 43.1536 42.2366 43.7895 41.7678 44.2583C41.2989 44.7272 40.663 44.9906 40 44.9906H7.5C6.83696 44.9906 6.20107 44.7272 5.73223 44.2583C5.26339 43.7895 5 43.1536 5 42.4906V37.4906C5 36.8275 5.26339 36.1916 5.73223 35.7228C6.20107 35.254 6.83696 34.9906 7.5 34.9906H40C40.663 34.9906 41.2989 35.254 41.7678 35.7228C42.2366 36.1916 42.5 36.8275 42.5 37.4906V42.4906Z" fill="#FEFEFE"/>
</svg>
