<svg width="27" height="24" viewBox="0 0 27 24" fill="none" xmlns="http://www.w3.org/2000/svg">
<path d="M13.6301 15.7497C12.8884 15.7497 12.1634 15.9696 11.5467 16.3817C10.93 16.7938 10.4494 17.3794 10.1656 18.0646C9.88174 18.7499 9.80747 19.5039 9.95217 20.2313C10.0969 20.9587 10.454 21.6269 10.9785 22.1514C11.5029 22.6758 12.1711 23.033 12.8985 23.1777C13.626 23.3223 14.38 23.2481 15.0652 22.9643C15.7504 22.6804 16.3361 22.1998 16.7481 21.5831C17.1602 20.9664 17.3801 20.2414 17.3801 19.4997C17.3801 18.5051 16.985 17.5513 16.2818 16.8481C15.5785 16.1448 14.6247 15.7497 13.6301 15.7497ZM13.6301 10.7497C11.311 10.7577 9.0883 11.6782 7.44261 13.3122C7.2098 13.5464 7.07912 13.8632 7.07912 14.1935C7.07912 14.5237 7.2098 14.8405 7.44261 15.0747C7.67682 15.3075 7.99363 15.4382 8.32386 15.4382C8.6541 15.4382 8.97091 15.3075 9.20511 15.0747C9.78569 14.4927 10.4754 14.0309 11.2347 13.7158C11.994 13.4007 12.808 13.2385 13.6301 13.2385C14.4522 13.2385 15.2662 13.4007 16.0255 13.7158C16.7848 14.0309 17.4745 14.4927 18.0551 15.0747C18.2859 15.3102 18.6004 15.445 18.9301 15.4497C19.1837 15.4643 19.4358 15.4013 19.6527 15.269C19.8696 15.1368 20.041 14.9416 20.1442 14.7094C20.2474 14.4773 20.2774 14.2192 20.2302 13.9696C20.183 13.72 20.0609 13.4907 19.8801 13.3122C19.0576 12.4956 18.0824 11.849 17.01 11.4093C15.9376 10.9696 14.7891 10.7455 13.6301 10.7497ZM13.6301 5.74971C9.9851 5.75939 6.49084 7.20561 3.90511 9.77471C3.78857 9.89126 3.69611 10.0296 3.63304 10.1819C3.56996 10.3342 3.5375 10.4974 3.5375 10.6622C3.5375 10.9951 3.66973 11.3143 3.90511 11.5497C4.14049 11.7851 4.45974 11.9173 4.79261 11.9173C5.12549 11.9173 5.44473 11.7851 5.68011 11.5497C7.78949 9.44295 10.6489 8.25961 13.6301 8.25961C16.6114 8.25961 19.4707 9.44295 21.5801 11.5497C21.6969 11.6656 21.8354 11.7572 21.9877 11.8194C22.14 11.8816 22.3031 11.9132 22.4676 11.9122C22.6321 11.9132 22.7952 11.8816 22.9475 11.8194C23.0998 11.7572 23.2383 11.6656 23.3551 11.5497C23.4723 11.4335 23.5653 11.2953 23.6287 11.1429C23.6922 10.9906 23.7249 10.8272 23.7249 10.6622C23.7249 10.4972 23.6922 10.3338 23.6287 10.1815C23.5653 10.0292 23.4723 9.89091 23.3551 9.77471C20.7694 7.20561 17.2751 5.75939 13.6301 5.74971ZM26.8926 6.23721C25.1514 4.49484 23.0838 3.11265 20.8082 2.16962C18.5326 1.22659 16.0934 0.741211 13.6301 0.741211C11.1668 0.741211 8.72766 1.22659 6.45202 2.16962C4.17639 3.11265 2.10887 4.49484 0.367614 6.23721C0.132235 6.47259 0 6.79183 0 7.12471C0 7.45759 0.132235 7.77683 0.367614 8.01221C0.602994 8.24759 0.922237 8.37982 1.25511 8.37982C1.58799 8.37982 1.90723 8.24759 2.14261 8.01221C5.18984 4.96657 9.32181 3.25568 13.6301 3.25568C17.9384 3.25568 22.0704 4.96657 25.1176 8.01221C25.2338 8.12937 25.3721 8.22236 25.5244 8.28582C25.6767 8.34928 25.8401 8.38196 26.0051 8.38196C26.1701 8.38196 26.3335 8.34928 26.4858 8.28582C26.6382 8.22236 26.7764 8.12937 26.8926 8.01221C27.0098 7.89601 27.1028 7.75775 27.1662 7.60543C27.2297 7.4531 27.2624 7.28972 27.2624 7.12471C27.2624 6.95969 27.2297 6.79631 27.1662 6.64399C27.1028 6.49166 27.0098 6.35341 26.8926 6.23721Z" fill="#B583F9"/>
</svg>
