<svg width="100" height="100" viewBox="0 0 100 100" fill="none" xmlns="http://www.w3.org/2000/svg">
<path d="M40.1826 47.0211H42.6067C43.2221 47.0211 43.7069 47.188 44.0239 47.5034C44.2663 47.7445 44.3782 48.0412 44.3782 48.3937V48.4122C44.3782 49.0614 44.0052 49.3952 43.6137 49.6178C44.2477 49.8404 44.6765 50.1928 44.6765 50.9161V50.9347C44.6765 51.8992 43.8747 52.4 42.6813 52.4H40.1826V47.0211ZM42.4016 49.2839C43.017 49.2839 43.4272 49.0428 43.4272 48.5606V48.542C43.4272 48.1154 43.0915 47.8558 42.4762 47.8558H41.115V49.2839H42.4016ZM42.6813 51.5653C43.334 51.5653 43.7255 51.3056 43.7255 50.8234V50.8049C43.7255 50.3597 43.3712 50.0815 42.6067 50.0815H41.0963V51.5468L42.6813 51.5653Z" fill="#0046AD"/>
<path d="M45.5156 49.7297C45.5156 48.2088 46.6904 46.929 48.35 46.929C50.0095 46.929 51.1656 48.1717 51.1656 49.6926V49.7112C51.1656 51.2135 49.9909 52.4933 48.3313 52.4933C46.6717 52.4933 45.5156 51.2321 45.5156 49.7297ZM50.1587 49.7297C50.1587 48.6725 49.3942 47.8008 48.3313 47.8008C47.2684 47.8008 46.5039 48.654 46.5039 49.6926V49.7112C46.5039 50.7499 47.2684 51.6216 48.3313 51.6216C49.4128 51.6216 50.1587 50.7684 50.1587 49.7297Z" fill="#0046AD"/>
<path d="M52.0791 49.7297C52.0791 48.1903 53.2352 46.929 54.8575 46.929C55.8458 46.929 56.4611 47.2814 56.9646 47.7637L56.3492 48.4685C55.9204 48.0604 55.4542 47.8008 54.8388 47.8008C53.8133 47.8008 53.0487 48.6354 53.0487 49.6926V49.7112C53.0487 50.7684 53.7946 51.6216 54.8388 51.6216C55.5101 51.6216 55.9204 51.3619 56.3865 50.9168L57.0019 51.5289C56.4425 52.1038 55.8271 52.4748 54.8202 52.4748C53.2539 52.4933 52.0791 51.2692 52.0791 49.7297Z" fill="#0046AD"/>
<path d="M57.6172 49.7297C57.6172 48.1903 58.7733 46.929 60.3956 46.929C61.3838 46.929 61.9992 47.2814 62.5026 47.7637L61.8873 48.4685C61.4584 48.0604 60.9923 47.8008 60.3769 47.8008C59.3513 47.8008 58.5868 48.6354 58.5868 49.6926V49.7112C58.5868 50.7684 59.3327 51.6216 60.3769 51.6216C61.0482 51.6216 61.4584 51.3619 61.9246 50.9168L62.5399 51.5289C61.9805 52.1038 61.3652 52.4748 60.3583 52.4748C58.7919 52.4933 57.6172 51.2692 57.6172 49.7297Z" fill="#0046AD"/>
<path d="M63.1553 49.7297C63.1553 48.2088 64.33 46.929 65.9896 46.929C67.6492 46.929 68.8053 48.1717 68.8053 49.6926V49.7112C68.8053 51.2135 67.6305 52.4933 65.971 52.4933C64.3114 52.4933 63.1553 51.2321 63.1553 49.7297ZM67.817 49.7297C67.817 48.6725 67.0525 47.8008 65.9896 47.8008C64.9267 47.8008 64.1622 48.654 64.1622 49.6926V49.7112C64.1622 50.7499 64.9267 51.6216 65.9896 51.6216C67.0711 51.6216 67.817 50.7684 67.817 49.7297Z" fill="#0046AD"/>
<path d="M69.962 47.0247H70.8384L73.7287 50.7342V47.0247H74.661V52.385H73.8592L70.8757 48.5641V52.385H69.9434L69.962 47.0247Z" fill="#0046AD"/>
<path d="M76.1152 47.0208H77.0662V52.3811H76.1152V47.0208Z" fill="#0046AD"/>
<path d="M80.832 47.0208H84.8598V47.874H81.783V49.3393H84.5055V50.1925H81.783V52.3811H80.832V47.0208Z" fill="#0046AD"/>
<path d="M85.625 49.7297C85.625 48.2088 86.7998 46.929 88.4593 46.929C90.1189 46.929 91.275 48.1717 91.275 49.6926V49.7112C91.275 51.2135 90.1003 52.4933 88.4407 52.4933C86.7811 52.4933 85.625 51.2321 85.625 49.7297ZM90.2681 49.7297C90.2681 48.6725 89.5036 47.8008 88.4407 47.8008C87.3778 47.8008 86.6133 48.654 86.6133 49.6926V49.7112C86.6133 50.7499 87.3778 51.6216 88.4407 51.6216C89.5222 51.6216 90.2681 50.7684 90.2681 49.7297Z" fill="#0046AD"/>
<path d="M92.4131 47.0247H94.8185C95.4898 47.0247 96.0306 47.2287 96.3849 47.5625C96.6646 47.8593 96.8324 48.2488 96.8324 48.7125V48.731C96.8324 49.6213 96.2917 50.1407 95.5458 50.3633L97.0002 52.4035H95.8814L94.5575 50.5302H93.3641V52.4035H92.4131V47.0247ZM94.7626 49.6955C95.4339 49.6955 95.8814 49.3431 95.8814 48.8052V48.7867C95.8814 48.2117 95.4712 47.8964 94.7626 47.8964H93.3827V49.6955H94.7626Z" fill="#0046AD"/>
<path d="M40.2002 54.6629H41.3936V60.0974H40.2002V54.6629Z" fill="#0046AD"/>
<path d="M43.4269 54.6629H44.527L47.0816 58.0015V54.6629H48.2751V60.0974H47.2495L44.6016 56.6475V60.0974H43.4082V54.6629H43.4269Z" fill="#0046AD"/>
<path d="M50.252 54.6629H51.3522L53.9069 58.0015V54.6629H55.1003V60.0974H54.0747L51.4268 56.6475V60.0974H50.2334V54.6629H50.252Z" fill="#0046AD"/>
<path d="M56.8164 57.3904C56.8164 55.8324 58.0471 54.5711 59.7253 54.5711C61.4035 54.5711 62.6156 55.8138 62.6156 57.3718V57.3904C62.6156 58.9298 61.3849 60.2096 59.7067 60.2096C58.0285 60.2096 56.8164 58.9298 56.8164 57.3904ZM61.3849 57.3904C61.3849 56.4444 60.695 55.6654 59.7253 55.6654C58.7557 55.6654 58.0844 56.4259 58.0844 57.3533V57.3718C58.0844 58.2992 58.7743 59.0782 59.744 59.0782C60.7136 59.0782 61.3849 58.3177 61.3849 57.3904Z" fill="#0046AD"/>
<path d="M63.5469 54.6629H64.8708L66.3066 58.4837L67.7424 54.6629H69.0477L66.8474 60.1345H65.7845L63.5469 54.6629Z" fill="#0046AD"/>
<path d="M71.6024 54.6247H72.7026L75.0521 60.0963H73.8028L73.2993 58.8721H70.9871L70.4836 60.0963H69.2529L71.6024 54.6247ZM72.8704 57.8149L72.1432 56.0529L71.416 57.8149H72.8704Z" fill="#0046AD"/>
<path d="M77.1215 55.7572H75.4619V54.6629H79.9931V55.7572H78.3335V60.0974H77.1401V55.7572H77.1215Z" fill="#0046AD"/>
<path d="M81.6338 54.6629H82.8272V60.0974H81.6338V54.6629Z" fill="#0046AD"/>
<path d="M84.6182 57.3904C84.6182 55.8324 85.8489 54.5711 87.5271 54.5711C89.2053 54.5711 90.4174 55.8138 90.4174 57.3718V57.3904C90.4174 58.9298 89.1867 60.2096 87.5084 60.2096C85.8302 60.2096 84.6182 58.9298 84.6182 57.3904ZM89.168 57.3904C89.168 56.4444 88.4781 55.6654 87.5084 55.6654C86.5388 55.6654 85.8675 56.4259 85.8675 57.3533V57.3718C85.8675 58.2992 86.5574 59.0782 87.5271 59.0782C88.4967 59.0782 89.168 58.3177 89.168 57.3904Z" fill="#0046AD"/>
<path d="M92.1515 54.6629H93.2516L95.8063 58.0015V54.6629H96.9997V60.0974H95.9741L93.3262 56.6475V60.0974H92.1328V54.6629H92.1515Z" fill="#0046AD"/>
<path d="M29.4221 50.5997C28.6203 50.5997 28.1354 51.0819 28.1354 51.8794V54.9584H22.5973L26.0097 49.0231C26.4386 48.2441 26.2894 47.632 25.5435 47.224C24.7977 46.7974 24.201 46.9828 23.7534 47.7619L19.3155 55.4592C19.1663 55.7188 19.1104 55.997 19.1104 56.2196C19.1104 57.0172 19.5952 57.4994 20.397 57.4994H28.1168V58.9461C28.1168 59.3356 28.2287 59.651 28.4524 59.8735C28.6762 60.0961 28.9932 60.2074 29.4034 60.2074H29.4221C30.2239 60.2074 30.7087 59.7251 30.7087 58.9276V51.8794C30.7087 51.0819 30.2239 50.5997 29.4221 50.5997Z" fill="#00A599"/>
<path d="M33.4685 45.4433C35.075 45.4433 36.3774 44.1479 36.3774 42.5499C36.3774 40.9519 35.075 39.6564 33.4685 39.6564C31.8619 39.6564 30.5596 40.9519 30.5596 42.5499C30.5596 44.1479 31.8619 45.4433 33.4685 45.4433Z" fill="#00A599"/>
<path d="M33.4499 46.8684C32.5549 46.8684 32.126 47.3136 32.126 48.1853V58.8873C32.126 59.7776 32.5735 60.2042 33.4499 60.2042C34.345 60.2042 34.7738 59.7591 34.7738 58.8502L34.7925 48.1853C34.7925 47.3136 34.345 46.8684 33.4499 46.8684Z" fill="#0046AD"/>
<path d="M18.3091 55.3482C18.3091 56.9433 17.6192 58.186 16.258 59.0577C15.0645 59.8368 13.5728 60.2263 11.8013 60.2263H3.03729V60.0593H5.44274V42.4761H3V42.3091H10.7571C12.454 42.3091 13.8711 42.643 15.0086 43.2922C16.3512 44.0526 17.0225 45.184 17.0225 46.6864C17.0225 47.9477 16.519 48.9492 15.4934 49.7097C14.7848 50.229 14.039 50.5443 13.2372 50.6371C14.1695 50.6371 15.1578 51.008 16.2207 51.7499C17.6192 52.6959 18.3091 53.9015 18.3091 55.3482ZM13.7406 46.7235C13.7406 45.6106 13.4423 44.6462 12.8642 43.8115C12.2302 42.9212 11.4098 42.4946 10.4028 42.4946H9.13483V50.5443H10.7198C11.6522 50.5443 12.3607 50.3032 12.8456 49.8395C13.4423 49.246 13.7406 48.2073 13.7406 46.7235ZM14.5797 55.0885C14.5797 53.8644 14.2627 52.8443 13.6474 52.0467C12.9388 51.1564 11.9505 50.7113 10.7012 50.7113H9.13483V60.0408H11.1301C12.6032 60.0408 13.5914 59.5029 14.0949 58.4457C14.4119 57.7594 14.5797 56.6465 14.5797 55.0885Z" fill="#0046AD"/>
</svg>
