<svg width="100" height="100" viewBox="0 0 100 100" fill="none" xmlns="http://www.w3.org/2000/svg">
<path d="M57.0062 46.8913C57.0458 46.9016 57.0874 46.9071 57.1302 46.907C57.4075 46.907 57.6327 46.6789 57.6327 46.3974C57.6329 46.391 57.6324 46.3848 57.6324 46.3784C57.6324 46.2146 57.5301 45.9726 57.3328 45.8487C56.8464 45.5081 56.1042 45.3804 55.4581 45.3804C54.8113 45.3804 54.1273 45.5458 53.7023 45.8718C53.2723 46.202 53.0544 46.6677 53.0544 47.2556C53.0544 48.3333 53.8423 49.1166 55.3965 49.441C56.0831 49.5866 56.8314 49.9439 56.8314 50.5623C56.8314 50.8745 56.6844 51.2139 56.4345 51.3967C56.0341 51.6911 55.4555 51.7498 55.1711 51.7519C54.7956 51.7551 54.2067 51.6724 53.7104 51.3911C53.689 51.376 53.6658 51.3633 53.6419 51.3503C53.5652 51.3078 53.4774 51.2835 53.3838 51.2835C53.0866 51.2835 52.8456 51.5279 52.8456 51.8298C52.8456 51.9582 52.8892 52.0763 52.9624 52.1695C53.0067 52.2304 53.0622 52.2853 53.1285 52.3272C53.7995 52.797 54.755 52.8678 55.1895 52.8678C55.5998 52.8678 55.998 52.7819 56.4375 52.6443C56.7532 52.5452 57.0268 52.4008 57.2517 52.2141C57.4761 52.0273 57.6547 51.7987 57.7818 51.5349C57.9092 51.2705 58 50.8777 58 50.5623C58 49.1168 56.731 48.5454 55.6233 48.327C54.6824 48.1295 54.2057 47.7211 54.2057 47.2556C54.2057 47.1209 54.2388 47.0033 54.3041 46.9057C54.3716 46.8062 54.4578 46.7265 54.5614 46.6687C54.6678 46.6096 54.7925 46.5659 54.9314 46.5385C55.0738 46.5111 55.2322 46.4959 55.458 46.4968C55.7768 46.4981 56.4548 46.6437 56.7475 46.79C56.8295 46.8309 56.9171 46.8691 57.0062 46.8913ZM51.7842 46.3236C50.9805 45.3709 49.6894 45.3794 49.4252 45.3809C49.1808 45.3823 47.9035 45.3886 47.1304 46.3236C46.7801 46.7471 46.6413 47.2112 46.5453 47.6207C46.4246 48.1357 46.4088 48.6109 46.4088 49.1202C46.4088 50.0782 46.4898 51.1804 47.1305 51.9251C47.7721 52.6717 48.6991 52.8678 49.4573 52.8678C50.2952 52.8678 51.2071 52.7976 51.878 52.3295C52.0085 52.2477 52.0984 52.1144 52.1431 51.9865C52.165 51.9283 52.1769 51.8652 52.1769 51.7992C52.1769 51.508 51.9438 51.2723 51.6561 51.2723C51.589 51.2723 51.5258 51.2871 51.4662 51.3084C51.4325 51.3203 51.3898 51.3463 51.2959 51.3969C50.8003 51.6771 50.3273 51.8072 49.4574 51.7869C48.8728 51.7869 48.3216 51.625 47.9589 51.1661C47.62 50.7377 47.5689 50.0564 47.5614 49.3027H51.9281C52.2553 49.3027 52.5203 49.0347 52.5203 48.704C52.5201 47.0928 51.7842 46.3236 51.7842 46.3236ZM47.5899 48.2744C47.5875 48.1536 47.5724 47.3117 48.254 46.7966C48.6703 46.482 49.1252 46.461 49.4029 46.461C49.6806 46.461 50.2056 46.45 50.6667 46.804C51.3484 47.3273 51.355 48.1574 51.3527 48.2744H47.5899ZM45.5169 46.1147C45.5169 45.8025 45.2667 45.5496 44.9582 45.5496C44.6496 45.5496 44.3995 45.8025 44.3995 46.1147L44.3986 51.4245C44.3986 51.5206 44.329 51.6088 44.257 51.6386C44.185 51.6684 43.8753 51.7907 42.8206 51.7907C42.2915 51.7907 41.7308 51.577 41.3876 51.1183C41.0416 50.6556 40.9999 49.8495 40.9999 49.0246L40.9998 46.1147C40.9998 45.8025 40.7496 45.5496 40.4411 45.5496C40.1325 45.5496 39.8824 45.8025 39.8824 46.1147L39.882 49.0224C39.882 50.0385 39.9454 51.13 40.5983 51.929C41.1686 52.6269 42.1232 52.8715 42.8207 52.8715C43.2632 52.8715 44.2314 52.9026 45.1039 52.5743C45.344 52.493 45.5154 52.1777 45.5154 51.9076L45.5169 46.1147ZM39.015 46.4103C39.015 46.1632 38.8706 45.9505 38.6627 45.8536C37.7187 45.4434 36.6481 45.3832 36.1637 45.3832C35.4265 45.3832 34.4785 45.5768 33.8368 46.3237C33.1962 47.0681 33.104 48.2068 33.104 49.223C33.104 50.2393 33.1962 51.1758 33.8368 51.9205C34.4785 52.6672 35.4032 52.8689 36.1637 52.8689C36.8637 52.8689 37.636 52.5516 37.8803 52.2832V53.2538C37.8803 53.7751 37.7573 54.1864 37.5095 54.4753C37.2647 54.7616 36.9168 54.9066 36.476 54.9066C36.1849 54.9066 35.8838 54.8681 35.5807 54.7927C35.2794 54.7174 34.7683 54.4714 34.5872 54.3831C34.406 54.295 34.0707 54.3628 33.9184 54.6106C33.7661 54.8586 33.8674 55.2287 34.1071 55.3619C34.3468 55.4953 34.6512 55.6773 35.2897 55.8439C35.6971 55.9501 36.0963 56 36.4759 56C36.8924 56 37.2644 55.9322 37.5815 55.7904C37.8988 55.649 38.1663 55.4537 38.3765 55.21C38.5861 54.9674 38.7468 54.672 38.8541 54.3336C38.9609 53.9978 39.015 53.634 39.015 53.2537V46.4103ZM37.8656 50.5228C37.8656 50.9299 37.6959 51.204 37.5058 51.3849C37.2711 51.6076 36.7485 51.7902 36.1638 51.7902C35.5792 51.7902 35.028 51.6202 34.6652 51.1613C34.2992 50.6987 34.2556 50.0478 34.2556 49.2229C34.2556 48.3979 34.2992 47.545 34.6652 47.0824C35.028 46.6236 35.5913 46.4593 36.1638 46.4593C36.6078 46.4593 37.2124 46.5567 37.7165 46.7365C37.8035 46.7671 37.8657 46.8507 37.8657 46.9489V50.5228H37.8656ZM30.1 50.9268C30.0687 50.9938 30.0021 51.0367 29.9301 51.0361C29.8426 51.0354 29.7793 50.943 29.7557 50.9088C29.578 50.6514 28.1896 46.7594 27.8886 45.9138C27.7835 45.6273 27.4643 45.479 27.1815 45.5847C26.8994 45.6901 26.7521 46.0114 26.8551 46.2978L28.6597 51.1382C28.8714 51.7106 29.1765 52.0351 29.624 52.1976L28.527 55.136C28.4184 55.4256 28.5623 55.7493 28.8488 55.8593C29.1352 55.9693 29.4555 55.8237 29.5641 55.5341L33.0203 46.3018C33.1252 46.0163 32.9812 45.6947 32.7017 45.5865C32.4199 45.4773 32.0977 45.6227 31.9897 45.9099L30.1 50.9268ZM26.1364 46.1147C26.1364 45.8025 25.8863 45.5496 25.5778 45.5496C25.2692 45.5496 25.019 45.8025 25.019 46.1147L25.0181 51.4245C25.0181 51.5206 24.9485 51.6088 24.8765 51.6386C24.8045 51.6684 24.4949 51.7907 23.4401 51.7907C22.911 51.7907 22.3503 51.577 22.0072 51.1183C21.6611 50.6556 21.6194 49.8495 21.6194 49.0246L21.6193 46.1147C21.6193 45.8025 21.3692 45.5496 21.0607 45.5496C20.7521 45.5496 20.5019 45.8025 20.5019 46.1147L20.5015 49.0224C20.5015 50.0385 20.565 51.13 21.2178 51.929C21.788 52.6269 22.7427 52.8715 23.4402 52.8715C23.8827 52.8715 24.8509 52.9026 25.7234 52.5743C25.9635 52.493 26.1349 52.1777 26.1349 51.9076L26.1364 46.1147ZM19.0731 46.3364C18.4311 45.5794 17.5044 45.3816 16.746 45.3808C15.9876 45.38 15.0608 45.5794 14.419 46.3364C13.7783 47.091 13.6862 48.0862 13.6862 49.0571C13.6862 50.0281 13.7783 51.1579 14.419 51.9127C15.0608 52.6695 15.9877 52.8691 16.746 52.8681C17.5043 52.8673 18.4311 52.6695 19.0731 51.9127C19.7138 51.1579 19.8059 50.0871 19.8059 49.0571C19.8059 48.027 19.7138 47.0909 19.0731 46.3364ZM18.2447 51.1432C17.8819 51.6082 17.3306 51.7896 16.746 51.7896C16.1614 51.7896 15.6101 51.6082 15.2473 51.1432C14.8814 50.6742 14.8378 49.894 14.8378 49.0569C14.8378 48.2199 14.8814 47.5744 15.2473 47.1055C15.6101 46.6405 16.1614 46.4604 16.746 46.4604C17.3306 46.4604 17.8819 46.6406 18.2447 47.1055C18.6106 47.5745 18.6543 48.2209 18.6543 49.0569C18.6543 49.8932 18.6106 50.6742 18.2447 51.1432ZM12.178 46.3236C11.5362 45.5767 10.6117 45.3808 9.85115 45.3808C9.15131 45.3808 8.37907 45.6919 8.1346 45.9607V42.5731C8.1346 42.2565 7.88098 42 7.5681 42C7.25502 42 7.00149 42.2565 7.00149 42.5731L7 51.8222C7 52.095 7.16829 52.328 7.40588 52.4211C8.33625 52.8108 9.37606 52.8675 9.85115 52.8675C10.5886 52.8675 11.5362 52.6762 12.178 51.9295C12.8189 51.1848 12.911 50.142 12.911 49.1258C12.911 48.1097 12.8189 47.068 12.178 46.3236ZM11.3498 51.1706C10.9869 51.6293 10.4236 51.7915 9.85105 51.7915C9.40404 51.7915 8.79431 51.6957 8.28796 51.5136H8.28835C8.20759 51.487 8.14934 51.4105 8.14934 51.32V47.721C8.14934 47.314 8.31892 47.0397 8.50892 46.8591C8.74373 46.6363 9.26632 46.4617 9.85105 46.4617C10.4358 46.4617 10.9869 46.6237 11.3498 47.0825C11.7158 47.5451 11.7593 48.301 11.7593 49.126C11.7593 49.951 11.7158 50.7078 11.3498 51.1706Z" fill="#009DCC"/>
<path d="M80.218 62.5411C82.4278 64.1024 86.8006 61.5514 89.9838 56.8345C93.1674 52.1178 93.9565 47.034 91.7467 45.4727C89.5363 43.9114 85.2738 46.3322 82.0902 51.0492C78.907 55.7658 78.0084 60.9798 80.218 62.5411Z" fill="#EA5B0F"/>
<path d="M73.782 62.5411C71.5722 64.1024 67.1994 61.5514 64.0162 56.8345C60.8326 52.1178 60.0435 47.034 62.2533 45.4727C64.4637 43.9114 68.7262 46.3322 71.9098 51.0492C75.093 55.7658 75.9916 60.9798 73.782 62.5411Z" fill="#0055A4"/>
<path d="M77 47C82.5228 47 87 44.7614 87 42C87 39.2386 82.5228 37 77 37C71.4772 37 67 39.2386 67 42C67 44.7614 71.4772 47 77 47Z" fill="#009DCC"/>
<path d="M57.9108 55.9686H57.7759C57.7265 55.9686 57.6858 55.929 57.6858 55.8792V54.9278L57.3187 55.9125C57.3043 55.9443 57.2714 55.9651 57.2361 55.9651H57.1021C57.0665 55.9651 57.035 55.9447 57.0202 55.9125L56.6423 54.9207V55.8792C56.6423 55.929 56.6019 55.9686 56.5534 55.9686H56.4181C56.369 55.9686 56.3289 55.929 56.3289 55.8792V54.1193C56.3289 54.0703 56.3689 54.0309 56.4181 54.0309H56.5534C56.5875 54.0309 56.6196 54.0509 56.6341 54.0827L57.1706 55.5034L57.6941 54.0834C57.7077 54.0515 57.7404 54.0309 57.7759 54.0309H57.9108C57.9601 54.0309 58 54.0704 58 54.1193V55.8792C58 55.9291 57.9601 55.9686 57.9108 55.9686ZM54.8172 54.2041C54.6804 54.0682 54.49 54.0002 54.2999 54C54.11 54.0002 53.9196 54.0682 53.7824 54.2041C53.5873 54.3973 53.5582 54.5975 53.5582 54.9968C53.5582 55.3966 53.5873 55.5964 53.7824 55.7893C53.9204 55.9256 54.1035 56 54.2999 56C54.4965 56 54.6793 55.9256 54.8172 55.7893C55.0125 55.5964 55.0414 55.3966 55.0414 54.9968C55.0414 54.5977 55.0125 54.3973 54.8172 54.2041ZM54.5782 55.5861C54.5062 55.6586 54.4031 55.6946 54.2999 55.6946C54.1967 55.6946 54.0938 55.6586 54.021 55.5861C53.919 55.4847 53.878 55.3777 53.878 54.9968C53.878 54.6161 53.919 54.5083 54.021 54.4079C54.0942 54.3357 54.193 54.2951 54.2999 54.2951C54.4066 54.2951 54.506 54.3357 54.5782 54.4079C54.681 54.5083 54.7218 54.6161 54.7218 54.9968C54.7218 55.3777 54.681 55.4846 54.5782 55.5861ZM52.1606 55.3818L52.0212 55.357C51.9796 55.3498 51.9384 55.373 51.9229 55.4124C51.9 55.493 51.865 55.5433 51.816 55.5908C51.7436 55.663 51.6442 55.7035 51.5375 55.7035C51.4306 55.7035 51.3314 55.663 51.2588 55.5908C51.1564 55.4904 51.1157 55.3826 51.1157 55.0018C51.1157 54.6212 51.1564 54.5097 51.2588 54.4094C51.3314 54.3371 51.4306 54.2966 51.5375 54.2966C51.6442 54.2966 51.7436 54.3371 51.816 54.4094C51.8649 54.4568 51.9 54.507 51.9229 54.5876C51.9383 54.6276 51.9796 54.65 52.0212 54.6431L52.1606 54.6186C52.1875 54.6136 52.2099 54.5973 52.2241 54.5739C52.2389 54.5512 52.2409 54.5216 52.2322 54.4962C52.1997 54.3852 52.1453 54.2944 52.0547 54.2057C51.9179 54.0695 51.728 54.0016 51.5376 54.0016C51.3475 54.0016 51.1572 54.0695 51.0201 54.2057C50.8251 54.3986 50.7959 54.599 50.7959 54.9983C50.7959 55.3976 50.8251 55.6016 51.0201 55.7936C51.1572 55.93 51.3475 55.998 51.5376 55.998C51.728 55.998 51.9179 55.9299 52.0547 55.7936C52.1452 55.7052 52.1997 55.6147 52.2322 55.5037C52.2409 55.4781 52.2389 55.4489 52.2241 55.4257C52.2099 55.403 52.1874 55.3869 52.1606 55.3818ZM49.3142 55.9686H48.2364C48.1871 55.9686 48.147 55.929 48.147 55.8792V54.1193C48.147 54.0703 48.187 54.0309 48.2364 54.0309H49.3142C49.3639 54.0309 49.4042 54.0704 49.4042 54.1193V54.262C49.4042 54.3113 49.364 54.3513 49.3142 54.3513H48.4607V54.8348H49.1742C49.2243 54.8348 49.2637 54.8745 49.2637 54.9226V55.0585C49.2637 55.1071 49.2243 55.1466 49.1742 55.1466H48.4607V55.6482H49.3142C49.3639 55.6482 49.4042 55.6877 49.4042 55.737V55.8791C49.4042 55.9291 49.3639 55.9686 49.3142 55.9686ZM46.747 55.9686H45.6689C45.6192 55.9686 45.5798 55.929 45.5798 55.8792V54.1193C45.5798 54.0703 45.6192 54.0309 45.6689 54.0309H45.8035C45.8535 54.0309 45.8935 54.0704 45.8935 54.1193V55.6482H46.7471C46.7964 55.6482 46.837 55.6877 46.837 55.737V55.8791C46.8369 55.9291 46.7964 55.9686 46.747 55.9686ZM43.9453 55.9686H42.8672C42.8179 55.9686 42.7782 55.929 42.7782 55.8792V54.1193C42.7782 54.0703 42.818 54.0309 42.8672 54.0309H43.9453C43.995 54.0309 44.0351 54.0704 44.0351 54.1193V54.262C44.0351 54.3113 43.995 54.3513 43.9453 54.3513H43.0915V54.8348H43.8052C43.8552 54.8348 43.8946 54.8745 43.8946 54.9226V55.0585C43.8946 55.1071 43.8551 55.1466 43.8052 55.1466H43.0915V55.6482H43.9453C43.995 55.6482 44.0351 55.6877 44.0351 55.737V55.8791C44.0352 55.9291 43.995 55.9686 43.9453 55.9686ZM40.7538 55.9686H40.6186C40.5692 55.9686 40.5295 55.929 40.5295 55.8792V54.3513H40.0893C40.04 54.3513 40 54.3113 40 54.262V54.1193C40 54.0703 40.04 54.0309 40.0893 54.0309H41.2853C41.3345 54.0309 41.3747 54.0704 41.3747 54.1193V54.262C41.3747 54.3113 41.3345 54.3513 41.2853 54.3513H40.8429V55.8792C40.8429 55.9291 40.8028 55.9686 40.7538 55.9686Z" fill="#009DCC"/>
</svg>
