<svg width="124" height="40" viewBox="0 0 124 40" fill="none" xmlns="http://www.w3.org/2000/svg">
<g clip-path="url(#clip0)">
<path d="M71.5223 19.647C71.5223 14.7296 69.2112 13.4255 66.4559 13.4255C63.3907 13.4255 61.711 15.7961 61.711 19.4354C61.711 23.1979 63.5058 25.9917 66.7808 25.9917C69.2132 25.991 71.5223 24.5086 71.5223 19.647ZM65.584 8.85804C70.2867 8.85515 71.8411 11.8996 71.8411 11.8996H71.9262V11.3446C71.9262 10.3803 72.5624 9.36014 74.1557 9.36014H78.8679V13.9305H77.3046C76.7869 13.9305 76.4307 14.2283 76.4307 14.7731V29.6281C76.4334 37.0386 71.0108 39.8281 65.7039 39.8281C63.1469 39.8281 60.4372 39.068 58.4823 37.9631L60.0354 33.7362C60.0354 33.7362 62.5488 35.1708 65.6603 35.1708C68.7371 35.178 71.4072 33.7739 71.4072 29.8781V28.8645C71.4072 28.3573 71.4379 27.7277 71.4379 27.7277L71.3623 27.7204C70.1668 29.5434 68.4108 30.5178 65.708 30.5178C59.8773 30.5178 56.5676 25.5208 56.5676 19.6035C56.5663 13.6718 59.7159 8.85515 65.584 8.85804ZM92.2096 21.5924C92.2096 24.2115 90.2942 27.256 87.5812 27.256C85.5043 27.256 84.5092 25.9048 84.5092 24.4637C84.5092 21.462 88.6955 21.0852 91.3364 21.0852H92.2076V21.5924H92.2096ZM122.15 5.34335C122.757 5.34335 123.19 5.42378 123.19 5.42378V0.85562C123.19 0.85562 122.516 0.731001 121.515 0.725204C118.642 0.725204 113.174 1.66347 113.182 8.73125V9.36159H106.509V8.97759C106.508 5.76141 108.986 5.34263 110.416 5.34263C111.019 5.34263 111.456 5.42305 111.456 5.42305L111.452 0.854896C111.452 0.854896 110.776 0.72448 109.738 0.72448C106.905 0.72448 101.436 1.66274 101.436 8.71893L101.444 26.404V26.4148H98.0736C97.5144 26.4148 97.1909 26.0772 97.1909 25.4838V17.4466C97.1909 12.6169 95.1992 8.85515 88.4244 8.85515C86.3033 8.85515 80.9645 9.28044 80.9604 13.3016L80.9645 15.5824H85.6671V14.4427C85.6671 13.2516 87.4647 13.0045 88.3774 13.0045C90.9788 13.0045 92.1292 14.1471 92.1292 17.2372V17.4039H91.4903C88.1806 17.3973 79.4067 17.9574 79.4026 24.7223C79.4026 29.0289 82.7164 31.4445 86.3476 31.4445C90.9338 31.4445 92.4868 27.6393 92.4868 27.6393H92.5679C92.5679 27.6393 92.5277 28.0218 92.5277 28.5732C92.5277 29.8382 93.2484 30.9381 95.1181 30.9431L106.506 30.9359V13.6356H113.181L113.173 30.9381H118.241V13.6356H122.63V9.36159H118.248L118.239 8.98411C118.243 5.76068 120.721 5.34335 122.15 5.34335ZM10.7962 25.9555C7.52531 25.9555 5.72911 23.1653 5.72911 19.3985C5.72911 15.7628 7.40407 13.3936 10.4767 13.3936C13.2266 13.3936 15.5384 14.6963 15.5452 19.613C15.5452 24.4753 13.2259 25.9555 10.7962 25.9555ZM55.4165 5.3064C56.022 5.31147 56.4559 5.39335 56.4559 5.39335V0.821564C56.4559 0.821564 55.7816 0.692596 54.7803 0.692596C51.9085 0.692596 46.4484 1.62507 46.4484 8.6972V9.32899H39.7765L39.7724 8.94571C39.7765 5.73098 42.2484 5.30713 43.6877 5.30713C44.2858 5.3122 44.7237 5.39407 44.7237 5.39407V0.822288C44.7237 0.822288 44.0453 0.693326 43.0025 0.693326C40.1736 0.693326 34.7122 1.6258 34.7122 8.69358V26.3728L30.9794 26.3859C30.4236 26.3859 30.1042 26.0446 30.1042 25.4476V12.2003C30.1042 10.2187 29.3127 9.32899 27.4354 9.32899H18.1813C16.5812 9.32899 15.9457 10.347 15.9457 11.3178C15.9375 11.6098 15.9457 11.867 15.9457 11.867H15.8606C15.8606 11.867 14.3082 8.82689 9.60079 8.82254C3.73674 8.82254 0.587776 13.6407 0.583008 19.5702C0.587776 25.4947 3.89273 30.4867 9.71454 30.4867C12.4303 30.4809 14.189 29.5115 15.3858 27.6878H15.4614C15.4614 27.6878 15.4233 28.324 15.4233 28.8326V29.8498C15.4233 33.7478 12.7504 35.1432 9.68184 35.1389C6.56285 35.1389 4.0562 33.6993 4.0562 33.6993L2.50318 37.9298C4.44991 39.0311 7.16771 39.7962 9.72339 39.7962C15.0282 39.7962 20.4536 37.0046 20.4515 29.5999L20.4543 14.7448C20.4543 14.1964 20.8057 13.8993 21.3261 13.8993H24.2061C24.7626 13.8993 25.0827 14.1964 25.0827 14.8267V28.0342C25.0827 30.0665 25.8783 30.9055 27.7515 30.9055H39.7779V13.6023H46.4498V30.9055H51.5114V13.6023H55.9008V9.32899H51.5114V8.95296C51.5101 5.7259 53.984 5.3064 55.4165 5.3064Z" fill="black"/>
<path d="M25.0197 6.09521H30.1045V0.706893L25.0156 0.705444L25.0197 6.09521Z" fill="black"/>
</g>
<defs>
<clipPath id="clip0">
<rect width="122.642" height="39.1355" fill="white" transform="translate(0.566406 0.692627)"/>
</clipPath>
</defs>
</svg>
