<svg width="100" height="100" viewBox="0 0 100 100" fill="none" xmlns="http://www.w3.org/2000/svg">
<g clip-path="url(#clip0)">
<path d="M22.9297 19.8322C22.9297 19.2837 22.7159 18.7628 22.0018 18.5006C21.405 18.2867 20.8565 18.2143 20.2631 18.1211C19.4042 17.9763 19.5732 17.1414 20.3321 17.1414C20.8323 17.1414 23.2161 17.3346 26.0483 17.3346C27.6903 17.3346 30.0499 17.2622 31.1917 17.1897C31.9058 17.1414 31.9783 17.9038 31.4781 18.0487C30.9779 18.1901 28.6183 18.7628 24.4062 22.6195C20.0493 26.6212 14.4297 32.5477 14.4297 32.5477C14.4297 32.5477 27.0487 47.5987 29.2634 49.3822C31.5505 51.2416 33.1201 51.383 34.8346 51.5245C35.2624 51.5486 35.4038 52.3834 34.8346 52.3834H24.9789C24.9789 52.3834 12.7635 37.6222 10.7627 36.263C10.4039 36.0492 9.54842 35.7628 9.47598 36.7632C9.40354 37.6912 9.33454 45.5254 9.54842 47.2399C9.7623 48.9544 10.4764 51.4555 14.547 51.4555C15.0472 51.4555 15.3335 52.4041 14.6195 52.3834C12.215 52.2627 10.4039 52.2627 7.42686 52.2627C4.85685 52.2627 1.26228 52.3834 0.762071 52.3834C-0.0934502 52.3834 -0.0934502 51.5969 0.689628 51.5245C1.83147 51.4555 4.54637 51.3106 4.71541 46.9536C4.90514 42.4552 4.7844 23.4992 4.71541 21.4294C4.69126 20.0012 3.47697 18.0694 0.334309 18.0694C-0.165896 18.0694 -0.0934528 17.2139 0.475745 17.2139H13.9054C14.4056 17.2139 14.6919 18.0487 13.8329 18.1211C12.9774 18.1901 9.714 18.2867 9.62086 22.6437C9.50012 27.0006 9.50012 33.762 9.50012 34.0483C9.50012 34.4071 9.64156 34.7624 10.1418 34.4071C11.6907 33.3584 16.2857 28.8566 19.7146 24.9998C21.0704 23.4751 22.0018 22.1435 22.6434 20.905C22.7849 20.6429 22.9297 20.2634 22.9297 19.8322H22.9297ZM39.8367 31.9061V19.7873C39.8367 18.2867 40.9061 17.859 42.0479 17.7865C42.4791 17.7865 42.5481 17.2139 41.9789 17.2139H34.8346C34.3344 17.2139 34.262 17.7624 34.7622 17.7865C35.835 17.9038 37.1218 18.4282 37.1218 19.7873V31.9061C37.1218 33.2618 36.6216 34.1208 35.0485 34.1208C34.431 34.1208 34.5724 34.6451 35.0485 34.6451H42.0479C42.4067 34.6451 42.5033 34.1208 41.9065 34.1208C40.4059 34.1208 39.8367 33.1204 39.8367 31.9061H39.8367ZM49.0508 42.3828C49.1922 42.3828 49.2888 42.3103 49.3336 42.1689L50.4789 38.526C50.5514 38.3087 50.4548 38.1673 50.2651 38.1673C50.1926 38.1673 50.096 38.1914 50.027 38.2639C49.8097 38.4777 49.551 38.6916 49.3336 38.6916C49.2164 38.6916 49.1198 38.6192 49.0025 38.526C47.9779 37.2635 46.3359 37.0737 45.5493 37.0737C41.9065 37.0737 38.7638 39.454 36.9079 42.3828C35.7867 44.1214 35.2141 46.0257 35.2141 47.9057C35.2141 50.907 37.2873 52.5973 40.0022 52.5973C41.2165 52.5973 42.1445 52.4559 43.7865 51.7625C44.1453 51.621 44.5489 51.4555 44.787 51.4555C45.1906 51.4555 45.2147 52.0488 45.263 52.5973C45.263 52.8112 45.4079 52.8802 45.5493 52.8802C45.6459 52.8802 45.7632 52.8353 45.8357 52.6697L47.3604 48.3093C47.4777 47.954 47.3363 47.8126 47.1914 47.8126C46.9775 47.8126 46.8602 47.9057 46.6912 48.1921C46.0012 49.2649 45.5252 49.9548 43.1208 51.1208C42.1203 51.5969 40.9544 51.8832 40.0264 51.8832C38.0014 51.8832 37.2149 50.3343 37.2149 48.3818C37.2149 45.8118 38.4292 43.121 40.2886 40.8822C41.4787 39.4057 43.2898 37.7395 45.4079 37.7395C47.4294 37.7395 48.93 39.2401 48.7161 42.024C48.692 42.262 48.8576 42.3828 49.0508 42.3828ZM44.4316 17.2139C43.9314 17.2139 43.9314 17.7141 44.2178 17.7865C44.7628 17.9038 45.9081 18.0004 45.9081 19.501C45.9288 23.0473 45.9288 27.6906 45.7874 31.4783C45.7632 32.8341 45.3596 33.9759 44.1936 34.1208C43.7659 34.1449 43.7659 34.6451 44.0487 34.6451H49.1922C49.4785 34.6451 49.5717 34.1898 49.2163 34.1208C48.4298 33.9759 47.1431 33.9759 47.0499 31.4783C46.9292 29.0498 46.8602 19.8563 46.8602 19.8563L59.762 34.2139H60.8314C60.8314 34.2139 60.8314 20.7843 60.9039 19.7632C60.9763 18.5731 61.3799 17.928 62.6667 17.8348C63.3083 17.7865 63.1876 17.2139 62.7598 17.2139H57.5232C56.9022 17.2139 57.0471 17.7865 57.3335 17.7865C57.9027 17.859 59.6896 18.0694 59.762 19.7873C59.831 22.2849 59.9518 30.0743 59.9518 30.0743L48.4781 17.2139H44.4316H44.4316ZM55.9018 40.9546C58.189 40.9546 58.6167 42.9554 58.6167 44.8114C58.6167 47.7643 55.9018 52.4766 52.6212 52.4766C50.5514 52.4766 49.7649 50.8104 49.7649 49.0959C49.7649 44.9769 52.6936 40.9546 55.9018 40.9546ZM56.3779 41.6204C54.1218 41.6204 50.8825 46.9778 50.8825 50.2412C50.8825 51.0967 51.262 51.7383 52.1693 51.7383C54.384 51.7383 57.6888 46.2637 57.6888 43.3832C57.6888 42.5242 57.4508 41.6204 56.3779 41.6204ZM64.8572 38.05C64.8572 38.119 64.8331 38.2639 64.7606 38.4053C62.8323 42.5967 60.928 46.7639 59.0687 50.9553C58.9755 51.1691 58.7858 51.5969 58.7858 51.8832C58.7858 52.2385 59.048 52.549 59.4274 52.549C59.6172 52.549 59.8793 52.4766 60.0208 52.4041C61.0695 51.9798 62.1665 50.8345 62.8081 49.8583C62.953 49.6444 62.6908 49.4546 62.5218 49.5961C62.2631 49.8341 61.5214 50.8345 60.7349 51.2623C60.5934 51.3347 60.452 51.3347 60.5451 51.0484L66.4993 37.8326C66.5959 37.5981 66.6442 37.4532 66.6442 37.3117C66.6442 37.1427 66.5234 37.0737 66.3544 37.0737C66.0715 37.0737 65.7369 37.1427 65.3091 37.191C64.9504 37.2152 64.3329 37.2635 63.7844 37.3117C63.6429 37.3117 63.5705 37.4532 63.5705 37.5498C63.5705 37.6912 63.6912 37.7637 63.8327 37.7637C64.119 37.7637 64.4019 37.7637 64.7123 37.8327C64.8331 37.881 64.8572 37.9534 64.8572 38.05V38.05ZM80.6188 28.929C80.6188 27.4767 81.6917 27.3353 82.6197 27.2628C82.975 27.2145 83.0474 26.6419 82.5472 26.6419H75.3305C74.8337 26.6419 74.8337 27.287 75.3305 27.3353C76.7621 27.4284 77.9039 27.6906 77.9039 29.0704V31.6681C77.9039 32.2373 77.6176 32.6443 77.3106 32.8824C76.048 33.9276 74.4508 34 73.5228 34C68.952 34 66.9029 30.0502 66.9029 26.121C66.9029 22.9266 68.5208 17.9038 73.8092 17.9038C78.549 17.9038 80.2601 20.9775 80.8327 22.1435C81.0259 22.5022 81.4744 22.4298 81.4744 22.1435V18.3557C81.4744 18.0004 80.9535 17.928 80.8327 18.3557C80.7361 18.7869 80.4533 19.0733 80.0945 19.0733C79.8082 19.0733 79.477 18.8559 79.3356 18.7628C77.9039 17.859 76.5448 17.1414 73.8333 17.1414C69.4522 17.1414 64.0465 19.332 64.0465 26.0002C64.0465 32.7133 69.1176 34.7866 73.547 34.7866C77.9039 34.7866 80.1911 32.5719 80.6188 32.2856V28.929ZM70.1663 38.05C70.1663 38.119 70.1421 38.2639 70.0697 38.4053C68.1413 42.5967 66.2371 46.7639 64.3812 50.9553C64.2846 51.1691 64.0948 51.5969 64.0948 51.8832C64.0948 52.2385 64.357 52.549 64.7365 52.549C64.9262 52.549 65.1884 52.4766 65.3333 52.4041C66.382 51.9798 67.4755 50.8345 68.1172 49.8583C68.2621 49.6444 67.9999 49.4546 67.8309 49.5961C67.5687 49.8341 66.8304 50.8345 66.0474 51.2623C65.9059 51.3347 65.761 51.3347 65.8576 51.0484L71.8083 37.8326C71.9049 37.5981 71.9532 37.4532 71.9532 37.3117C71.9532 37.1427 71.8325 37.0737 71.6669 37.0737C71.3806 37.0737 71.046 37.1427 70.6182 37.191C70.2594 37.2152 69.6419 37.2635 69.0969 37.3117C68.952 37.3117 68.8796 37.4532 68.8796 37.5498C68.8796 37.6912 68.9968 37.7637 69.1417 37.7637C69.4281 37.7637 69.7144 37.7637 70.0249 37.8327C70.1421 37.881 70.1663 37.9534 70.1663 38.05V38.05ZM77.1209 49.9548C76.1204 51.2623 74.5474 52.4766 72.5949 52.4766C71.0943 52.4766 70.1904 51.4072 70.1904 50.0273C70.1904 45.7635 74.9062 41.2616 78.0488 41.2616C79.1182 41.2616 79.9048 41.6687 79.9048 42.8105C79.9048 44.4767 78.4524 45.384 75.8341 46.1671C75.0959 46.3844 73.4745 46.7397 72.6915 46.9053C72.3327 47.478 71.8808 48.6198 71.8808 49.5236C71.8808 50.7414 72.4776 51.4555 73.5953 51.4555C74.882 51.4555 76.0963 50.4516 76.7621 49.6685C76.976 49.4546 77.3106 49.741 77.1209 49.9548ZM75.6892 45.5254C77.1657 45.0494 78.5249 44.2629 78.5249 42.9554C78.5249 42.262 78.1903 41.9792 77.5245 41.9792C76.6896 41.9792 75.879 42.5967 75.3822 43.0969C74.5474 43.9041 73.7367 44.8838 73.0468 46.1222C73.5953 46.0981 74.6888 45.8359 75.6892 45.5254ZM90.4056 42.262C90.6919 42.262 90.9541 42.1206 90.9541 41.6204C90.9541 41.1926 90.547 41.0478 90.1676 41.0478C89.7398 41.0478 89.1913 41.1685 88.6187 41.548C88.4772 41.6687 88.1185 41.8343 87.9046 41.6928C87.4527 41.3824 87.049 41.1685 85.9762 41.1685C84.9068 41.1685 83.3337 41.8101 82.3333 43.1659C81.6192 44.1697 81.4744 44.8838 81.4744 45.5944C81.4744 46.312 81.7641 46.8363 81.978 47.1192C82.0229 47.1916 82.047 47.2399 82.047 47.3124C82.047 47.478 81.8331 47.5987 81.4744 47.6919C80.8327 47.9057 79.7633 48.5267 79.7633 49.6202C79.7633 50.3343 80.3325 51.0242 80.9776 51.4555C80.9776 51.4555 79.6667 51.8108 78.618 52.3834C77.8074 52.8353 76.9035 53.5253 76.9035 54.5257C76.9035 55.6675 77.8798 57.5269 81.9056 57.5269C84.2617 57.5269 85.7382 56.6679 86.3108 56.0263C86.7386 55.5261 86.8076 54.9534 86.8076 54.5981C86.8076 53.3114 85.3829 52.0971 83.8098 51.2416C82.8094 50.6689 81.3329 49.9755 81.3329 48.9544C81.3329 48.6923 81.4054 48.4059 81.6917 48.2404C81.8814 48.0955 82.1919 48.0265 82.5231 48.0265C82.975 48.0265 83.5476 48.1679 83.9512 48.1679C85.238 48.1679 86.9766 47.7401 88.0495 45.453C88.3323 44.8114 88.4531 44.1697 88.4531 43.6212C88.4531 42.9071 88.3323 42.7381 88.3323 42.4069C88.3323 42.1206 88.6187 41.955 89.1672 41.955C89.9537 41.955 89.9537 42.262 90.4056 42.262H90.4056ZM82.0953 56.837C79.4529 56.837 78.6663 55.3088 78.6663 54.5498C78.6663 53.8357 78.9526 53.3838 79.6667 52.8802C80.1669 52.5249 80.9052 52.1695 81.4744 51.9557C82.1195 52.2385 83.0957 52.8112 83.4062 53.0975C84.8344 54.0945 85.1172 54.6671 85.1172 55.1673C85.1172 56.523 83.0957 56.837 82.0953 56.837ZM87.3112 42.6898C87.3112 43.3832 87.0491 44.3112 86.4523 45.3116C85.3346 47.1192 84.4514 47.478 83.6925 47.478C83.0474 47.478 82.7611 46.9536 82.7611 46.1912C82.7611 45.5254 83.0474 44.6665 83.5476 43.8834C84.31 42.6691 85.3829 41.6687 86.3315 41.6687C86.9766 41.6687 87.3112 41.9792 87.3112 42.6898ZM84.4514 19.9288C83.8339 19.9288 83.1199 19.5459 83.1199 18.5489C83.1199 17.4761 83.9754 17.1414 84.6205 17.1414C85.5243 17.1414 86.2625 17.7865 86.2625 18.9042C86.2625 20.1427 85.3346 21.6191 83.6925 21.6191C83.5235 21.6191 83.451 21.5018 83.451 21.4052C83.451 21.288 83.5235 21.2155 83.6201 21.1914C84.7378 20.9775 85.1655 20.2634 85.1897 19.7873C85.0965 19.8563 84.7619 19.9288 84.4514 19.9288ZM97.6223 20.7153C97.7396 20.7153 97.8811 20.6429 97.8362 20.4773L97.3809 17.2863C97.3326 17.0724 97.2394 17 97.1187 17C97.0497 17 96.9531 17.0483 96.8841 17.1897C96.7392 17.4761 96.5219 17.7141 96.1183 17.7141C95.4076 17.7141 94.7384 17.1897 93.0481 17.1897C90.8334 17.1897 87.9046 18.1418 87.9046 21.357C87.9046 24.5721 90.478 25.6208 92.6927 26.428C95.0247 27.287 96.8841 27.9286 96.8841 30.3572C96.8841 33.0721 94.9764 33.9518 93.1688 33.9518C91.168 33.9518 88.8084 32.9996 87.977 29.8328C87.9046 29.5707 87.8114 29.5017 87.6182 29.5017C87.4527 29.5017 87.3112 29.6189 87.3112 29.9053V33.9759C87.3112 34.2139 87.4527 34.3347 87.5941 34.3347C87.6907 34.3347 87.8114 34.2622 87.8804 34.1449C88.0495 33.9069 88.2392 33.6896 88.6911 33.6896C89.5949 33.6896 90.6678 34.7866 93.2619 34.7866C95.5491 34.7866 99.4058 34.0725 99.4058 29.5707C99.4058 27.7872 98.6676 25.5 94.3348 24.2857C91.2611 23.4302 90.2883 22.1435 90.2883 20.5704C90.2883 19.2147 91.0955 17.9038 93.3102 17.9038C94.4038 17.9038 96.1907 18.2143 97.3809 20.5463C97.4533 20.6912 97.5257 20.7153 97.6223 20.7153ZM96.3804 49.9548C95.38 51.2623 93.8104 52.4766 91.8338 52.4766C90.3332 52.4766 89.4535 51.4072 89.4535 50.0273C89.4535 45.7635 94.1658 41.2616 97.3119 41.2616C98.3813 41.2616 99.1678 41.6687 99.1678 42.8105C99.1678 44.4767 97.6913 45.384 95.0972 46.1671C94.3348 46.3844 92.7376 46.7397 91.9545 46.9053C91.5957 47.478 91.1197 48.6198 91.1197 49.5236C91.1197 50.7414 91.7372 51.4555 92.8342 51.4555C94.1209 51.4555 95.3352 50.4516 96.0251 49.6685C96.239 49.4546 96.5495 49.741 96.3804 49.9548ZM94.9523 45.5254C96.4046 45.0494 97.7638 44.2629 97.7638 42.9554C97.7638 42.262 97.4533 41.9792 96.7634 41.9792C95.9527 41.9792 95.1213 42.5967 94.6211 43.0969C93.8104 43.9041 92.9756 44.8838 92.3098 46.1222C92.8342 46.0981 93.9519 45.8359 94.9523 45.5254Z" fill="#0F0C0C"/>
<path d="M1.57001 58.2582H7.7139C8.02437 58.2582 8.12096 58.755 7.73805 58.755C7.1447 58.755 5.93041 59.0413 5.93041 60.328V70.9945C5.93041 72.2122 6.52376 72.64 9.16622 72.64C11.7155 72.64 14.12 72.3295 15.3101 68.9453C15.4067 68.6625 15.8586 68.6866 15.7862 69.1144L14.9996 73.3264H1.78734C1.33198 73.3264 1.42858 72.7814 1.7149 72.7814C2.57042 72.7814 3.61913 72.3743 3.61913 70.8289V60.6143C3.61913 59.3035 2.85674 58.755 1.57001 58.755C1.23884 58.755 1.21469 58.2582 1.57001 58.2582ZM97.7162 78.6631H1.78734V79.5669H97.7162V78.6631ZM97.7162 81.5677H1.78734V83.641H97.7162V81.5677ZM23.717 73.4506C28.1188 73.4506 31.2891 70.377 31.2891 65.6612C31.2891 61.5182 28.2154 58.1616 23.717 58.1616C19.3359 58.1616 16.1932 61.5906 16.1932 65.6612C16.1932 70.0906 19.1669 73.4506 23.717 73.4506ZM18.6425 65.6612C18.6425 61.8045 20.4294 58.8274 23.717 58.8274C26.6458 58.8274 28.857 61.6596 28.857 65.6612C28.857 70.5908 26.8597 72.7572 23.717 72.7572C20.6433 72.7572 18.6425 69.8043 18.6425 65.6612ZM32.3585 58.2341C32.0721 58.2341 32.0031 58.7343 32.3826 58.7343C32.8104 58.7343 33.7176 58.8516 33.7176 60.1624L33.6452 70.7323C33.6452 71.8776 33.2381 72.8297 32.1687 72.8297C31.8134 72.8297 31.8134 73.3057 32.0963 73.3057H36.5015C36.7878 73.3057 36.7878 72.8297 36.4532 72.8297C35.8116 72.8297 34.6939 72.5434 34.6697 70.7323L34.5731 59.9693C34.5731 59.9693 45.8605 73.2333 45.9295 73.3057H46.6919L46.7643 60.5902C46.7643 59.3276 47.3128 58.6618 48.6686 58.6618C48.9549 58.6618 48.9549 58.2341 48.6686 58.2341H43.739C43.4561 58.2341 43.4561 58.6618 43.739 58.6618C44.2392 58.6618 45.7639 58.755 45.7881 60.4005L45.9088 69.6629L36.2152 58.2341H32.3584H32.3585ZM50.0967 58.1616C49.5965 58.1616 49.6931 58.7343 49.9794 58.7343C50.5521 58.7343 51.5042 59.0171 51.5042 60.1624V70.9013C51.5042 72.0432 51.242 72.7572 49.8829 72.7572C49.5517 72.7572 49.5517 73.3057 49.8587 73.3057H57.0237C60.1664 73.3057 65.3788 71.8051 65.3788 65.5922C65.3788 59.3035 61.0943 58.1616 56.9513 58.1616H50.0967H50.0967ZM53.812 60.259C53.812 58.8999 54.5951 58.8274 56.4511 58.8274C59.6662 58.8274 62.9054 60.4246 62.9054 65.5198C62.9054 70.4735 60.1905 72.5917 56.5959 72.5917H55.8336C54.8849 72.5917 53.812 72.4019 53.812 70.5184V60.259ZM74.9276 73.4506C79.3328 73.4506 82.4996 70.377 82.4996 65.6612C82.4996 61.5182 79.4294 58.1616 74.9276 58.1616C70.5465 58.1616 67.4038 61.5906 67.4038 65.6612C67.4038 70.0906 70.3809 73.4506 74.9276 73.4506ZM69.86 65.6612C69.86 61.8045 71.6435 58.8274 74.9276 58.8274C77.8564 58.8274 80.0711 61.6596 80.0711 65.6612C80.0711 70.5908 78.0702 72.7572 74.9276 72.7572C71.8574 72.7572 69.86 69.8043 69.86 65.6612ZM83.4759 58.2341C83.1896 58.2341 83.1206 58.7343 83.5 58.7343C83.9278 58.7343 84.8351 58.8516 84.8351 60.1624L84.7626 70.7323C84.7626 71.8776 84.359 72.8297 83.2862 72.8297C82.9274 72.8297 82.9274 73.3057 83.2172 73.3057H87.619C87.9053 73.3057 87.9053 72.8297 87.5707 72.8297C86.929 72.8297 85.8113 72.5434 85.7872 70.7323L85.6906 59.9693C85.6906 59.9693 96.9779 73.2333 97.0504 73.3057H97.8093L97.8817 60.5902C97.8817 59.3276 98.4302 58.6618 99.786 58.6618C100.072 58.6618 100.072 58.2341 99.786 58.2341H94.8564C94.57 58.2341 94.57 58.6618 94.8564 58.6618C95.36 58.6618 96.8813 58.755 96.9055 60.4005L97.0262 69.6629L87.3361 58.2341H83.4759H83.4759Z" fill="#0F0C0C"/>
</g>
<defs>
<clipPath id="clip0">
<rect width="100" height="100" fill="white"/>
</clipPath>
</defs>
</svg>
