<svg width="184" height="123" viewBox="0 0 184 123" fill="none" xmlns="http://www.w3.org/2000/svg">
<path d="M74.2724 51.012C70.2257 51.012 67.876 52.774 67.876 55.8412C67.876 58.8432 70.2257 60.6052 74.2724 60.6052C78.3191 60.6052 80.6688 58.8432 80.6688 55.8412C80.6688 52.774 78.3191 51.012 74.2724 51.012ZM74.2724 58.3864C72.0532 58.3864 70.9436 57.538 70.9436 55.8412C70.9436 54.1445 72.0532 53.2308 74.2724 53.2308C76.4916 53.2308 77.6012 54.0792 77.6012 55.8412C77.6012 57.4727 76.4916 58.3864 74.2724 58.3864Z" fill="#DE0C38"/>
<path d="M92.6154 51.2081H81.5195V53.2312H85.3704V59.5615C85.3704 60.1488 86.2842 60.4099 87.0675 60.4099C87.8507 60.4099 88.7645 60.2141 88.7645 59.5615V53.2312H92.6154V51.2081Z" fill="#DE0C38"/>
<path d="M113.109 58.2559C112.195 58.2559 111.542 58.1254 111.151 57.7991C110.694 57.4075 110.629 56.8202 110.629 56.3634V51.8604C110.629 51.2731 109.78 51.0773 108.997 51.0773C108.214 51.0773 107.365 51.2731 107.365 51.8604V56.1676C107.365 57.7991 107.887 58.9738 108.932 59.6264C110.237 60.4095 112.587 60.3442 114.871 60.3442H117.743V58.1907H113.109V58.2559Z" fill="#DE0C38"/>
<path d="M69.2483 48.4667H55.8027V50.6855H60.4369V57.5379C60.4369 59.1694 61.8075 60.2788 64.092 60.4094V50.6855H69.2483V48.4667Z" fill="#DE0C38"/>
<path d="M100.121 51.3383C99.8602 51.1425 99.5338 51.0773 99.1422 51.0773C98.7506 51.0773 98.4242 51.1425 98.1632 51.3383C97.3147 51.9909 93.0069 56.2328 92.2889 60.018L92.2236 60.4095H95.226L95.2913 60.1485C95.4218 59.6264 95.6177 59.039 95.8787 58.4517H102.471C102.732 59.039 102.928 59.6264 103.058 60.1485L103.124 60.4095H106.126L106.061 60.018C105.278 56.2328 100.97 51.9909 100.121 51.3383ZM96.8578 56.4939C97.5105 55.515 98.2284 54.6013 99.1422 53.7529C99.9907 54.6013 100.774 55.515 101.361 56.4939H96.8578Z" fill="#DE0C38"/>
<path d="M50.6428 55.1227C50.6428 55.0574 50.6428 55.0574 50.5775 54.9922C49.011 56.7542 45.1601 57.9289 41.7008 57.6679C39.6775 57.5373 35.8918 56.4932 33.999 55.3185C36.0224 57.211 38.3721 58.712 41.0481 59.4952C44.1811 60.4088 47.5751 60.3435 49.4679 59.3646C50.9038 58.3857 51.2302 56.7542 50.6428 55.1227Z" fill="#F39525"/>
<path d="M46.3373 43.8981C52.5379 47.5527 48.8828 59.169 43.9223 62.8889C39.2882 66.3477 34.3929 64.7814 33.3486 61.5837C34.2624 62.9541 36.09 63.4762 37.787 62.8889C42.3558 61.0616 44.7055 52.8388 44.9666 49.9673C45.0971 47.4874 44.7708 45.7906 43.9223 44.7465C42.9433 43.7023 41.4421 43.1802 39.2229 43.8981C40.7894 42.6581 43.9876 42.5276 46.3373 43.8981Z" fill="#074494"/>
<path d="M49.7981 59.169C49.7981 59.169 49.8634 59.169 49.8634 59.1037C49.9939 59.0385 50.1245 58.908 50.255 58.8427C50.3203 58.7774 50.3855 58.7122 50.4508 58.7122C52.8658 56.2323 53.3879 49.3799 47.3831 46.1821C45.2945 45.0075 40.334 43.3759 35.3735 45.8558C33.7418 46.7042 32.1101 48.401 31.1963 50.7504C31.849 49.641 33.0238 48.9231 35.3083 48.5968C37.5927 48.3357 40.7256 48.662 43.7933 49.7715C45.7514 50.4893 47.3831 51.403 48.6233 52.4472C49.6676 53.3608 50.3203 54.1439 50.6466 55.0576C50.6466 55.1228 50.7119 55.1228 50.7119 55.1881C51.2993 56.8196 50.973 58.5164 49.537 59.43C49.6023 59.3648 49.6676 59.3648 49.7328 59.2995C49.7328 59.2343 49.7328 59.2343 49.7981 59.169C49.7981 59.169 49.7328 59.2343 49.7981 59.169Z" fill="#DE0C38"/>
<path d="M44.7048 61.061C41.2455 60.8653 36.1545 59.4948 32.5647 55.4487L32.4994 55.3834C32.3036 55.1876 32.0425 54.8613 31.9773 54.6655C31.0635 53.2298 31.2593 52.1856 31.912 51.4678C31.7815 51.5983 31.6509 51.7288 31.5204 51.9246C30.5413 53.0993 30.4108 55.0571 31.0635 57.0802C32.4341 61.5179 38.4389 64.1935 43.3342 63.4757C46.4671 63.0188 48.4252 61.2568 49.2084 60.539C47.3809 61.061 46.0755 61.1263 44.7048 61.061Z" fill="#4F97CB"/>
<path d="M66.4397 65.6951C65.8522 65.6951 65.3301 66.2172 65.3301 66.8045C65.3301 67.3918 65.8522 67.9139 66.4397 67.9139C67.0924 67.9139 67.5492 67.3918 67.5492 66.8045C67.5492 66.2172 67.0271 65.6951 66.4397 65.6951ZM142.87 65.6951C142.283 65.6951 141.761 66.2172 141.761 66.8045C141.761 67.3918 142.283 67.9139 142.87 67.9139C143.523 67.9139 143.98 67.3918 143.98 66.8045C144.045 66.2172 143.523 65.6951 142.87 65.6951Z" fill="#81CA64"/>
<path d="M113.694 68.8274C112.715 68.8274 111.67 69.3494 111.083 70.1326V69.8063C111.083 69.2842 110.691 68.8274 110.169 68.8274C109.647 68.8274 109.255 69.2842 109.255 69.8063V76.267C109.255 76.7891 109.647 77.1807 110.169 77.1807C110.691 77.1807 111.083 76.7891 111.083 76.267V72.6125C111.083 71.1115 112.193 70.3936 113.172 70.3936C114.412 70.3936 115.13 71.242 115.13 72.5472V76.2018C115.13 76.7239 115.521 77.1154 116.043 77.1154C116.566 77.1154 116.957 76.7239 116.957 76.2018V72.4819C117.088 70.3283 115.717 68.8274 113.694 68.8274ZM90.5231 74.9618C90.3925 74.8313 90.1315 74.7008 89.9356 74.7008C89.7398 74.7008 89.6093 74.7661 89.4135 74.8966C88.7608 75.4839 88.1734 75.745 87.3901 75.745C86.0195 75.745 84.9752 74.6355 84.9752 73.1345C84.9752 71.6336 86.0195 70.5241 87.3901 70.5241C88.0428 70.5241 88.6303 70.7199 89.0871 71.1115C89.2177 71.242 89.4135 71.3072 89.6093 71.3072C89.8704 71.3072 90.0662 71.1767 90.1967 70.9809C90.3273 70.8504 90.3925 70.6546 90.3925 70.5241C90.3925 70.2631 90.262 70.002 90.1315 69.8715C89.3482 69.2189 88.4997 68.9579 87.3901 68.9579C85.0404 68.9579 83.1476 70.8504 83.1476 73.1998C83.1476 75.5492 85.0404 77.4417 87.3901 77.4417C88.4997 77.4417 89.8704 76.8544 90.5231 76.0713C90.5231 76.0713 90.7189 75.8102 90.7189 75.4839C90.7189 75.2881 90.6536 75.0924 90.5231 74.9618ZM74.4015 69.6757C74.4015 69.2189 74.0099 68.8274 73.553 68.8274C72.3129 68.8274 71.4643 69.2189 70.7464 70.1326V69.8715C70.7464 69.3494 70.3548 68.9579 69.8326 68.9579C69.3105 68.9579 68.9188 69.3494 68.9188 69.8715V76.3323C68.9188 76.8544 69.3105 77.246 69.8326 77.246C70.3548 77.246 70.7464 76.8544 70.7464 76.3323V72.8735C70.7464 71.242 72.1823 70.5241 73.553 70.5241C74.0751 70.5241 74.4015 70.1326 74.4015 69.6757ZM132.687 69.6757C132.687 69.2189 132.296 68.8274 131.839 68.8274C130.599 68.8274 129.75 69.2189 129.032 70.1326V69.8715C129.032 69.3494 128.641 68.9579 128.118 68.9579C127.596 68.9579 127.205 69.3494 127.205 69.8715V76.3323C127.205 76.8544 127.596 77.246 128.118 77.246C128.641 77.246 129.032 76.8544 129.032 76.3323V72.8735C129.032 71.242 130.468 70.5241 131.839 70.5241C132.361 70.5241 132.687 70.1326 132.687 69.6757ZM95.4183 70.4589C95.8099 70.4589 96.2015 70.1326 96.2015 69.6757C96.2015 69.2189 95.8752 68.8926 95.4183 68.8926H93.4602V66.4127C93.4602 65.8906 93.0033 65.4991 92.4812 65.4991C91.959 65.4991 91.5674 65.8906 91.5674 66.4127V73.9177C91.5674 74.8966 91.8285 75.745 92.3506 76.3323C92.938 76.9849 93.7213 77.3112 94.7656 77.3112H95.4183C95.8099 77.3112 96.2015 76.9196 96.2015 76.5281C96.2015 76.0713 95.8752 75.745 95.4183 75.745H95.0267C94.2434 75.745 93.5255 75.5492 93.5255 73.9829V70.3936H95.4183V70.4589ZM63.1098 64.7159C62.5877 64.7159 62.1961 65.1075 62.1961 65.6296V69.6757C61.4781 69.2189 60.6949 68.9579 59.9116 68.9579C57.6272 68.9579 55.7344 70.8504 55.7344 73.1345C55.7344 75.4187 57.6272 77.3112 59.9116 77.3112C62.1961 77.3112 64.0236 75.4839 64.0889 73.1998V65.6296C64.0889 65.1728 63.632 64.7159 63.1098 64.7159ZM62.1961 73.1998C62.1961 74.505 61.1518 75.6144 59.9116 75.6144C58.6715 75.6144 57.6272 74.505 57.6272 73.1998C57.6272 71.8946 58.6715 70.7852 59.9116 70.7852C61.1518 70.7852 62.1961 71.8946 62.1961 73.1998ZM78.1871 68.8926C75.8374 68.8926 74.0099 70.7852 74.0099 73.1345C74.0099 75.4839 75.9027 77.3765 78.2524 77.3765C79.4925 77.3765 80.8632 76.8544 81.6464 76.006C81.8422 75.8102 81.9075 75.6144 81.9075 75.4187C81.9075 75.2881 81.8422 75.0924 81.7769 74.9618C81.6464 74.7661 81.3853 74.6355 81.1895 74.6355C80.9937 74.6355 80.8632 74.7008 80.7326 74.8313C80.0799 75.4839 79.2314 75.8102 78.3829 75.8102C77.1428 75.8102 76.0985 74.9618 76.0332 73.7219H81.6464C82.038 73.7219 82.3644 73.4608 82.3644 73.0693C82.2338 70.6546 80.5368 68.8926 78.1871 68.8926ZM80.4063 72.3514H75.968C76.1638 71.1767 77.0123 70.4589 78.1871 70.4589C79.2967 70.4589 80.2105 71.242 80.4063 72.3514ZM104.23 68.8926C101.88 68.8926 100.052 70.7852 100.052 73.1345C100.052 75.4839 101.945 77.3765 104.295 77.3765C105.535 77.3765 106.906 76.8544 107.689 76.006C107.885 75.8102 107.95 75.6144 107.95 75.4187C107.95 75.2881 107.885 75.0924 107.82 74.9618C107.689 74.7661 107.428 74.6355 107.232 74.6355C107.036 74.6355 106.906 74.7008 106.775 74.8313C106.123 75.4839 105.274 75.8102 104.425 75.8102C103.185 75.8102 102.141 74.9618 102.076 73.7219H107.754C108.146 73.7219 108.472 73.4608 108.472 73.0693C108.342 70.6546 106.579 68.8926 104.23 68.8926ZM102.011 72.3514C102.206 71.1767 103.055 70.4589 104.23 70.4589C105.339 70.4589 106.253 71.242 106.449 72.3514H102.011ZM122.179 68.8926C119.829 68.8926 118.002 70.7852 118.002 73.1345C118.002 75.4839 119.894 77.3765 122.244 77.3765C123.484 77.3765 124.855 76.8544 125.638 76.006C125.834 75.8102 125.899 75.6144 125.899 75.4187C125.899 75.2881 125.834 75.0924 125.769 74.9618C125.638 74.7661 125.377 74.6355 125.181 74.6355C124.985 74.6355 124.855 74.7008 124.724 74.8313C124.072 75.4839 123.223 75.8102 122.375 75.8102C121.135 75.8102 120.09 74.9618 120.025 73.7219H125.638C126.03 73.7219 126.356 73.4608 126.356 73.0693C126.291 70.6546 124.529 68.8926 122.179 68.8926ZM124.398 72.3514H119.96C120.155 71.1767 121.004 70.4589 122.179 70.4589C123.354 70.4589 124.202 71.242 124.398 72.3514ZM153.117 73.0693C153.117 70.6546 151.354 68.8274 149.005 68.8274C146.655 68.8274 144.827 70.7199 144.827 73.0693C144.827 75.4187 146.72 77.3112 149.07 77.3112C150.31 77.3112 151.681 76.7891 152.464 75.9407C152.66 75.745 152.725 75.5492 152.725 75.3534C152.725 75.2229 152.66 75.0271 152.594 74.8966C152.464 74.7008 152.203 74.5703 152.007 74.5703C151.811 74.5703 151.681 74.6355 151.55 74.7661C150.897 75.4187 150.049 75.745 149.2 75.745C147.96 75.745 146.916 74.8966 146.851 73.6566H152.529C152.79 73.7219 153.117 73.3956 153.117 73.0693ZM149.005 70.4589C150.114 70.4589 151.028 71.242 151.224 72.3514H146.785C147.047 71.1767 147.895 70.4589 149.005 70.4589ZM66.4386 68.9579C65.9164 68.9579 65.5248 69.3494 65.5248 69.8715V76.3323C65.5248 76.8544 65.9164 77.246 66.4386 77.246C66.9607 77.246 67.3524 76.8544 67.3524 76.3323V69.8715C67.3524 69.3494 66.9607 68.9579 66.4386 68.9579ZM142.869 68.9579C142.347 68.9579 141.956 69.3494 141.956 69.8715V76.3323C141.956 76.8544 142.347 77.246 142.869 77.246C143.391 77.246 143.783 76.8544 143.783 76.3323V69.8715C143.848 69.3494 143.391 68.9579 142.869 68.9579ZM139.671 68.9579C139.214 68.9579 138.823 69.2842 138.757 69.6757C138.039 69.2189 137.256 68.9579 136.408 68.9579C134.123 68.9579 132.23 70.8504 132.23 73.1345C132.23 75.4187 134.123 77.3112 136.408 77.3112C137.256 77.3112 138.105 77.0502 138.757 76.5933C138.757 78.1596 137.778 79.0732 136.147 79.0732C135.363 79.0732 134.841 79.008 134.45 78.8775C134.384 78.8775 134.254 78.8122 134.188 78.8122C133.732 78.8122 133.405 79.1385 133.405 79.5953C133.405 79.9216 133.601 80.2479 133.927 80.3132C134.384 80.509 135.429 80.6395 136.212 80.6395C137.582 80.6395 138.692 80.2479 139.541 79.3995C140.258 78.6817 140.65 77.7028 140.715 76.5281V69.9368C140.585 69.4147 140.128 68.9579 139.671 68.9579ZM138.692 73.1345C138.692 74.505 137.648 75.6144 136.342 75.6144C135.037 75.6144 133.993 74.505 133.993 73.1345C133.993 71.7641 135.037 70.6546 136.342 70.6546C137.648 70.6546 138.692 71.7641 138.692 73.1345Z" fill="#4F97CB"/>
</svg>
