<svg width="100" height="100" viewBox="0 0 100 100" fill="none" xmlns="http://www.w3.org/2000/svg">
<g clip-path="url(#clip0)">
<path fill-rule="evenodd" clip-rule="evenodd" d="M10.0162 42.3767L5.13382 41.3276L0.253784 42.3767C0.250603 42.3768 0.247501 42.3777 0.244756 42.3793C0.242011 42.3809 0.239708 42.3832 0.23805 42.3859C0.236392 42.3886 0.235434 42.3917 0.235256 42.3949C0.235078 42.3981 0.235687 42.4013 0.237031 42.4041L0.30427 42.6545L0.317998 42.6531V42.6545C0.341299 42.6523 0.36474 42.6568 0.385614 42.6673C0.406487 42.6779 0.423941 42.6942 0.435958 42.7143L0.509243 43.1154C0.509664 43.1232 0.513108 43.1305 0.518842 43.1358C0.524576 43.1411 0.532149 43.144 0.539955 43.1438H9.73141C9.7377 43.1441 9.74392 43.1423 9.74895 43.1385C9.75398 43.1347 9.7575 43.1292 9.75887 43.1231L9.83169 42.721C9.84331 42.6989 9.86125 42.6808 9.88321 42.669C9.90517 42.6571 9.93016 42.6521 9.955 42.6545V42.6531L9.96733 42.6545L10.0339 42.4041C10.0353 42.4013 10.0359 42.3981 10.0358 42.3949C10.0356 42.3917 10.0347 42.3886 10.033 42.3858C10.0314 42.3831 10.029 42.3808 10.0262 42.3792C10.0235 42.3776 10.0203 42.3768 10.0171 42.3767H10.0162ZM9.50527 43.2722C9.50811 43.2722 9.51083 43.2711 9.51284 43.2691C9.51484 43.2671 9.51597 43.2643 9.51597 43.2615V43.1368C9.51597 43.1307 9.51062 43.1368 9.50527 43.1368H8.76285C8.7575 43.1368 8.75215 43.1314 8.75215 43.1368V43.2622C8.75215 43.265 8.75328 43.2678 8.75528 43.2698C8.75729 43.2718 8.76001 43.2729 8.76285 43.2729L8.79496 43.2745C8.80939 43.2745 8.81031 43.289 8.81031 43.3036C8.81229 43.3691 8.83976 43.4312 8.88686 43.4767C8.88924 43.4795 8.89076 43.483 8.89126 43.4866C8.89175 43.4903 8.8912 43.494 8.88967 43.4974C8.88814 43.5007 8.88568 43.5036 8.88259 43.5056C8.8795 43.5077 8.8759 43.5088 8.8722 43.5088H8.84894C8.84629 43.5081 8.84349 43.5083 8.84094 43.5092C8.83839 43.5102 8.83623 43.512 8.83477 43.5144C8.83331 43.5167 8.83264 43.5194 8.83284 43.5221C8.83305 43.5249 8.83412 43.5274 8.83591 43.5295C8.84173 43.5486 8.84433 43.5685 8.84359 43.5884V43.6428C8.84359 43.6519 8.84359 43.6596 8.85429 43.6596H8.86569C8.86678 43.6595 8.86788 43.6597 8.86889 43.6601C8.86991 43.6605 8.87083 43.6611 8.87157 43.6619C8.87231 43.6627 8.87285 43.6637 8.87317 43.6647C8.87348 43.6658 8.87355 43.6669 8.87337 43.668V46.4073C8.86499 46.4157 8.83591 46.445 8.83358 46.4471C8.83123 46.4502 8.82985 46.4539 8.82963 46.4578V46.5043C8.82991 46.5081 8.82883 46.5119 8.8266 46.515C8.82347 46.5172 8.8197 46.5182 8.8159 46.518H8.78216C8.77928 46.5183 8.77659 46.5196 8.77461 46.5217C8.77263 46.5238 8.77151 46.5265 8.77146 46.5294V46.6083H9.49643V46.5294C9.4964 46.5267 9.49537 46.524 9.49354 46.5219C9.4917 46.5198 9.48918 46.5184 9.48643 46.518H9.45129C9.44771 46.5182 9.44416 46.5172 9.44129 46.515C9.43906 46.5119 9.43799 46.5081 9.43826 46.5043V46.4578C9.43836 46.4558 9.43798 46.4537 9.43718 46.4519C9.43637 46.45 9.43515 46.4484 9.43361 46.4471C9.42989 46.4441 9.40523 46.4189 9.39383 46.4073V43.6673C9.39365 43.6662 9.39371 43.6651 9.39403 43.664C9.39434 43.663 9.39488 43.662 9.39562 43.6612C9.39636 43.6604 9.39728 43.6598 9.3983 43.6594C9.39932 43.659 9.40041 43.6588 9.4015 43.6589H9.41151C9.42128 43.6589 9.42291 43.6512 9.42291 43.6421V43.5879C9.42239 43.568 9.42522 43.5481 9.43128 43.5291C9.43664 43.5197 9.43524 43.5083 9.41756 43.5083H9.39545C9.39169 43.5085 9.38797 43.5074 9.38479 43.5054C9.3816 43.5034 9.3791 43.5005 9.37759 43.497C9.37609 43.4936 9.37566 43.4897 9.37635 43.486C9.37705 43.4823 9.37884 43.4789 9.38149 43.4762C9.40462 43.454 9.4231 43.4274 9.43584 43.398C9.44858 43.3685 9.45534 43.3368 9.45571 43.3048C9.45571 43.2885 9.45571 43.2741 9.4734 43.2741L9.50527 43.2722ZM7.90573 43.2722C7.90857 43.2722 7.91129 43.2711 7.9133 43.2691C7.91531 43.2671 7.91644 43.2643 7.91644 43.2615V43.1368C7.91644 43.1307 7.91108 43.1368 7.90573 43.1368H7.16285C7.1575 43.1368 7.15285 43.1314 7.15285 43.1368V43.2622C7.15278 43.2636 7.153 43.2649 7.15347 43.2662C7.15394 43.2675 7.15466 43.2687 7.15559 43.2697C7.15653 43.2706 7.15765 43.2714 7.1589 43.272C7.16014 43.2726 7.16149 43.2729 7.16285 43.2729L7.19496 43.2745C7.21031 43.2745 7.21101 43.289 7.21101 43.3036C7.2131 43.3689 7.24026 43.4309 7.28686 43.4767C7.28932 43.4795 7.29093 43.4829 7.29149 43.4866C7.29205 43.4903 7.29154 43.494 7.29001 43.4974C7.28849 43.5008 7.28602 43.5037 7.2829 43.5057C7.27978 43.5077 7.27615 43.5088 7.27243 43.5088H7.24917C7.23172 43.5088 7.23009 43.5202 7.23544 43.5295C7.24171 43.5485 7.24432 43.5685 7.24312 43.5884V43.6428C7.24312 43.6519 7.24451 43.6596 7.25452 43.6596H7.26522C7.26631 43.6595 7.26741 43.6597 7.26843 43.6601C7.26945 43.6605 7.27036 43.6611 7.2711 43.6619C7.27184 43.6627 7.27239 43.6637 7.2727 43.6647C7.27301 43.6658 7.27308 43.6669 7.2729 43.668V46.4073C7.26522 46.4157 7.23544 46.445 7.23311 46.4471C7.23056 46.45 7.22922 46.4539 7.22939 46.4578V46.5043C7.2296 46.5081 7.22845 46.5119 7.22614 46.515C7.2233 46.5171 7.21986 46.5181 7.21636 46.518H7.18193C7.17903 46.5182 7.1763 46.5195 7.17431 46.5216C7.17233 46.5237 7.17122 46.5265 7.17123 46.5294V46.6083H7.89666V46.5294C7.89651 46.5266 7.89536 46.5239 7.8934 46.5218C7.89144 46.5197 7.8888 46.5184 7.88596 46.518H7.85152C7.84773 46.5181 7.84401 46.5171 7.84082 46.515C7.83889 46.5118 7.83785 46.5081 7.8378 46.5043V46.4578C7.83792 46.4558 7.83765 46.4539 7.83701 46.4521C7.83637 46.4502 7.83537 46.4485 7.83407 46.4471C7.82942 46.4441 7.80569 46.4189 7.79336 46.4073V43.6673C7.79318 43.6662 7.79325 43.6651 7.79356 43.664C7.79387 43.663 7.79442 43.662 7.79516 43.6612C7.7959 43.6604 7.79681 43.6598 7.79783 43.6594C7.79885 43.659 7.79994 43.6588 7.80104 43.6589H7.81174C7.82081 43.6589 7.82244 43.6512 7.82244 43.6421V43.5879C7.82192 43.568 7.82475 43.5481 7.83082 43.5291C7.83617 43.5197 7.83477 43.5083 7.81779 43.5083H7.79569C7.79189 43.5085 7.78812 43.5076 7.78489 43.5055C7.78167 43.5035 7.77914 43.5006 7.77764 43.4971C7.77615 43.4936 7.77576 43.4897 7.77653 43.486C7.7773 43.4823 7.7792 43.4789 7.78196 43.4762C7.80522 43.4541 7.82379 43.4275 7.83654 43.3981C7.84929 43.3686 7.85597 43.3369 7.85618 43.3048C7.85618 43.2885 7.85618 43.2741 7.87293 43.2741L7.90573 43.2722ZM6.30597 43.2722C6.3088 43.2722 6.31153 43.2711 6.31353 43.2691C6.31554 43.2671 6.31667 43.2643 6.31667 43.2615V43.1368C6.31667 43.1307 6.31132 43.1368 6.30597 43.1368H5.56448C5.5582 43.1368 5.55378 43.1314 5.55378 43.1368V43.2622C5.55371 43.2636 5.55394 43.265 5.55445 43.2664C5.55497 43.2677 5.55575 43.2689 5.55676 43.2699C5.55777 43.2709 5.55898 43.2717 5.5603 43.2722C5.56163 43.2727 5.56306 43.273 5.56448 43.2729L5.59589 43.2745C5.61101 43.2745 5.61194 43.289 5.61194 43.3036C5.61396 43.3687 5.64076 43.4306 5.68686 43.4767C5.68939 43.4794 5.69107 43.4828 5.69171 43.4864C5.69235 43.4901 5.69192 43.4938 5.69047 43.4972C5.68901 43.5006 5.6866 43.5035 5.68352 43.5056C5.68044 43.5077 5.67683 43.5088 5.67313 43.5088H5.64986C5.63311 43.5088 5.63218 43.5202 5.63776 43.5295C5.64291 43.5487 5.64519 43.5685 5.64451 43.5884V43.6428C5.64451 43.6519 5.64614 43.6596 5.65522 43.6596H5.66662C5.66771 43.6595 5.6688 43.6597 5.66982 43.6601C5.67084 43.6605 5.67175 43.6611 5.67249 43.6619C5.67323 43.6627 5.67378 43.6637 5.67409 43.6647C5.6744 43.6658 5.67447 43.6669 5.67429 43.668V46.4073C5.66662 46.4157 5.63777 46.445 5.63451 46.4471C5.63233 46.4502 5.63104 46.4539 5.63078 46.4578V46.5043C5.63123 46.5062 5.63119 46.5082 5.63066 46.5101C5.63013 46.5119 5.62913 46.5136 5.62776 46.515C5.62638 46.5164 5.62467 46.5174 5.6228 46.5179C5.62093 46.5184 5.61895 46.5185 5.61706 46.518H5.58332C5.58044 46.5183 5.57775 46.5196 5.57577 46.5217C5.57379 46.5238 5.57267 46.5265 5.57262 46.5294V46.6083H6.29806V46.5294C6.29806 46.5265 6.29696 46.5237 6.29497 46.5216C6.29298 46.5195 6.29025 46.5182 6.28735 46.518H6.25315C6.24927 46.5182 6.24544 46.5172 6.24222 46.515C6.24036 46.5117 6.23932 46.5081 6.23919 46.5043V46.4578C6.23931 46.4558 6.23905 46.4539 6.23841 46.4521C6.23777 46.4502 6.23677 46.4485 6.23547 46.4471C6.23151 46.4441 6.20778 46.4189 6.19568 46.4073V43.6789C6.19528 43.675 6.19528 43.6711 6.19568 43.6673C6.19561 43.6661 6.19579 43.665 6.1962 43.6639C6.19661 43.6628 6.19725 43.6619 6.19806 43.6611C6.19888 43.6603 6.19986 43.6597 6.20094 43.6593C6.20201 43.6589 6.20316 43.6588 6.20429 43.6589H6.21337C6.22407 43.6589 6.22477 43.6512 6.22477 43.6421V43.5879C6.22407 43.5679 6.22723 43.5479 6.23407 43.5291C6.23873 43.5197 6.2378 43.5083 6.22035 43.5083H6.19708C6.19333 43.5084 6.18965 43.5074 6.1865 43.5053C6.18335 43.5033 6.18088 43.5004 6.17941 43.4969C6.17794 43.4935 6.17753 43.4897 6.17823 43.486C6.17893 43.4823 6.18071 43.4789 6.18335 43.4762C6.20662 43.4541 6.22518 43.4275 6.23793 43.3981C6.25069 43.3686 6.25737 43.3369 6.25757 43.3048C6.25757 43.2885 6.25757 43.2741 6.27525 43.2741L6.30597 43.2722ZM4.7055 43.2722C4.70692 43.2723 4.70834 43.272 4.70967 43.2715C4.711 43.271 4.71221 43.2702 4.71321 43.2692C4.71422 43.2682 4.71501 43.267 4.71552 43.2657C4.71603 43.2643 4.71626 43.2629 4.7162 43.2615V43.1368C4.7162 43.1307 4.71178 43.1368 4.7055 43.1368H3.96401C3.95773 43.1368 3.95331 43.1314 3.95331 43.1368V43.2622C3.95324 43.2636 3.95347 43.265 3.95399 43.2664C3.9545 43.2677 3.95529 43.2689 3.95629 43.2699C3.9573 43.2709 3.95851 43.2717 3.95984 43.2722C3.96117 43.2727 3.96259 43.273 3.96401 43.2729L3.99542 43.2745C4.01054 43.2745 4.01054 43.289 4.01054 43.3036C4.01264 43.3691 4.04009 43.4311 4.08709 43.4767C4.08955 43.4795 4.09116 43.4829 4.09172 43.4866C4.09228 43.4903 4.09176 43.494 4.09024 43.4974C4.08872 43.5008 4.08625 43.5037 4.08313 43.5057C4.08001 43.5077 4.07638 43.5088 4.07266 43.5088H4.0494C4.03125 43.5088 4.03032 43.5202 4.03637 43.5295C4.04135 43.5487 4.04347 43.5686 4.04265 43.5884V43.6428C4.04265 43.6519 4.04497 43.6596 4.05475 43.6596H4.06568C4.06681 43.6595 4.06795 43.6596 4.06901 43.66C4.07008 43.6604 4.07104 43.661 4.07184 43.6618C4.07264 43.6626 4.07326 43.6636 4.07364 43.6646C4.07403 43.6657 4.07417 43.6668 4.07406 43.668V46.4073L4.03334 46.4471C4.03088 46.4501 4.02956 46.4539 4.02962 46.4578V46.5043C4.02977 46.5063 4.02949 46.5082 4.02881 46.5101C4.02813 46.5119 4.02705 46.5136 4.02566 46.515C4.02432 46.5161 4.02276 46.517 4.02108 46.5175C4.01941 46.518 4.01764 46.5182 4.01589 46.518H3.98239C3.97949 46.5182 3.97677 46.5195 3.97478 46.5216C3.97279 46.5237 3.97168 46.5265 3.97169 46.5294V46.6083H4.69712V46.5294C4.69707 46.5265 4.69595 46.5238 4.69397 46.5217C4.69199 46.5196 4.6893 46.5183 4.68642 46.518H4.65198C4.6484 46.5182 4.64487 46.5171 4.64198 46.515C4.63952 46.512 4.6382 46.5082 4.63826 46.5043V46.4578C4.63854 46.4558 4.63835 46.4538 4.6377 46.452C4.63705 46.4501 4.63597 46.4484 4.63454 46.4471C4.63058 46.4441 4.60685 46.4189 4.59545 46.4073V43.6789C4.59505 43.675 4.59505 43.6711 4.59545 43.6673C4.59527 43.6662 4.59534 43.6651 4.59565 43.664C4.59596 43.663 4.59651 43.662 4.59725 43.6612C4.59799 43.6604 4.5989 43.6598 4.59992 43.6594C4.60094 43.659 4.60204 43.6588 4.60313 43.6589H4.61313C4.62314 43.6589 4.62453 43.6512 4.62453 43.6421V43.5879C4.62396 43.5679 4.62688 43.548 4.63314 43.5291C4.63477 43.5269 4.63571 43.5244 4.63584 43.5217C4.63597 43.5191 4.63528 43.5164 4.63386 43.5142C4.63244 43.5119 4.63035 43.5101 4.6279 43.5091C4.62544 43.5081 4.62272 43.5078 4.62011 43.5083H4.59684C4.59308 43.5084 4.58938 43.5074 4.5862 43.5054C4.58301 43.5034 4.58049 43.5005 4.57895 43.4971C4.57741 43.4937 4.57691 43.4899 4.57753 43.4861C4.57815 43.4824 4.57985 43.479 4.58242 43.4762C4.60575 43.4541 4.6244 43.4276 4.63727 43.3981C4.65014 43.3687 4.65696 43.3369 4.65734 43.3048C4.65734 43.2885 4.65734 43.2741 4.67339 43.2741L4.7055 43.2722ZM3.10596 43.2722C3.10738 43.2722 3.10878 43.272 3.11009 43.2714C3.11141 43.2709 3.1126 43.2701 3.1136 43.2691C3.1146 43.2681 3.11539 43.2669 3.11591 43.2656C3.11644 43.2643 3.11669 43.2629 3.11666 43.2615V43.1368C3.11666 43.1307 3.11201 43.1368 3.10596 43.1368H2.36424C2.35819 43.1368 2.35354 43.1314 2.35354 43.1368V43.2622C2.35351 43.2636 2.35376 43.265 2.35429 43.2663C2.35481 43.2676 2.3556 43.2688 2.3566 43.2698C2.3576 43.2708 2.3588 43.2716 2.36011 43.2721C2.36142 43.2727 2.36283 43.2729 2.36424 43.2729L2.39495 43.2745C2.41101 43.2745 2.41101 43.289 2.41101 43.3036C2.41299 43.3691 2.44045 43.4312 2.48755 43.4767C2.48993 43.4795 2.49145 43.483 2.49195 43.4866C2.49245 43.4903 2.4919 43.494 2.49036 43.4974C2.48883 43.5007 2.48637 43.5036 2.48328 43.5056C2.48019 43.5077 2.47659 43.5088 2.47289 43.5088H2.44963C2.43218 43.5088 2.43125 43.5202 2.4366 43.5295C2.44228 43.5486 2.44465 43.5685 2.44358 43.5884V43.6428C2.44358 43.6519 2.4459 43.6596 2.45591 43.6596H2.46661C2.4677 43.6595 2.4688 43.6597 2.46982 43.6601C2.47084 43.6605 2.47175 43.6611 2.47249 43.6619C2.47323 43.6627 2.47378 43.6637 2.47409 43.6647C2.4744 43.6658 2.47447 43.6669 2.47429 43.668V46.4073C2.46661 46.4157 2.4366 46.445 2.43451 46.4471C2.43186 46.45 2.43045 46.4538 2.43055 46.4578V46.5043C2.4305 46.5081 2.42946 46.5118 2.42753 46.515C2.42416 46.5172 2.42015 46.5183 2.41612 46.518H2.38239C2.37951 46.5183 2.37681 46.5196 2.37484 46.5217C2.37286 46.5238 2.37173 46.5265 2.37169 46.5294V46.6083H3.09828V46.5294C3.09814 46.5266 3.09698 46.5239 3.09502 46.5218C3.09306 46.5197 3.09042 46.5184 3.08758 46.518H3.05175C3.04789 46.5181 3.04409 46.5171 3.04082 46.515C3.03896 46.5117 3.03792 46.5081 3.03779 46.5043V46.4578C3.03807 46.4558 3.03788 46.4538 3.03723 46.452C3.03658 46.4501 3.0355 46.4484 3.03407 46.4471C3.03011 46.4441 3.00568 46.4189 2.99428 46.4073V43.6673C2.9941 43.6662 2.99417 43.6651 2.99449 43.664C2.9948 43.663 2.99534 43.662 2.99608 43.6612C2.99682 43.6604 2.99774 43.6598 2.99876 43.6594C2.99977 43.659 3.00087 43.6588 3.00196 43.6589H3.01173C3.02174 43.6589 3.02337 43.6512 3.02337 43.6421V43.5879C3.02284 43.568 3.02568 43.5481 3.03174 43.5291C3.03709 43.5197 3.03547 43.5083 3.01871 43.5083H2.99545C2.99175 43.5083 2.98814 43.5072 2.98506 43.5051C2.98198 43.5031 2.97957 43.5002 2.97811 43.4968C2.97666 43.4934 2.97623 43.4896 2.97687 43.486C2.97751 43.4823 2.97919 43.4789 2.98172 43.4762C3.00505 43.4541 3.0237 43.4276 3.03657 43.3981C3.04944 43.3687 3.05626 43.3369 3.05664 43.3048C3.05664 43.2885 3.05664 43.2741 3.07362 43.2741L3.10596 43.2722ZM1.50573 43.2722C1.50714 43.2722 1.50855 43.272 1.50986 43.2714C1.51117 43.2709 1.51237 43.2701 1.51337 43.2691C1.51437 43.2681 1.51515 43.2669 1.51568 43.2656C1.51621 43.2643 1.51646 43.2629 1.51643 43.2615V43.1368C1.51643 43.1307 1.51178 43.1368 1.50573 43.1368H0.764006C0.757956 43.1368 0.753306 43.1314 0.753306 43.1368V43.2622C0.753274 43.2636 0.753528 43.265 0.754055 43.2663C0.754581 43.2676 0.755369 43.2688 0.756369 43.2698C0.75737 43.2708 0.75856 43.2716 0.759873 43.2721C0.761186 43.2727 0.762591 43.2729 0.764006 43.2729L0.795417 43.2745C0.810773 43.2745 0.811471 43.289 0.811471 43.3036C0.813444 43.3689 0.840529 43.4309 0.887084 43.4767C0.889612 43.4794 0.891297 43.4828 0.891937 43.4864C0.892578 43.4901 0.892146 43.4938 0.890691 43.4972C0.889236 43.5006 0.886821 43.5035 0.883744 43.5056C0.880666 43.5077 0.877057 43.5088 0.873356 43.5088H0.850092C0.83241 43.5088 0.831712 43.5202 0.837063 43.5295C0.842887 43.5486 0.845479 43.5685 0.844739 43.5884V43.6428C0.844739 43.6519 0.84474 43.6596 0.855442 43.6596H0.866842C0.867902 43.6595 0.868964 43.6597 0.869941 43.6601C0.870917 43.6605 0.871781 43.6612 0.872461 43.662C0.873142 43.6628 0.87362 43.6638 0.873857 43.6648C0.874093 43.6658 0.87408 43.6669 0.873821 43.668C0.873519 43.6718 0.873519 43.6757 0.873821 43.6796V46.4073C0.865445 46.4157 0.836365 46.445 0.834039 46.4471C0.832596 46.4484 0.831487 46.4501 0.830801 46.452C0.830115 46.4538 0.82987 46.4558 0.830084 46.4578V46.5043C0.830144 46.5082 0.828824 46.512 0.82636 46.515C0.823542 46.5173 0.819956 46.5184 0.816356 46.518H0.783318C0.780366 46.5183 0.77759 46.5195 0.775497 46.5216C0.773404 46.5237 0.772134 46.5265 0.771919 46.5294V46.6083H1.49828V46.5294C1.49823 46.5265 1.49711 46.5238 1.49513 46.5217C1.49315 46.5196 1.49046 46.5183 1.48758 46.518H1.45222C1.44871 46.5181 1.44527 46.5171 1.44244 46.515C1.44044 46.5118 1.43961 46.508 1.44012 46.5043V46.4578C1.43999 46.4537 1.43832 46.4499 1.43546 46.4471C1.43151 46.4441 1.40708 46.4189 1.39498 46.4073V43.6673C1.39481 43.6662 1.39487 43.6651 1.39517 43.6641C1.39547 43.663 1.39599 43.6621 1.39671 43.6613C1.39742 43.6605 1.3983 43.6599 1.39929 43.6594C1.40028 43.659 1.40135 43.6588 1.40243 43.6589H1.41243C1.42243 43.6589 1.42383 43.6512 1.42383 43.6421V43.5879C1.42338 43.568 1.42629 43.5481 1.43244 43.5291C1.43779 43.5197 1.43709 43.5083 1.41941 43.5083H1.39614C1.39235 43.5085 1.38858 43.5076 1.38535 43.5055C1.38213 43.5035 1.37959 43.5006 1.3781 43.4971C1.3766 43.4936 1.37621 43.4897 1.37698 43.486C1.37776 43.4823 1.37965 43.4789 1.38242 43.4762C1.40555 43.454 1.42402 43.4274 1.43676 43.398C1.4495 43.3685 1.45626 43.3368 1.45664 43.3048C1.45664 43.2885 1.45664 43.2741 1.47432 43.2741L1.50573 43.2722ZM7.40621 40.383H7.32874C7.32632 40.3834 7.32385 40.3832 7.32151 40.3825C7.31916 40.3818 7.31699 40.3806 7.31512 40.3791C7.31326 40.3775 7.31175 40.3755 7.31068 40.3733C7.30962 40.3711 7.30904 40.3687 7.30896 40.3663V40.2841C7.30899 40.2815 7.3085 40.2789 7.3075 40.2765C7.3065 40.2741 7.30503 40.2719 7.30316 40.27C7.30129 40.2682 7.29907 40.2667 7.29663 40.2657C7.29419 40.2648 7.29158 40.2643 7.28895 40.2644H7.21404C7.21141 40.2646 7.20876 40.2642 7.20627 40.2633C7.20378 40.2625 7.2015 40.2611 7.19956 40.2593C7.19762 40.2575 7.19606 40.2554 7.19499 40.2529C7.19392 40.2505 7.19335 40.2479 7.19333 40.2453V40.1678C7.19341 40.1654 7.19298 40.1631 7.19207 40.1609C7.19115 40.1587 7.18978 40.1567 7.18803 40.1551C7.18629 40.1535 7.18422 40.1523 7.18196 40.1515C7.1797 40.1508 7.17731 40.1506 7.17495 40.1508H7.12981C7.12538 40.1507 7.12101 40.1498 7.11696 40.148C7.1129 40.1462 7.10923 40.1437 7.10616 40.1405C7.10309 40.1373 7.10068 40.1335 7.09907 40.1294C7.09746 40.1252 7.09668 40.1208 7.09678 40.1164C7.1199 39.6357 6.99632 39.1593 6.74243 38.7505C6.50329 38.4034 6.17329 38.1287 5.78853 37.9566C5.77171 37.9141 5.74368 37.877 5.70741 37.8492C5.67114 37.8215 5.62801 37.8041 5.58262 37.7989C5.56843 37.7977 5.55497 37.7921 5.54421 37.7828C5.53345 37.7734 5.52596 37.7609 5.52283 37.747C5.52283 37.7454 5.52283 37.7147 5.52283 37.7133C5.52283 37.6825 5.55052 37.6695 5.59263 37.6718C5.59827 37.6719 5.60375 37.6699 5.60803 37.6662C5.61231 37.6625 5.61511 37.6574 5.6159 37.6518V37.5639C5.61553 37.5563 5.61221 37.5492 5.60663 37.5441C5.60106 37.5389 5.59369 37.5362 5.58611 37.5364H5.50189C5.49415 37.536 5.48685 37.5327 5.48146 37.5271C5.47607 37.5216 5.47297 37.5142 5.47281 37.5064V37.462C5.47201 37.4514 5.46822 37.4412 5.46188 37.4327C5.45554 37.4242 5.4469 37.4176 5.43698 37.4138V36.8673C5.43698 36.8496 5.45071 36.851 5.46374 36.851H5.47048C5.47388 36.851 5.47713 36.8496 5.47955 36.8472C5.48197 36.8448 5.48339 36.8416 5.48351 36.8382V36.7852C5.48358 36.7835 5.48329 36.7817 5.48265 36.7801C5.48202 36.7785 5.48106 36.7771 5.47983 36.7759C5.4786 36.7747 5.47714 36.7738 5.47553 36.7732C5.47392 36.7725 5.4722 36.7723 5.47048 36.7724H5.44722C5.44131 36.7677 5.43684 36.7615 5.43429 36.7544C5.43174 36.7474 5.43122 36.7397 5.43279 36.7324C5.43086 36.7247 5.43153 36.7167 5.43469 36.7095C5.43785 36.7023 5.44332 36.6963 5.45024 36.6926H5.47095C5.47261 36.6927 5.47427 36.6924 5.47583 36.6919C5.47739 36.6913 5.47882 36.6904 5.48004 36.6893C5.48126 36.6882 5.48223 36.6868 5.48291 36.6853C5.48358 36.6838 5.48395 36.6821 5.48398 36.6805V36.6277C5.48401 36.6259 5.48369 36.6242 5.48305 36.6226C5.48241 36.621 5.48145 36.6196 5.48023 36.6184C5.47902 36.6172 5.47757 36.6162 5.47597 36.6156C5.47438 36.6149 5.47267 36.6146 5.47095 36.6146H5.44349C5.43125 36.6118 5.4199 36.606 5.41046 36.5977C5.33826 36.5431 5.2754 36.4772 5.22433 36.4025C5.22433 36.3941 5.22433 36.3934 5.22433 36.3827C5.22356 36.3735 5.21933 36.365 5.2125 36.3589C5.20567 36.3527 5.19675 36.3494 5.18757 36.3496C5.1643 36.3496 5.16709 36.3236 5.18012 36.3236C5.1885 36.3236 5.19152 36.3213 5.19152 36.3092V36.2738C5.17881 36.2445 5.16231 36.2169 5.14243 36.1919H5.14034C5.12046 36.2169 5.10396 36.2445 5.09125 36.2738V36.3092C5.09125 36.3213 5.09427 36.3236 5.10358 36.3236C5.11661 36.3236 5.11963 36.3496 5.09497 36.3496C5.08593 36.3496 5.07722 36.353 5.07057 36.3591C5.06393 36.3653 5.05984 36.3737 5.05914 36.3827C5.05914 36.3934 5.05914 36.3941 5.05914 36.4025C5.00825 36.4773 4.94537 36.5433 4.87301 36.5977C4.86343 36.6061 4.85181 36.612 4.83928 36.6146H4.81182C4.80847 36.6148 4.8053 36.6162 4.80299 36.6186C4.80069 36.6211 4.79943 36.6243 4.79949 36.6277V36.6805C4.79949 36.6821 4.79981 36.6837 4.80044 36.6852C4.80106 36.6866 4.80197 36.688 4.80312 36.6891C4.80426 36.6902 4.80563 36.6911 4.80712 36.6917C4.80862 36.6923 4.81022 36.6926 4.81182 36.6926H4.83323C4.84001 36.6965 4.84537 36.7024 4.84851 36.7096C4.85165 36.7168 4.85241 36.7247 4.85068 36.7324C4.85225 36.7397 4.85173 36.7474 4.84918 36.7544C4.84663 36.7615 4.84215 36.7677 4.83625 36.7724H4.81298C4.81133 36.7724 4.80968 36.7727 4.80816 36.7734C4.80663 36.774 4.80525 36.775 4.8041 36.7762C4.80295 36.7774 4.80205 36.7788 4.80146 36.7803C4.80087 36.7819 4.80059 36.7835 4.80066 36.7852V36.8382C4.80071 36.8415 4.80201 36.8447 4.8043 36.8471C4.80659 36.8494 4.80969 36.8508 4.81298 36.851H4.82043C4.83369 36.851 4.84742 36.8496 4.84742 36.8673V37.4138C4.83736 37.4175 4.82855 37.424 4.82204 37.4326C4.81554 37.4411 4.81159 37.4513 4.81066 37.462V37.5064C4.81066 37.5142 4.80763 37.5217 4.8022 37.5273C4.79677 37.5329 4.78937 37.5362 4.78158 37.5364H4.69735C4.68978 37.5362 4.68241 37.5389 4.67684 37.5441C4.67126 37.5492 4.66794 37.5563 4.66757 37.5639V37.6518C4.66836 37.6574 4.67116 37.6625 4.67544 37.6662C4.67972 37.6699 4.68519 37.6719 4.69084 37.6718C4.73295 37.6695 4.76064 37.6825 4.76064 37.7133C4.76064 37.7147 4.76064 37.7454 4.76064 37.747C4.75734 37.7609 4.7497 37.7735 4.73883 37.7828C4.72796 37.7921 4.71442 37.7977 4.70014 37.7989C4.65476 37.8041 4.61163 37.8215 4.57536 37.8492C4.5391 37.877 4.51106 37.9141 4.49424 37.9566C4.10949 38.1287 3.77948 38.4034 3.54034 38.7505C3.28613 39.1592 3.16253 39.6357 3.186 40.1164C3.18612 40.1253 3.18276 40.1339 3.17662 40.1403C3.17049 40.1468 3.16208 40.1505 3.15319 40.1508H3.10666C3.10427 40.1506 3.10187 40.1509 3.09959 40.1516C3.09731 40.1524 3.09521 40.1536 3.09342 40.1552C3.09163 40.1568 3.09019 40.1587 3.08918 40.1609C3.08818 40.1631 3.08763 40.1654 3.08758 40.1678V40.2444C3.08769 40.247 3.08724 40.2496 3.08626 40.252C3.08528 40.2544 3.08379 40.2566 3.0819 40.2584C3.08 40.2602 3.07775 40.2616 3.07528 40.2625C3.07281 40.2634 3.07018 40.2637 3.06757 40.2634H2.99196C2.98933 40.2634 2.98672 40.2638 2.98428 40.2648C2.98184 40.2658 2.97962 40.2672 2.97775 40.2691C2.97589 40.2709 2.97441 40.2731 2.97341 40.2756C2.97241 40.278 2.97192 40.2806 2.97195 40.2832V40.366C2.97199 40.3685 2.97148 40.371 2.97045 40.3732C2.96943 40.3755 2.96792 40.3775 2.96603 40.3791C2.96414 40.3807 2.96191 40.3819 2.95952 40.3825C2.95712 40.3831 2.95461 40.3832 2.95217 40.3828H2.87563C2.87284 40.3828 2.87007 40.3833 2.8675 40.3844C2.86492 40.3854 2.8626 40.387 2.86066 40.389C2.85872 40.391 2.85721 40.3934 2.85622 40.396C2.85524 40.3986 2.85479 40.4014 2.85492 40.4042V40.4935C2.85471 40.4952 2.85488 40.497 2.85542 40.4986C2.85595 40.5002 2.85684 40.5017 2.85802 40.503C2.8592 40.5042 2.86063 40.5052 2.86223 40.5058C2.86383 40.5064 2.86554 40.5067 2.86725 40.5066C2.88582 40.5086 2.90305 40.5172 2.91585 40.5308C2.92865 40.5444 2.93616 40.5621 2.93705 40.5808C2.93428 40.592 2.93407 40.6037 2.93646 40.615C2.93885 40.6263 2.94376 40.6369 2.95084 40.646C2.95791 40.6552 2.96696 40.6626 2.9773 40.6677C2.98765 40.6729 2.99902 40.6756 3.01057 40.6757V40.9949C3.01087 41.0211 3.00187 41.0466 2.98517 41.0668C2.96847 41.087 2.94516 41.1006 2.91937 41.1052C2.91528 41.1064 2.91164 41.1088 2.90891 41.1121C2.90618 41.1153 2.90448 41.1193 2.90401 41.1236V41.4512L5.1422 40.9575H5.1443L7.38225 41.4512V41.1217C7.3818 41.1174 7.38001 41.1133 7.37714 41.11C7.37426 41.1067 7.37044 41.1044 7.36619 41.1033C7.34064 41.0984 7.31762 41.0847 7.30113 41.0645C7.28464 41.0444 7.27572 41.0191 7.27592 40.9931V40.6739C7.2875 40.6738 7.29892 40.6712 7.30931 40.666C7.31971 40.6609 7.32879 40.6535 7.33588 40.6444C7.34297 40.6352 7.34788 40.6246 7.35023 40.6132C7.35258 40.6019 7.35231 40.5901 7.34944 40.5789C7.35042 40.5603 7.35797 40.5426 7.37075 40.529C7.38353 40.5155 7.40071 40.5068 7.41924 40.5047C7.42103 40.5049 7.42283 40.5047 7.42452 40.5041C7.42622 40.5035 7.42777 40.5025 7.42907 40.5013C7.43037 40.5001 7.43139 40.4986 7.43206 40.4969C7.43273 40.4953 7.43304 40.4935 7.43297 40.4917V40.4035C7.43306 40.4007 7.43259 40.3979 7.43156 40.3953C7.43053 40.3926 7.42898 40.3902 7.427 40.3882C7.42501 40.3862 7.42264 40.3847 7.42003 40.3836C7.41741 40.3825 7.41461 40.382 7.4118 40.3821L7.40621 40.383ZM9.88544 47.535V46.8805H9.49643V46.5948H0.771685V46.8805H0.388958V47.535H0.00390625V48.195L10.2661 48.1964V47.535H9.88032H9.88544Z" fill="#2E2E2E"/>
<path fill-rule="evenodd" clip-rule="evenodd" d="M18.7993 63.6897C15.7552 61.2574 14.7945 57.9725 14.8208 54.2262C14.8627 48.2166 14.832 42.2066 14.832 36.1053H24.1568V37.3242C24.1568 43.1809 24.1379 49.0377 24.1654 54.8942C24.1803 58.0993 26.6493 59.8354 29.7087 58.8552C31.4272 58.3045 32.2948 57.1198 32.3006 55.1771C32.3185 49.3206 32.3101 43.4638 32.312 37.6073C32.312 37.1436 32.312 36.6802 32.312 36.1153H41.6549C41.7172 36.2343 41.7587 36.363 41.7777 36.4959C41.7333 42.6996 41.7421 48.9046 41.6042 55.1061C41.5313 58.3834 40.261 61.2 37.6666 63.3272C37.5664 63.4361 37.4813 63.558 37.4137 63.6897H18.8009H18.7993ZM51.1407 63.6897C43.8891 58.0235 43.5811 47.3435 48.372 40.8946C51.2723 36.9901 55.2155 35.0685 60.0497 35.0022C66.4336 34.9148 71.4433 37.3861 74.8643 43.1421L67.0488 47.0356C66.8494 46.6592 66.6721 46.3335 66.503 46.0036C65.0065 43.0832 62.963 41.9155 59.9589 42.2657C57.5939 42.5414 55.6929 44.435 55.0021 47.309C54.3865 49.811 54.5214 52.4389 55.39 54.8646C56.2536 57.3001 57.9336 58.8017 60.642 58.8925C63.2867 58.9811 65.158 57.7824 66.3387 55.4491C66.5448 55.0417 66.7265 54.6218 66.9669 54.108L74.8308 57.9018C73.9538 59.8766 72.6294 61.6203 70.9623 62.995C70.698 63.2071 70.4656 63.457 70.2188 63.6897H51.1407ZM78.5945 63.6897V36.0697H87.9079V57.7536H100V63.6897H78.5945Z" fill="#2E2E2E"/>
</g>
<defs>
<clipPath id="clip0">
<rect width="100" height="100" fill="white"/>
</clipPath>
</defs>
</svg>
