<svg width="124" height="31" viewBox="0 0 124 31" fill="none" xmlns="http://www.w3.org/2000/svg">
<path d="M46.3971 25.1393C50.3211 25.1393 53.0888 23.2049 53.0888 18.8414V9.58353H49.6418V18.4414C49.6418 21.0086 48.2904 22.0776 46.3971 22.0776C44.5037 22.0776 43.1523 21.0231 43.1523 18.4414V9.58353H39.6836V18.8414C39.6836 23.2049 42.473 25.1393 46.3971 25.1393Z" fill="#101A42"/>
<path d="M62.3242 13.5185C61.6891 13.4971 61.0575 13.6208 60.4768 13.8803C59.896 14.1397 59.3812 14.5283 58.9711 15.0166L58.617 13.8021H55.7842V24.7908H58.9928V18.8492C59.159 16.9293 60.1562 16.253 61.1607 16.253C62.5265 16.253 63.1119 17.1984 63.1119 18.8056V24.7908H66.3205V17.8965C66.3205 14.573 64.1525 13.5331 62.3314 13.5331L62.3242 13.5185Z" fill="#101A42"/>
<path d="M70.7574 12.0785C71.1063 12.067 71.4442 11.9525 71.7288 11.7491C72.0135 11.5457 72.2323 11.2624 72.358 10.9347C72.4838 10.607 72.5108 10.2492 72.4358 9.9061C72.3609 9.56298 72.1871 9.24968 71.9364 9.00526C71.6856 8.76085 71.3689 8.59615 71.0257 8.5317C70.6825 8.46726 70.3281 8.50592 70.0066 8.64287C69.6851 8.77982 69.4108 9.00899 69.2179 9.30181C69.025 9.59462 68.9221 9.93811 68.9219 10.2894C68.9314 10.771 69.1296 11.2293 69.4735 11.5644C69.8173 11.8995 70.2788 12.0843 70.7574 12.0785Z" fill="#101A42"/>
<path d="M72.3262 13.8015H69.1465V24.7975H72.3262V13.8015Z" fill="#101A42"/>
<path d="M83.2525 9.5975H79.6826L73.7568 24.7606H77.3701L78.5119 21.5971H84.2931L85.4349 24.7606H89.1494L83.2525 9.5975ZM79.4297 19.1535L81.5037 13.1174L83.5705 19.1535H79.4297Z" fill="#F05D4E"/>
<path d="M95.6457 25.1392C97.056 25.1761 98.4394 24.747 99.5842 23.9175L97.8065 21.5176C97.5443 21.7877 97.2305 22.0017 96.884 22.1467C96.5375 22.2917 96.1655 22.3646 95.7903 22.3612C94.1209 22.3612 93.0442 21.1176 93.0442 19.3285C93.0442 17.5395 94.1209 16.2959 95.7903 16.2959C96.1655 16.2924 96.5375 16.3654 96.884 16.5104C97.2305 16.6553 97.5443 16.8693 97.8065 17.1395L99.5986 14.7323C98.4492 13.9019 97.0601 13.4751 95.6457 13.5178C94.9031 13.4866 94.1616 13.603 93.4637 13.8602C92.7657 14.1175 92.125 14.5106 91.5781 15.0171C91.0311 15.5236 90.5887 16.1336 90.2761 16.8122C89.9635 17.4909 89.7868 18.2248 89.7561 18.9722V19.3213C89.7251 20.8311 90.2905 22.2916 91.3283 23.3823C92.3661 24.473 93.7914 25.1049 95.2916 25.1392H95.6457Z" fill="#F05D4E"/>
<path d="M106.362 25.1392C107.775 25.174 109.16 24.7451 110.308 23.9175L108.523 21.5175C108.261 21.7877 107.947 22.0017 107.601 22.1467C107.254 22.2917 106.882 22.3646 106.507 22.3612C104.838 22.3612 103.761 21.1176 103.761 19.3285C103.761 17.5395 104.838 16.2959 106.507 16.2959C106.882 16.2924 107.254 16.3654 107.601 16.5103C107.947 16.6553 108.261 16.8693 108.523 17.1395L110.323 14.7323C109.169 13.9042 107.779 13.4778 106.362 13.5178C105.62 13.4866 104.879 13.603 104.182 13.8604C103.484 14.1177 102.844 14.5109 102.297 15.0175C101.751 15.5241 101.309 16.1342 100.997 16.8128C100.686 17.4913 100.51 18.2251 100.48 18.9722C100.473 19.0884 100.473 19.205 100.48 19.3213C100.464 20.0691 100.594 20.8128 100.863 21.51C101.133 22.2072 101.536 22.8441 102.05 23.3844C102.564 23.9246 103.179 24.3577 103.859 24.6588C104.54 24.9599 105.272 25.1232 106.016 25.1392H106.362Z" fill="#F05D4E"/>
<path d="M117.231 13.5547C113.662 13.5547 111.161 15.9983 111.161 19.3C111.161 22.6017 113.662 25.118 117.231 25.118C120.801 25.118 123.302 22.6744 123.302 19.3C123.302 15.9256 120.801 13.5547 117.231 13.5547ZM120.021 19.3C120.056 19.6701 120.018 20.0435 119.909 20.3988C119.8 20.7542 119.623 21.0845 119.388 21.3708C119.152 21.6572 118.863 21.8941 118.536 22.0678C118.21 22.2416 117.852 22.3489 117.484 22.3835H117.231C116.877 22.3864 116.525 22.3188 116.197 22.1847C115.868 22.0506 115.569 21.8525 115.317 21.6019C115.064 21.3513 114.863 21.053 114.726 20.7241C114.588 20.3953 114.516 20.0423 114.514 19.6854C114.511 19.6273 114.511 19.569 114.514 19.5109V19.2782C114.458 18.549 114.687 17.8266 115.153 17.2653C115.619 16.704 116.284 16.3484 117.007 16.2747H117.224C117.968 16.2804 118.68 16.583 119.203 17.1161C119.726 17.6491 120.017 18.3691 120.014 19.1182V19.2782L120.021 19.3Z" fill="#F05D4E"/>
<path d="M28.2438 13.7946C28.2457 14.0275 28.2017 14.2585 28.1142 14.4742C28.0267 14.6899 27.8976 14.886 27.7342 15.051C27.5709 15.2161 27.3766 15.3469 27.1626 15.4358C26.9486 15.5247 26.7193 15.57 26.4878 15.569C26.0915 15.5738 25.7059 15.4402 25.3966 15.1909L25.1292 14.9145L14.4556 4.57306L3.68084 15.0236L3.60135 15.1036C3.27314 15.3718 2.86008 15.5124 2.43747 15.4998C2.01486 15.4871 1.61083 15.3221 1.29901 15.0347C0.987202 14.7474 0.788368 14.3569 0.73875 13.9343C0.689133 13.5118 0.792036 13.0854 1.02871 12.7328L1.38281 12.3546L3.1244 10.6674L6.6365 7.26387L11.9263 2.12951L13.2199 0.885916C13.3817 0.721882 13.5743 0.591698 13.7864 0.50286C13.9984 0.414022 14.2259 0.368286 14.4556 0.368286C14.6853 0.368286 14.9128 0.414022 15.1249 0.50286C15.3369 0.591698 15.5295 0.721882 15.6913 0.885916L16.9777 2.12951L27.5429 12.3764L27.8536 12.6673C28.1081 12.9847 28.2482 13.3795 28.2511 13.7873" fill="#F05D4E"/>
<path d="M14.5996 26.3027L20.8939 23.1683V12.1359L24.6517 15.7067L24.7529 25.4155L14.6357 30.6807L14.5996 26.3027Z" fill="#111A41"/>
<path d="M14.3039 26.3027L8.02401 23.1683V12.1359L4.27344 15.7067L4.16504 25.4155L14.2822 30.6807L14.3039 26.3027Z" fill="#111A41"/>
</svg>
