<svg id="Layer_1" data-name="Layer 1" xmlns="http://www.w3.org/2000/svg" viewBox="0 0 840.09 176.26"><defs><style>.cls-1{fill:#333;}</style></defs><title>Movido-logo</title><path class="cls-1" d="M300.64,408.08V340.6q0-12.59-3.45-18.89t-10.9-6.3q-9.85,0-14.46,8.43t-4.6,26.4v57.84H224.29V340.6q0-12.59-3.29-18.89t-10.62-6.3q-10.08,0-14.68,9t-4.6,29.36v54.33H148.27V284h32.31L186,299.3h2.52a32,32,0,0,1,14.29-13,48.78,48.78,0,0,1,21.31-4.49q26.84,0,37.68,16.32h3.4a35.21,35.21,0,0,1,14.62-12,48.74,48.74,0,0,1,20.65-4.32q22,0,32.54,11.28t10.51,34.29v80.73Z" transform="translate(-148.27 -234.02)"/><path class="cls-1" d="M548.1,408.08,500.78,284h44.69l21,73.39c.07.37.21,1,.43,1.87s.44,1.91.66,3.12.42,2.48.6,3.83a27.17,27.17,0,0,1,.28,3.78h.76a43.8,43.8,0,0,1,2-12.38l22-73.61h44.59L590.5,408.08Z" transform="translate(-148.27 -234.02)"/><path class="cls-1" d="M651.73,253.08q0-9.65,5.37-14.35T674.41,234q11.94,0,17.41,4.82t5.48,14.24q0,18.84-22.89,18.84Q651.73,271.92,651.73,253.08Zm43.93,155H652.83V284h42.83Z" transform="translate(-148.27 -234.02)"/><path class="cls-1" d="M764.12,410.27A37.1,37.1,0,0,1,741,402.71q-9.93-7.54-15.34-22.23t-5.42-34.29q0-30.24,12.16-47.32t33.41-17.09A38.41,38.41,0,0,1,784,285.94q7.83,4.17,14.29,14h.88a205.34,205.34,0,0,1-2.08-29.14V237.63h43.16V408.08H807.94l-9.2-15.66H797.1Q786,410.27,764.12,410.27Zm17.53-33.85q10.29,0,14.52-6.46T800.71,350v-3.39q0-16.44-4.71-23.39t-14.79-7q-8.43,0-13.09,8t-4.65,22.62q0,14.46,4.71,22A15,15,0,0,0,781.65,376.42Z" transform="translate(-148.27 -234.02)"/><path class="cls-1" d="M411.75,359.55a84.09,84.09,0,0,1-1-13.8q0-16,4.28-24t14.13-8q10.08,0,14.24,8.1c.16.31.31.63.46,1l24.94-28.63a54.25,54.25,0,0,0-6.89-4.53q-14-7.79-32.31-7.78-29.58,0-46,16.81t-16.37,47.16q0,29.12,16.08,46.43Z" transform="translate(-148.27 -234.02)"/><path class="cls-1" d="M483.53,311.85a56.38,56.38,0,0,0-5.87-9L447.24,337.8c.2,2.47.3,5.11.3,7.95q0,16-4.11,24.37t-14.07,8.38q-8.3,0-12.64-5.66l-23.93,27.47q14.76,10,36.13,10,29.46,0,45.84-17t16.38-47.49Q491.14,326.37,483.53,311.85Z" transform="translate(-148.27 -234.02)"/><path class="cls-1" d="M908.65,357.37a88.7,88.7,0,0,1-.69-11.62q0-16,4.27-24t14.13-8q9.66,0,13.88,7.45l24.4-28a54.18,54.18,0,0,0-5.53-3.54q-14-7.79-32.31-7.78-29.58,0-46,16.81t-16.37,47.16q0,28.08,14.95,45.18Z" transform="translate(-148.27 -234.02)"/><path class="cls-1" d="M980.75,311.85a55.65,55.65,0,0,0-6.93-10.29l-29.58,33.95a93.94,93.94,0,0,1,.52,10.24q0,16-4.11,24.37t-14.07,8.38q-9.27,0-13.62-7.09l-24.33,27.93q15.14,10.92,37.51,10.93,29.46,0,45.84-17t16.38-47.49Q988.36,326.37,980.75,311.85Z" transform="translate(-148.27 -234.02)"/></svg>