<svg xmlns="http://www.w3.org/2000/svg" viewBox="0 0 323.95 89.08"><title>logo_byou</title><g id="8a1aa61b-ee4b-4a99-92d4-b8845256c5c3" data-name="Calque 2"><g id="f5e33c59-9c51-4a2d-b7d5-82b7ac4950e2" data-name="Calque 1"><path d="M209,0a43.4,43.4,0,0,1,17.32,3.5A45,45,0,0,1,250.1,27.3a43.49,43.49,0,0,1,3.48,17.34A43.45,43.45,0,0,1,250.09,62a44.52,44.52,0,0,1-9.58,14.11,45.69,45.69,0,0,1-14.18,9.51A44.46,44.46,0,0,1,168.06,62a43.26,43.26,0,0,1-3.49-17.33,43.3,43.3,0,0,1,3.49-17.33,45.63,45.63,0,0,1,9.51-14.18,44.07,44.07,0,0,1,14.11-9.59A43.44,43.44,0,0,1,209,0M186.78,44.76a21.57,21.57,0,0,0,1.76,8.67,22.68,22.68,0,0,0,11.94,11.94,22.28,22.28,0,0,0,24.46-4.82,22.75,22.75,0,0,0,4.82-7.12,22.26,22.26,0,0,0,0-17.34A22.88,22.88,0,0,0,224.94,29a22.53,22.53,0,0,0-7.14-4.82,22.29,22.29,0,0,0-17.32,0,22.68,22.68,0,0,0-11.94,11.94,21.57,21.57,0,0,0-1.76,8.67M156.45,3.12a10.77,10.77,0,0,1,3,7.83V24.5a31.37,31.37,0,0,1-2.1,11.14,29.87,29.87,0,0,1-6.15,10,31.93,31.93,0,0,1-9.85,7.2,23.35,23.35,0,0,1-2.16.92v24.4A10.32,10.32,0,0,1,135.94,86a11.24,11.24,0,0,1-8.09,3.08,10.53,10.53,0,0,1-10.91-10.14q0-.39,0-.77V53.84a18.8,18.8,0,0,1-2.3-1A30.83,30.83,0,0,1,98.8,35.64a32,32,0,0,1-2.09-11.18V10.95a10.75,10.75,0,0,1,3-7.83A10.6,10.6,0,0,1,107.61,0a12,12,0,0,1,8,2.8q3.33,2.79,3.33,8.1V24.5a8.68,8.68,0,0,0,.84,3.91A8.29,8.29,0,0,0,122,31.2a10.24,10.24,0,0,0,2.92,1.69,8.8,8.8,0,0,0,3.06.56,9.76,9.76,0,0,0,3.07-.56,9.15,9.15,0,0,0,3-1.68,9.85,9.85,0,0,0,2.24-2.79,8.19,8.19,0,0,0,.9-3.91V10.95q0-5.31,3.29-8.11a12,12,0,0,1,8-2.8,10.57,10.57,0,0,1,7.9,3.08M69.6,53a32.83,32.83,0,0,0-3.16-6.38,28.35,28.35,0,0,0-4.33-5.15,30.81,30.81,0,0,0-4.63-3.62,35.4,35.4,0,0,0,3.83-6.2,18.75,18.75,0,0,0,1.76-8.43A19.64,19.64,0,0,0,60.2,12.38,22.3,22.3,0,0,0,52.76,5.2a34.4,34.4,0,0,0-10.24-4A53,53,0,0,0,31.06,0H12.49a13.08,13.08,0,0,0-8.8,3A9.86,9.86,0,0,0,0,10.46v69.1a8.08,8.08,0,0,0,3.61,6.9A14.79,14.79,0,0,0,12.49,89H31.06a74.72,74.72,0,0,0,12.65-1.19,42.3,42.3,0,0,0,13-4.45,30.33,30.33,0,0,0,10.16-8.85Q70.94,69,70.94,60.19A20.33,20.33,0,0,0,69.66,53M21.77,16.64H35.56a5.26,5.26,0,0,1,2.53.59,6.31,6.31,0,0,1,1.8,1.44,5.86,5.86,0,0,1,1.05,1.92,6.38,6.38,0,0,1,.37,2,5.83,5.83,0,0,1-.37,2,6.65,6.65,0,0,1-1.08,1.89,5.28,5.28,0,0,1-1.8,1.44,5.61,5.61,0,0,1-2.53.54H21.77ZM46.94,61.29a10.45,10.45,0,0,1-1.68,2.93,8.26,8.26,0,0,1-2.8,2.24,8.66,8.66,0,0,1-3.91.84H22.18V49H38.57a8.08,8.08,0,0,1,3.91.91,9.61,9.61,0,0,1,2.8,2.24,9.09,9.09,0,0,1,1.68,3,9.82,9.82,0,0,1,.56,3.07A9,9,0,0,1,47,61.3M88.24,89a12.26,12.26,0,0,1-4.49-.82A12,12,0,0,1,80.09,86a10.77,10.77,0,0,1-2.58-3.27,9.11,9.11,0,0,1-1-4.19A9.25,9.25,0,0,1,78.35,73a13.18,13.18,0,0,1,2.08-2.24,10.25,10.25,0,0,1-1.63-1.94,11,11,0,0,1-1.17-2.45,7.81,7.81,0,0,1-.47-2.67,8.62,8.62,0,0,1,.94-4,10.07,10.07,0,0,1,2.41-3.11,11.72,11.72,0,0,1,3.43-2,12.09,12.09,0,0,1,8.47,0,11.68,11.68,0,0,1,3.53,2,10.08,10.08,0,0,1,2.44,3.14,8.75,8.75,0,0,1,1,4,8.5,8.5,0,0,1-.85,3.65,10,10,0,0,1-2.34,3.16,12,12,0,0,1-3.67,2.22h0l5.7,4.46,4-3.27a3,3,0,0,1,2-.71,2.76,2.76,0,0,1,2.93,2.58q0,.12,0,.24a2.86,2.86,0,0,1-.64,1.77,1.53,1.53,0,0,1-.29.3l0,.05h0L102.84,81l3.41,2.8h0a2.81,2.81,0,0,1-1.94,4.94,3,3,0,0,1-2-.71l-4.18-3.35c-.68.52-1.33,1-1.92,1.38a24.12,24.12,0,0,1-2.8,1.63,13.56,13.56,0,0,1-2.61,1,11.12,11.12,0,0,1-2.56.31m-3.14-14.6a6.79,6.79,0,0,0-1.81,1.58,4,4,0,0,0-.93,2.55,3.91,3.91,0,0,0,.41,1.79,4.89,4.89,0,0,0,1.12,1.56,6.2,6.2,0,0,0,1.89,1.09,6.77,6.77,0,0,0,2.4.41,5.9,5.9,0,0,0,2.9-.87A27.08,27.08,0,0,0,93.47,81Zm3.14-14.9a6.3,6.3,0,0,0-2.2.37,5,5,0,0,0-1.65,1,4,4,0,0,0-1,1.34,3.67,3.67,0,0,0-.36,1.62,3.55,3.55,0,0,0,.33,1.58,3.9,3.9,0,0,0,1,1.29,5.68,5.68,0,0,0,1.7,1,6.86,6.86,0,0,0,2.24.42,5.89,5.89,0,0,0,2.1-.36,5.3,5.3,0,0,0,1.65-1,3.9,3.9,0,0,0,1-1.34,3.71,3.71,0,0,0,0-3.24,4,4,0,0,0-1-1.34,5.42,5.42,0,0,0-1.65-1,6.08,6.08,0,0,0-2.13-.36m0,29.5a12.26,12.26,0,0,1-4.49-.82,12,12,0,0,1-3.66-2.19,10.77,10.77,0,0,1-2.58-3.27,9.11,9.11,0,0,1-1-4.19A9.25,9.25,0,0,1,78.43,73a13.18,13.18,0,0,1,2.08-2.24,10.25,10.25,0,0,1-1.63-1.94,11,11,0,0,1-1.17-2.45,7.81,7.81,0,0,1-.47-2.67,8.62,8.62,0,0,1,.94-4,10.07,10.07,0,0,1,2.33-3,11.72,11.72,0,0,1,3.43-2,12.09,12.09,0,0,1,8.47,0,11.68,11.68,0,0,1,3.53,2,10.08,10.08,0,0,1,2.44,3.14,8.75,8.75,0,0,1,1,4,8.5,8.5,0,0,1-.85,3.65,10,10,0,0,1-2.34,3.16,12,12,0,0,1-3.67,2.22h0l5.7,4.46,4-3.27a3,3,0,0,1,2-.71,2.76,2.76,0,0,1,2.93,2.58q0,.12,0,.24a2.86,2.86,0,0,1-.64,1.77,1.53,1.53,0,0,1-.29.3l0,.05h0L102.84,81l3.41,2.8h0a2.81,2.81,0,0,1-1.94,4.94,3,3,0,0,1-2-.71l-4.18-3.35c-.68.52-1.33,1-1.92,1.38a24.12,24.12,0,0,1-2.8,1.63,13.56,13.56,0,0,1-2.61,1,11.12,11.12,0,0,1-2.56.31m-3.14-14.6a6.79,6.79,0,0,0-1.81,1.58,4,4,0,0,0-.93,2.55,3.91,3.91,0,0,0,.41,1.79,4.89,4.89,0,0,0,1.12,1.56,6.2,6.2,0,0,0,1.89,1.09,6.77,6.77,0,0,0,2.4.41,5.9,5.9,0,0,0,2.9-.87A27.08,27.08,0,0,0,93.47,81Zm3.14-14.9a6.3,6.3,0,0,0-2.2.37,5,5,0,0,0-1.65,1,4,4,0,0,0-1,1.34,3.67,3.67,0,0,0-.36,1.62,3.55,3.55,0,0,0,.33,1.58,3.9,3.9,0,0,0,1,1.29,5.68,5.68,0,0,0,1.7,1,6.86,6.86,0,0,0,2.24.42,5.89,5.89,0,0,0,2.1-.36,5.3,5.3,0,0,0,1.65-1,3.9,3.9,0,0,0,1-1.34,3.71,3.71,0,0,0,0-3.24,4,4,0,0,0-1-1.34,5.42,5.42,0,0,0-1.65-1,6.08,6.08,0,0,0-2.13-.36m204.13,7.44a9.72,9.72,0,0,0,3.07-.56,9.15,9.15,0,0,0,3-1.68,9.77,9.77,0,0,0,2.24-2.8,8.19,8.19,0,0,0,.9-3.91V11.09q0-5.31,3.29-8.11a12,12,0,0,1,8-2.79,10.54,10.54,0,0,1,8,3.07,10.75,10.75,0,0,1,3,7.83V57.9a31.39,31.39,0,0,1-2.1,11.18,29.87,29.87,0,0,1-6.15,10,32,32,0,0,1-9.85,7.2,33.22,33.22,0,0,1-26.68,0,30.78,30.78,0,0,1-15.92-17.2,32,32,0,0,1-2.09-11.18V11.09a10.74,10.74,0,0,1,3-7.83A10.57,10.57,0,0,1,272.06.19a12,12,0,0,1,8,2.79q3.28,2.8,3.27,8.11V57.9a8.65,8.65,0,0,0,.84,3.91,8.26,8.26,0,0,0,2.24,2.8,10.23,10.23,0,0,0,2.94,1.68,8.76,8.76,0,0,0,3.06.56" fill="#009dcc"/></g></g></svg>