<svg
   xmlns:dc="http://purl.org/dc/elements/1.1/"
   xmlns:cc="http://creativecommons.org/ns#"
   xmlns:rdf="http://www.w3.org/1999/02/22-rdf-syntax-ns#"
   xmlns:svg="http://www.w3.org/2000/svg"
   xmlns="http://www.w3.org/2000/svg"
   xmlns:sodipodi="http://sodipodi.sourceforge.net/DTD/sodipodi-0.dtd"
   xmlns:inkscape="http://www.inkscape.org/namespaces/inkscape"
   id="svg2"
   version="1.1"
   inkscape:version="0.91 r13725"
   xml:space="preserve"
   width="700"
   height="264"
   viewBox="0 0 700 264"
   sodipodi:docname="Logo Coriolis Telecom.svg"><metadata
     id="metadata8"><rdf:RDF><cc:Work
         rdf:about=""><dc:format>image/svg+xml</dc:format><dc:type
           rdf:resource="http://purl.org/dc/dcmitype/StillImage" /><dc:title></dc:title></cc:Work></rdf:RDF></metadata><defs
     id="defs6"><radialGradient
       fx="0"
       fy="0"
       cx="0"
       cy="0"
       r="1"
       gradientUnits="userSpaceOnUse"
       gradientTransform="matrix(68.015824,0,0,-68.015824,44.429755,384.26955)"
       spreadMethod="pad"
       id="radialGradient24"><stop
         style="stop-opacity:1;stop-color:#02a7ea"
         offset="0"
         id="stop26" /><stop
         style="stop-opacity:1;stop-color:#1575c5"
         offset="0.346558"
         id="stop28" /><stop
         style="stop-opacity:1;stop-color:#0e467b"
         offset="0.75266475"
         id="stop30" /><stop
         style="stop-opacity:1;stop-color:#0e467b"
         offset="1"
         id="stop32" /></radialGradient><radialGradient
       fx="0"
       fy="0"
       cx="0"
       cy="0"
       r="1"
       gradientUnits="userSpaceOnUse"
       gradientTransform="matrix(68.018444,0,0,-68.018444,44.429755,384.26728)"
       spreadMethod="pad"
       id="radialGradient48"><stop
         style="stop-opacity:1;stop-color:#02a7ea"
         offset="0"
         id="stop50" /><stop
         style="stop-opacity:1;stop-color:#1575c5"
         offset="0.346558"
         id="stop52" /><stop
         style="stop-opacity:1;stop-color:#0e467b"
         offset="0.75266475"
         id="stop54" /><stop
         style="stop-opacity:1;stop-color:#0e467b"
         offset="1"
         id="stop56" /></radialGradient><radialGradient
       fx="0"
       fy="0"
       cx="0"
       cy="0"
       r="1"
       gradientUnits="userSpaceOnUse"
       gradientTransform="matrix(68.016822,0,0,-68.016822,44.429755,384.27001)"
       spreadMethod="pad"
       id="radialGradient72"><stop
         style="stop-opacity:1;stop-color:#02a7ea"
         offset="0"
         id="stop74" /><stop
         style="stop-opacity:1;stop-color:#1575c5"
         offset="0.346558"
         id="stop76" /><stop
         style="stop-opacity:1;stop-color:#0e467b"
         offset="0.75266475"
         id="stop78" /><stop
         style="stop-opacity:1;stop-color:#0e467b"
         offset="1"
         id="stop80" /></radialGradient><radialGradient
       fx="0"
       fy="0"
       cx="0"
       cy="0"
       r="1"
       gradientUnits="userSpaceOnUse"
       gradientTransform="matrix(68.017347,0,0,-68.017347,44.429528,384.26728)"
       spreadMethod="pad"
       id="radialGradient96"><stop
         style="stop-opacity:1;stop-color:#02a7ea"
         offset="0"
         id="stop98" /><stop
         style="stop-opacity:1;stop-color:#1575c5"
         offset="0.346558"
         id="stop100" /><stop
         style="stop-opacity:1;stop-color:#0e467b"
         offset="0.75266475"
         id="stop102" /><stop
         style="stop-opacity:1;stop-color:#0e467b"
         offset="1"
         id="stop104" /></radialGradient><radialGradient
       fx="0"
       fy="0"
       cx="0"
       cy="0"
       r="1"
       gradientUnits="userSpaceOnUse"
       gradientTransform="matrix(68.017021,0,0,-68.017021,44.429528,384.27001)"
       spreadMethod="pad"
       id="radialGradient120"><stop
         style="stop-opacity:1;stop-color:#02a7ea"
         offset="0"
         id="stop122" /><stop
         style="stop-opacity:1;stop-color:#1575c5"
         offset="0.346558"
         id="stop124" /><stop
         style="stop-opacity:1;stop-color:#0e467b"
         offset="0.75266475"
         id="stop126" /><stop
         style="stop-opacity:1;stop-color:#0e467b"
         offset="1"
         id="stop128" /></radialGradient><radialGradient
       fx="0"
       fy="0"
       cx="0"
       cy="0"
       r="1"
       gradientUnits="userSpaceOnUse"
       gradientTransform="matrix(68.01676,0,0,-68.01676,44.429906,384.27008)"
       spreadMethod="pad"
       id="radialGradient144"><stop
         style="stop-opacity:1;stop-color:#02a7ea"
         offset="0"
         id="stop146" /><stop
         style="stop-opacity:1;stop-color:#1575c5"
         offset="0.346558"
         id="stop148" /><stop
         style="stop-opacity:1;stop-color:#0e467b"
         offset="0.75266475"
         id="stop150" /><stop
         style="stop-opacity:1;stop-color:#0e467b"
         offset="1"
         id="stop152" /></radialGradient><radialGradient
       fx="0"
       fy="0"
       cx="0"
       cy="0"
       r="1"
       gradientUnits="userSpaceOnUse"
       gradientTransform="matrix(68.015445,0,0,-68.015445,44.43142,384.2691)"
       spreadMethod="pad"
       id="radialGradient168"><stop
         style="stop-opacity:1;stop-color:#02a7ea"
         offset="0"
         id="stop170" /><stop
         style="stop-opacity:1;stop-color:#1575c5"
         offset="0.346558"
         id="stop172" /><stop
         style="stop-opacity:1;stop-color:#0e467b"
         offset="0.75266475"
         id="stop174" /><stop
         style="stop-opacity:1;stop-color:#0e467b"
         offset="1"
         id="stop176" /></radialGradient><radialGradient
       fx="0"
       fy="0"
       cx="0"
       cy="0"
       r="1"
       gradientUnits="userSpaceOnUse"
       gradientTransform="matrix(68.015464,0,0,-68.015464,44.43036,384.26955)"
       spreadMethod="pad"
       id="radialGradient192"><stop
         style="stop-opacity:1;stop-color:#02a7ea"
         offset="0"
         id="stop194" /><stop
         style="stop-opacity:1;stop-color:#1575c5"
         offset="0.346558"
         id="stop196" /><stop
         style="stop-opacity:1;stop-color:#0e467b"
         offset="0.75266475"
         id="stop198" /><stop
         style="stop-opacity:1;stop-color:#0e467b"
         offset="1"
         id="stop200" /></radialGradient><radialGradient
       fx="0"
       fy="0"
       cx="0"
       cy="0"
       r="1"
       gradientUnits="userSpaceOnUse"
       gradientTransform="matrix(68.016585,0,0,-68.016585,44.429906,384.2694)"
       spreadMethod="pad"
       id="radialGradient216"><stop
         style="stop-opacity:1;stop-color:#02a7ea"
         offset="0"
         id="stop218" /><stop
         style="stop-opacity:1;stop-color:#1575c5"
         offset="0.346558"
         id="stop220" /><stop
         style="stop-opacity:1;stop-color:#0e467b"
         offset="0.75266475"
         id="stop222" /><stop
         style="stop-opacity:1;stop-color:#0e467b"
         offset="1"
         id="stop224" /></radialGradient><radialGradient
       fx="0"
       fy="0"
       cx="0"
       cy="0"
       r="1"
       gradientUnits="userSpaceOnUse"
       gradientTransform="matrix(68.01625,0,0,-68.01625,44.43036,384.2694)"
       spreadMethod="pad"
       id="radialGradient240"><stop
         style="stop-opacity:1;stop-color:#02a7ea"
         offset="0"
         id="stop242" /><stop
         style="stop-opacity:1;stop-color:#1575c5"
         offset="0.346558"
         id="stop244" /><stop
         style="stop-opacity:1;stop-color:#0e467b"
         offset="0.75266475"
         id="stop246" /><stop
         style="stop-opacity:1;stop-color:#0e467b"
         offset="1"
         id="stop248" /></radialGradient></defs><sodipodi:namedview
     pagecolor="#ffffff"
     bordercolor="#666666"
     borderopacity="1"
     objecttolerance="10"
     gridtolerance="10"
     guidetolerance="10"
     inkscape:pageopacity="0"
     inkscape:pageshadow="2"
     inkscape:window-width="1440"
     inkscape:window-height="788"
     id="namedview4"
     showgrid="false"
     inkscape:zoom="2.1056709"
     inkscape:cx="147.24641"
     inkscape:cy="246.75182"
     inkscape:window-x="0"
     inkscape:window-y="1"
     inkscape:window-maximized="1"
     inkscape:current-layer="g10" /><g
     id="g10"
     inkscape:groupmode="layer"
     inkscape:label="Logo"
     transform="matrix(1.25,0,0,-1.25,0,263.99997)"><g
       id="g4596"
       transform="matrix(6.235733,0,0,6.235733,-141.40772,-2263.8654)"><g
         id="g4584"><path
           d="m 22.677,385.136 c 0,-5.885 4.818,-10.656 10.761,-10.656 l 0,0 c 2.136,0 4.124,0.619 5.798,1.682 l 0,0 c -1.314,0.76 -2.399,1.811 -3.179,3.085 l 0,0 c -0.791,-0.419 -1.68,-0.654 -2.619,-0.654 l 0,0 c -3.317,0 -6.006,2.929 -6.006,6.543 l 0,0 c 0,3.614 2.689,6.543 6.006,6.543 l 0,0 c 1.298,0 2.5,-0.451 3.483,-1.215 l 0,0 c 0.989,1.125 2.268,1.999 3.76,2.551 l 0,0 c -1.912,1.725 -4.453,2.775 -7.243,2.775 l 0,0 c -5.943,0 -10.761,-4.77 -10.761,-10.654"
           style="fill:url(#radialGradient24);stroke:none"
           id="path34"
           inkscape:connector-curvature="0" /><path
           d="m 63.997,395.914 0,-3.21 4.282,0 0,4.139 c -0.04,0 -0.166,0.007 -0.362,0.007 l 0,0 c -0.694,0 -2.261,-0.092 -3.92,-0.936"
           style="fill:url(#radialGradient48);stroke:none"
           id="path58"
           inkscape:connector-curvature="0" /><path
           d="m 63.997,377.415 4.282,0 0,13.657 -4.282,0 0,-13.657 z"
           style="fill:url(#radialGradient72);stroke:none"
           id="path82"
           inkscape:connector-curvature="0" /><path
           d="m 94.307,395.914 0,-3.21 4.282,0 0,4.139 c -0.04,0 -0.167,0.007 -0.362,0.007 l 0,0 c -0.695,0 -2.262,-0.092 -3.92,-0.936"
           style="fill:url(#radialGradient96);stroke:none"
           id="path106"
           inkscape:connector-curvature="0" /><path
           d="m 94.307,377.415 4.282,0 0,13.657 -4.282,0 0,-13.657 z"
           style="fill:url(#radialGradient120);stroke:none"
           id="path130"
           inkscape:connector-curvature="0" /><path
           d="m 86.973,395.914 0,-18.499 4.282,0 0,19.428 c -0.04,0 -0.166,0.007 -0.362,0.007 l 0,0 c -0.694,0 -2.261,-0.092 -3.92,-0.936"
           style="fill:url(#radialGradient144);stroke:none"
           id="path154"
           inkscape:connector-curvature="0" /><path
           d="m 101.144,386.919 c 0,-1.859 0.823,-3.056 3.599,-3.965 l 0,0 c 2.044,-0.666 3.71,-0.69 3.71,-1.714 l 0,0 c 0,-0.741 -0.637,-0.959 -1.496,-0.959 l 0,0 c -1.319,0 -3.065,0.44 -4.798,1.53 l 0,0 -1.614,-2.79 c 2.1,-1.449 4.433,-1.925 6.386,-1.925 l 0,0 c 3.476,0 5.551,1.711 5.551,4.53 l 0,0 c 0,2.489 -1.795,3.446 -4.91,4.319 l 0,0 c -1.74,0.521 -2.425,0.708 -2.425,1.45 l 0,0 c 0,0.41 0.314,0.817 1.391,0.817 l 0,0 c 0.966,0 2.489,-0.375 4.095,-1.226 l 0,0 1.484,2.914 c -1.73,1.056 -3.805,1.496 -5.54,1.496 l 0,0 c -3.049,0 -5.433,-1.554 -5.433,-4.477"
           style="fill:url(#radialGradient168);stroke:none"
           id="path178"
           inkscape:connector-curvature="0" /><path
           d="m 57.186,389.29 c -0.325,0.673 -0.877,1.434 -1.213,1.773 l 0,0 c -2.028,-0.702 -3.145,-1.931 -3.145,-1.931 l 0,0 c 0.925,-1.432 1.337,-2.696 1.337,-4.611 l 0,0 0,-7.105 4.29,0 0,6.581 c 0,2.905 2.668,3.726 3.902,3.556 l 0,0 0,3.534 c -0.034,0 -0.144,0.006 -0.314,0.006 l 0,0 c -0.806,0 -2.964,-0.145 -4.857,-1.803"
           style="fill:url(#radialGradient192);stroke:none"
           id="path202"
           inkscape:connector-curvature="0" /><path
           d="m 37.067,384.297 c 0,-4.176 3.139,-7.207 7.473,-7.207 l 0,0 c 4.335,0 7.473,3.031 7.473,7.207 l 0,0 c 0,4.113 -3.138,7.099 -7.473,7.099 l 0,0 c -4.334,0 -7.473,-2.986 -7.473,-7.099 m 4.121,0 c 0,1.78 1.145,3.582 3.352,3.582 l 0,0 c 2.208,0 3.353,-1.802 3.353,-3.582 l 0,0 c 0,-2.387 -1.696,-3.636 -3.353,-3.636 l 0,0 c -1.657,0 -3.352,1.249 -3.352,3.636"
           style="fill:url(#radialGradient216);stroke:none"
           id="path226"
           inkscape:connector-curvature="0" /><path
           d="m 70.154,384.297 c 0,-4.176 3.138,-7.207 7.472,-7.207 l 0,0 c 4.335,0 7.473,3.031 7.473,7.207 l 0,0 c 0,4.113 -3.138,7.099 -7.473,7.099 l 0,0 c -4.334,0 -7.472,-2.986 -7.472,-7.099 m 4.119,0 c 0,1.78 1.146,3.582 3.353,3.582 l 0,0 c 2.208,0 3.353,-1.802 3.353,-3.582 l 0,0 c 0,-2.387 -1.695,-3.636 -3.353,-3.636 l 0,0 c -1.657,0 -3.353,1.249 -3.353,3.636"
           style="fill:url(#radialGradient240);stroke:none"
           id="path250"
           inkscape:connector-curvature="0" /></g><g
         id="g4575"><path
           inkscape:connector-curvature="0"
           id="path254"
           style="fill:#0b8ed8;fill-opacity:1;fill-rule:nonzero;stroke:none"
           d="m 58.4316,373.2237 0,-1.167 3.142,0 0,-8.837 1.225,0 0,8.837 3.143,0 0,1.167 -7.51,0 z" /><path
           inkscape:connector-curvature="0"
           id="path266"
           style="fill:#0b8ed8;fill-opacity:1;fill-rule:nonzero;stroke:none"
           d="m 70.9568,367.7032 c -0.303,1.211 -1.312,2.018 -2.393,2.018 -1.023,0 -2.104,-0.75 -2.421,-2.018 l 4.814,0 z m 1.182,-2.177 c -0.519,-1.585 -1.787,-2.479 -3.503,-2.479 -2.133,0 -3.805,1.701 -3.805,3.877 0,2.149 1.672,3.907 3.733,3.907 1.917,0 3.762,-1.585 3.748,-4.224 l -6.241,0 c 0.158,-1.542 1.34,-2.45 2.565,-2.45 1.053,0 1.802,0.504 2.205,1.369 l 1.298,0 z" /><path
           d="m 74.964,363.221 -1.225,0 0,10.724 1.225,0 0,-10.724 z"
           style="fill:#0b8ed8;fill-opacity:1;fill-rule:nonzero;stroke:none"
           id="path268"
           inkscape:connector-curvature="0" /><path
           inkscape:connector-curvature="0"
           id="path272"
           style="fill:#0b8ed8;fill-opacity:1;fill-rule:nonzero;stroke:none"
           d="m 82.5005,367.7032 c -0.303,1.211 -1.311,2.018 -2.393,2.018 -1.023,0 -2.104,-0.75 -2.421,-2.018 l 4.814,0 z m 1.182,-2.177 c -0.519,-1.585 -1.787,-2.479 -3.503,-2.479 -2.132,0 -3.805,1.701 -3.805,3.877 0,2.149 1.673,3.907 3.733,3.907 1.917,0 3.762,-1.585 3.748,-4.224 l -6.241,0 c 0.158,-1.542 1.34,-2.45 2.565,-2.45 1.053,0 1.802,0.504 2.206,1.369 l 1.297,0 z" /><path
           inkscape:connector-curvature="0"
           id="path276"
           style="fill:#0b8ed8;fill-opacity:1;fill-rule:nonzero;stroke:none"
           d="m 88.4706,363.0475 c -2.047,0 -3.719,1.73 -3.719,3.877 0,2.148 1.672,3.906 3.719,3.906 1.658,0 2.955,-0.979 3.459,-2.479 l -1.312,0 c -0.417,0.808 -1.181,1.355 -2.147,1.355 -1.369,0 -2.494,-1.254 -2.494,-2.782 0,-1.528 1.125,-2.753 2.494,-2.753 0.98,0 1.744,0.548 2.147,1.355 l 1.312,0 c -0.489,-1.499 -1.801,-2.479 -3.459,-2.479" /><path
           inkscape:connector-curvature="0"
           id="path280"
           style="fill:#0b8ed8;fill-opacity:1;fill-rule:nonzero;stroke:none"
           d="m 98.9669,366.9102 c 0,1.543 -1.124,2.796 -2.508,2.796 -1.369,0 -2.494,-1.253 -2.494,-2.796 0,-1.514 1.125,-2.738 2.494,-2.738 1.384,0 2.508,1.224 2.508,2.738 m 1.225,0 c 0,-2.133 -1.614,-3.863 -3.733,-3.863 -2.104,0 -3.733,1.73 -3.733,3.863 0,2.163 1.629,3.921 3.733,3.921 2.119,0 3.733,-1.758 3.733,-3.921" /><path
           inkscape:connector-curvature="0"
           id="path284"
           style="fill:#0b8ed8;fill-opacity:1;fill-rule:nonzero;stroke:none"
           d="m 112.1168,363.2207 -1.225,0 0,4.627 c 0,1.153 -0.548,1.859 -1.686,1.859 -1.01,0 -1.745,-0.836 -1.745,-1.946 l 0,-4.54 -1.211,0 0,4.627 c 0,1.153 -0.576,1.859 -1.672,1.859 -1.008,0 -1.758,-0.836 -1.758,-1.946 l 0,-4.54 -1.225,0 0,7.423 1.181,0 0,-0.807 c 0.462,0.62 1.154,0.994 1.975,0.994 1.053,0 1.831,-0.475 2.293,-1.268 0.461,0.764 1.253,1.268 2.32,1.268 1.715,0 2.753,-1.167 2.753,-3.012 l 0,-4.598 z" /></g></g></g></svg>
