<svg width="252" height="161" viewBox="0 0 252 161" fill="none" xmlns="http://www.w3.org/2000/svg">
<g filter="url(#filter0_dd)">
<path d="M24 18C24 12.4772 28.4772 8 34 8H233.304C238.827 8 243.304 12.4772 243.304 18V126.81C243.304 132.333 238.827 136.81 233.304 136.81H34C28.4772 136.81 24 132.333 24 126.81V18Z" fill="url(#paint0_linear)"/>
</g>
<path d="M193.05 34H183.95C182.873 34 182 34.8818 182 35.9688V53.0312C182 54.1182 182.873 55 183.95 55H193.05C194.127 55 195 54.1182 195 53.0312V35.9688C195 34.8818 194.127 34 193.05 34ZM188.5 53.6875C187.781 53.6875 187.2 53.101 187.2 52.375C187.2 51.649 187.781 51.0625 188.5 51.0625C189.219 51.0625 189.8 51.649 189.8 52.375C189.8 53.101 189.219 53.6875 188.5 53.6875Z" fill="white"/>
<path d="M164.832 37.4323L157.232 34.1507C157.001 34.0512 156.753 34 156.502 34C156.251 34 156.003 34.0512 155.772 34.1507L148.172 37.4323C147.463 37.7359 147 38.4537 147 39.2495C147 47.3919 151.532 53.0198 155.768 54.8493C156.235 55.0502 156.761 55.0502 157.228 54.8493C160.621 53.3849 166 48.3271 166 39.2495C166 38.4537 165.537 37.7359 164.832 37.4323ZM156.504 52.306L156.5 36.6776L163.463 39.6843C163.332 45.8947 160.213 50.3945 156.504 52.306Z" fill="white"/>
<path d="M119.821 52.6351C119.821 52.8931 119.895 53.1457 120.034 53.3606L120.713 54.4143C120.83 54.5944 120.987 54.7422 121.172 54.8443C121.357 54.9465 121.563 55 121.773 55H124.227C124.437 55 124.644 54.9465 124.828 54.8443C125.013 54.7422 125.171 54.5944 125.287 54.4143L125.967 53.3606C126.105 53.1457 126.18 52.8933 126.18 52.6351L126.181 51.0622H119.819L119.821 52.6351ZM116 41.2186C116 43.0385 116.654 44.6987 117.733 45.9673C118.39 46.7404 119.417 48.3556 119.809 49.7181C119.811 49.7288 119.812 49.7394 119.813 49.7501H126.187C126.188 49.7394 126.189 49.7292 126.191 49.7181C126.583 48.3556 127.61 46.7404 128.267 45.9673C129.346 44.6987 130 43.0385 130 41.2186C130 37.2242 126.854 33.9877 122.978 34C118.921 34.0127 116 37.403 116 41.2186ZM123 37.9375C121.246 37.9375 119.818 39.4095 119.818 41.2186C119.818 41.5812 119.533 41.8749 119.182 41.8749C118.83 41.8749 118.545 41.5812 118.545 41.2186C118.545 38.6856 120.544 36.625 123 36.625C123.352 36.625 123.636 36.9186 123.636 37.2812C123.636 37.6438 123.352 37.9375 123 37.9375Z" fill="white"/>
<path d="M99.7932 39.76C92.5957 32.0786 81.4014 32.0814 74.2067 39.76C73.9362 40.0487 73.9309 40.5377 74.1925 40.8372L75.5835 42.4295C75.833 42.7155 76.2343 42.7216 76.4935 42.4473C82.4215 36.1811 91.5776 36.1797 97.5068 42.4473C97.766 42.7216 98.1674 42.715 98.4168 42.4295L99.8078 40.8372C100.069 40.5377 100.064 40.0487 99.7932 39.76ZM87 49C85.5639 49 84.4 50.343 84.4 52C84.4 53.657 85.5639 55 87 55C88.4361 55 89.6 53.657 89.6 52C89.6 50.343 88.4361 49 87 49ZM95.2334 45.0817C90.551 40.3038 83.4437 40.3089 78.7665 45.0817C78.4862 45.3677 78.4772 45.8641 78.7433 46.1669L80.1425 47.7602C80.3862 48.0377 80.7787 48.0564 81.0383 47.7977C84.4487 44.3959 89.5589 44.4034 92.9613 47.7977C93.2209 48.0564 93.6133 48.0381 93.8571 47.7602L95.2562 46.1669C95.5227 45.8641 95.5134 45.3672 95.2334 45.0817Z" fill="white"/>
<path d="M168.564 115.158V109.54C168.564 108.841 168.463 108.317 168.262 107.967C168.062 107.617 167.744 107.443 167.31 107.443C166.737 107.443 166.316 107.676 166.048 108.144C165.779 108.612 165.645 109.345 165.646 110.342V115.158H161.895V109.54C161.895 108.841 161.8 108.317 161.608 107.967C161.416 107.617 161.107 107.443 160.681 107.443C160.094 107.443 159.666 107.692 159.398 108.192C159.131 108.691 158.997 109.506 158.997 110.636V115.159H155.256V104.827H158.078L158.551 106.101H158.771C159.06 105.627 159.496 105.249 160.019 105.019C160.602 104.762 161.239 104.634 161.881 104.645C163.443 104.645 164.54 105.098 165.172 106.004H165.468C165.791 105.566 166.232 105.221 166.745 105.005C167.312 104.761 167.927 104.638 168.549 104.645C169.83 104.645 170.777 104.958 171.391 105.584C172.005 106.21 172.311 107.162 172.309 108.439V115.16L168.564 115.158Z" fill="white"/>
<path d="M190.177 115.158L186.044 104.828H189.947L191.781 110.938C191.787 110.969 191.8 111.021 191.819 111.093C191.838 111.166 191.857 111.252 191.876 111.353C191.896 111.454 191.913 111.56 191.929 111.672C191.945 111.776 191.953 111.881 191.953 111.987H192.02C192.026 111.637 192.085 111.29 192.194 110.956L194.116 104.828H198.01L193.88 115.158H190.177Z" fill="white"/>
<path d="M199.228 102.252C199.228 101.716 199.384 101.318 199.697 101.057C200.009 100.797 200.513 100.665 201.208 100.664C201.904 100.664 202.41 100.797 202.729 101.065C203.047 101.332 203.207 101.728 203.208 102.25C203.208 103.296 202.541 103.819 201.208 103.819C199.888 103.82 199.228 103.298 199.228 102.252ZM203.064 115.157H199.324V104.826H203.064V115.157Z" fill="white"/>
<path d="M209.044 115.34C208.316 115.352 207.605 115.131 207.025 114.711C206.447 114.292 206 113.675 205.685 112.86C205.37 112.044 205.212 111.093 205.212 110.005C205.212 108.327 205.566 107.013 206.274 106.065C206.982 105.117 207.955 104.643 209.192 104.643C209.743 104.632 210.289 104.751 210.781 104.989C211.237 105.22 211.653 105.609 212.029 106.154H212.106C211.985 105.351 211.924 104.54 211.924 103.728V100.967H215.694V115.158H212.872L212.068 113.854H211.925C211.279 114.845 210.318 115.34 209.044 115.34ZM210.575 112.522C211.175 112.522 211.597 112.343 211.844 111.984C212.09 111.625 212.222 111.072 212.24 110.322V110.04C212.24 109.127 212.103 108.478 211.829 108.093C211.555 107.707 211.124 107.513 210.537 107.51C210.046 107.51 209.665 107.732 209.394 108.176C209.122 108.62 208.987 109.248 208.988 110.059C208.988 110.862 209.125 111.472 209.399 111.891C209.517 112.088 209.688 112.251 209.895 112.362C210.103 112.473 210.338 112.528 210.575 112.522Z" fill="white"/>
<path d="M178.268 111.117C178.206 110.737 178.177 110.352 178.181 109.968C178.181 109.08 178.306 108.414 178.555 107.97C178.804 107.526 179.215 107.304 179.789 107.304C180.376 107.304 180.79 107.528 181.033 107.978C181.047 108.004 181.06 108.031 181.073 108.061L183.251 105.678C183.061 105.538 182.86 105.412 182.649 105.301C181.834 104.868 180.893 104.652 179.827 104.653C178.105 104.653 176.766 105.119 175.81 106.052C174.854 106.985 174.377 108.294 174.38 109.979C174.38 111.595 174.848 112.883 175.784 113.844L178.268 111.117Z" fill="white"/>
<path d="M184.537 107.146C184.392 106.882 184.22 106.631 184.025 106.397L181.368 109.307C181.385 109.512 181.394 109.732 181.394 109.969C181.394 110.857 181.274 111.533 181.035 111.998C180.796 112.462 180.386 112.695 179.806 112.695C179.323 112.695 178.955 112.538 178.702 112.224L176.612 114.511C177.472 115.066 178.524 115.344 179.768 115.344C181.483 115.344 182.818 114.872 183.772 113.928C184.725 112.985 185.202 111.667 185.202 109.974C185.202 108.895 184.981 107.952 184.537 107.146Z" fill="white"/>
<path d="M221.667 110.935C221.625 110.614 221.604 110.291 221.607 109.968C221.607 109.08 221.731 108.414 221.98 107.97C222.228 107.526 222.64 107.303 223.214 107.303C223.776 107.303 224.18 107.51 224.426 107.924L226.557 105.593C226.402 105.485 226.241 105.387 226.074 105.298C225.259 104.866 224.318 104.65 223.252 104.65C221.53 104.65 220.191 105.117 219.234 106.05C218.278 106.983 217.802 108.291 217.805 109.976C217.805 111.535 218.24 112.788 219.11 113.737L221.667 110.935Z" fill="white"/>
<path d="M227.965 107.146C227.797 106.84 227.594 106.552 227.359 106.289L224.776 109.116C224.807 109.399 224.822 109.683 224.821 109.968C224.821 110.856 224.702 111.532 224.462 111.997C224.223 112.462 223.813 112.694 223.233 112.695C222.694 112.695 222.297 112.498 222.044 112.104L219.919 114.43C220.8 115.036 221.893 115.339 223.195 115.34C224.91 115.34 226.245 114.868 227.199 113.924C228.152 112.981 228.629 111.663 228.629 109.971C228.629 108.893 228.408 107.952 227.965 107.146Z" fill="white"/>
<path d="M102.987 82.136C102.987 81.352 103.145 80.666 103.463 80.078C103.78 79.4807 104.214 79.0187 104.765 78.692C105.325 78.3653 105.945 78.202 106.627 78.202C107.299 78.202 107.882 78.3467 108.377 78.636C108.871 78.9253 109.24 79.2893 109.483 79.728V78.328H110.771V86H109.483V84.572C109.231 85.02 108.853 85.3933 108.349 85.692C107.854 85.9813 107.275 86.126 106.613 86.126C105.931 86.126 105.315 85.958 104.765 85.622C104.214 85.286 103.78 84.8147 103.463 84.208C103.145 83.6013 102.987 82.9107 102.987 82.136ZM109.483 82.15C109.483 81.5713 109.366 81.0673 109.133 80.638C108.899 80.2087 108.582 79.882 108.181 79.658C107.789 79.4247 107.355 79.308 106.879 79.308C106.403 79.308 105.969 79.42 105.577 79.644C105.185 79.868 104.872 80.1947 104.639 80.624C104.405 81.0533 104.289 81.5573 104.289 82.136C104.289 82.724 104.405 83.2373 104.639 83.676C104.872 84.1053 105.185 84.4367 105.577 84.67C105.969 84.894 106.403 85.006 106.879 85.006C107.355 85.006 107.789 84.894 108.181 84.67C108.582 84.4367 108.899 84.1053 109.133 83.676C109.366 83.2373 109.483 82.7287 109.483 82.15ZM114.198 75.64V86H112.924V75.64H114.198ZM117.643 75.64V86H116.369V75.64H117.643ZM124.205 77.082C123.962 77.082 123.757 76.998 123.589 76.83C123.421 76.662 123.337 76.4567 123.337 76.214C123.337 75.9713 123.421 75.766 123.589 75.598C123.757 75.43 123.962 75.346 124.205 75.346C124.438 75.346 124.634 75.43 124.793 75.598C124.961 75.766 125.045 75.9713 125.045 76.214C125.045 76.4567 124.961 76.662 124.793 76.83C124.634 76.998 124.438 77.082 124.205 77.082ZM124.821 78.328V86H123.547V78.328H124.821ZM130.73 78.188C131.663 78.188 132.419 78.4727 132.998 79.042C133.577 79.602 133.866 80.414 133.866 81.478V86H132.606V81.66C132.606 80.8947 132.415 80.3113 132.032 79.91C131.649 79.4993 131.127 79.294 130.464 79.294C129.792 79.294 129.255 79.504 128.854 79.924C128.462 80.344 128.266 80.9553 128.266 81.758V86H126.992V78.328H128.266V79.42C128.518 79.028 128.859 78.7247 129.288 78.51C129.727 78.2953 130.207 78.188 130.73 78.188ZM139.134 77.04V75.878H141.766V86H140.478V77.04H139.134ZM149.17 79.756C149.432 79.2987 149.814 78.9253 150.318 78.636C150.822 78.3467 151.396 78.202 152.04 78.202C152.731 78.202 153.352 78.3653 153.902 78.692C154.453 79.0187 154.887 79.4807 155.204 80.078C155.522 80.666 155.68 81.352 155.68 82.136C155.68 82.9107 155.522 83.6013 155.204 84.208C154.887 84.8147 154.448 85.286 153.888 85.622C153.338 85.958 152.722 86.126 152.04 86.126C151.378 86.126 150.794 85.9813 150.29 85.692C149.796 85.4027 149.422 85.034 149.17 84.586V86H147.896V75.64H149.17V79.756ZM154.378 82.136C154.378 81.5573 154.262 81.0533 154.028 80.624C153.795 80.1947 153.478 79.868 153.076 79.644C152.684 79.42 152.25 79.308 151.774 79.308C151.308 79.308 150.874 79.4247 150.472 79.658C150.08 79.882 149.763 80.2133 149.52 80.652C149.287 81.0813 149.17 81.5807 149.17 82.15C149.17 82.7287 149.287 83.2373 149.52 83.676C149.763 84.1053 150.08 84.4367 150.472 84.67C150.874 84.894 151.308 85.006 151.774 85.006C152.25 85.006 152.684 84.894 153.076 84.67C153.478 84.4367 153.795 84.1053 154.028 83.676C154.262 83.2373 154.378 82.724 154.378 82.136ZM158.015 77.082C157.773 77.082 157.567 76.998 157.399 76.83C157.231 76.662 157.147 76.4567 157.147 76.214C157.147 75.9713 157.231 75.766 157.399 75.598C157.567 75.43 157.773 75.346 158.015 75.346C158.249 75.346 158.445 75.43 158.603 75.598C158.771 75.766 158.855 75.9713 158.855 76.214C158.855 76.4567 158.771 76.662 158.603 76.83C158.445 76.998 158.249 77.082 158.015 77.082ZM158.631 78.328V86H157.357V78.328H158.631ZM162.077 75.64V86H160.803V75.64H162.077ZM165.522 75.64V86H164.248V75.64H165.522Z" fill="white"/>
<defs>
<filter id="filter0_dd" x="0" y="0" width="251.304" height="160.81" filterUnits="userSpaceOnUse" color-interpolation-filters="sRGB">
<feFlood flood-opacity="0" result="BackgroundImageFix"/>
<feColorMatrix in="SourceAlpha" type="matrix" values="0 0 0 0 0 0 0 0 0 0 0 0 0 0 0 0 0 0 127 0" result="hardAlpha"/>
<feOffset dx="-8" dy="8"/>
<feGaussianBlur stdDeviation="8"/>
<feColorMatrix type="matrix" values="0 0 0 0 0.458333 0 0 0 0 0.450694 0 0 0 0 0.450694 0 0 0 0.25 0"/>
<feBlend mode="normal" in2="BackgroundImageFix" result="effect1_dropShadow"/>
<feColorMatrix in="SourceAlpha" type="matrix" values="0 0 0 0 0 0 0 0 0 0 0 0 0 0 0 0 0 0 127 0" result="hardAlpha"/>
<feOffset dy="4"/>
<feGaussianBlur stdDeviation="2"/>
<feColorMatrix type="matrix" values="0 0 0 0 0 0 0 0 0 0 0 0 0 0 0 0 0 0 0.25 0"/>
<feBlend mode="normal" in2="effect1_dropShadow" result="effect2_dropShadow"/>
<feBlend mode="normal" in="SourceGraphic" in2="effect2_dropShadow" result="shape"/>
</filter>
<linearGradient id="paint0_linear" x1="133.652" y1="8" x2="133.652" y2="136.81" gradientUnits="userSpaceOnUse">
<stop stop-color="#8330F5"/>
<stop offset="1" stop-color="#3B008C"/>
</linearGradient>
</defs>
</svg>
