<svg width="162" height="200" viewBox="0 0 162 200" fill="none" xmlns="http://www.w3.org/2000/svg">
<path opacity="0.3" fill-rule="evenodd" clip-rule="evenodd" d="M-14.4832 163.969C-12.603 166.212 -10.6086 168.391 -8.5 170.5C-6.3914 172.609 -4.21185 174.603 -1.96904 176.483L-14.4832 163.969ZM13.7905 187.301L-25.3011 148.209C-27.1168 144.925 -28.7331 141.56 -30.1499 138.132L23.8675 192.15C20.4396 190.733 17.0747 189.117 13.7905 187.301ZM31.6522 194.993C34.0429 195.755 36.4567 196.424 38.8879 197.001L-35.0006 123.112C-34.4238 125.543 -33.7545 127.957 -32.9929 130.348L31.6522 194.993ZM-36.2668 116.904L45.0958 198.267C47.114 198.612 49.1408 198.895 51.173 199.116L-37.116 110.827C-36.8953 112.859 -36.6122 114.886 -36.2668 116.904ZM-37.5541 105.447L56.5527 199.554C58.3433 199.651 60.136 199.701 61.9288 199.702L-37.702 100.071C-37.7008 101.864 -37.6514 103.657 -37.5541 105.447ZM-37.5892 95.2424L66.7576 199.589C68.3854 199.512 70.0116 199.395 71.6347 199.238L-37.2383 90.3653C-37.3949 91.9884 -37.5119 93.6146 -37.5892 95.2424ZM-36.7128 85.949L76.051 198.713C77.5514 198.5 79.0479 198.254 80.5392 197.973L-35.973 81.4608C-36.2538 82.9521 -36.5004 84.4486 -36.7128 85.949ZM-35.1153 77.3768L84.6232 197.115C86.018 196.792 87.4071 196.438 88.7896 196.054L-34.0537 73.2104C-34.4379 74.5929 -34.7918 75.982 -35.1153 77.3768ZM-32.9147 69.4077L92.5923 194.915C93.8958 194.496 95.1924 194.049 96.4811 193.575L-31.5753 65.5189C-32.0493 66.8076 -32.4958 68.1042 -32.9147 69.4077ZM-30.1894 61.9632L100.037 192.189C101.259 191.686 102.473 191.157 103.678 190.603L-28.6026 58.3219C-29.1569 59.5271 -29.6858 60.7412 -30.1894 61.9632ZM-26.9938 54.9891L107.011 188.994C108.158 188.413 109.297 187.809 110.426 187.181L-25.181 51.5738C-25.8089 52.7029 -26.4131 53.8415 -26.9938 54.9891ZM-23.3664 48.4468L113.553 185.366C114.631 184.714 115.7 184.04 116.758 183.343L-21.3429 45.2422C-22.0397 46.3002 -22.7141 47.3686 -23.3664 48.4468ZM-19.3349 42.3085L119.691 181.335C120.704 180.615 121.706 179.874 122.696 179.112L-17.1118 39.3035C-17.874 40.2944 -18.615 41.2962 -19.3349 42.3085ZM-14.9191 36.5545L125.445 176.919C126.395 176.134 127.332 175.329 128.259 174.504L-12.5043 33.7413C-13.3295 34.6676 -14.1344 35.6055 -14.9191 36.5545ZM-10.133 31.171L130.829 172.133C131.391 171.596 131.948 171.052 132.5 170.5C132.821 170.179 133.14 169.856 133.456 169.531L-7.5315 28.5444C-7.85596 28.8603 -8.17881 29.1788 -8.5 29.5C-9.05216 30.0522 -9.5965 30.6092 -10.133 31.171ZM-4.98499 26.1492L135.851 166.985C136.684 166.067 137.498 165.138 138.291 164.197L-2.19737 23.7088C-3.13799 24.5021 -4.06738 25.3156 -4.98499 26.1492ZM0.527066 21.4916L140.508 161.473C141.279 160.491 142.029 159.498 142.758 158.494L3.50567 19.2421C2.50207 19.9709 1.509 20.7207 0.527066 21.4916ZM6.41377 17.2086L144.791 155.586C145.497 154.537 146.181 153.478 146.843 152.409L9.59082 15.1574C8.5218 15.819 7.46256 16.5027 6.41377 17.2086ZM12.691 13.3159L148.684 149.309C149.322 148.19 149.936 147.061 150.526 145.923L16.0769 11.4737C14.939 12.0644 13.8101 12.6784 12.691 13.3159ZM19.3809 9.83609L152.164 142.619C152.728 141.425 153.268 140.221 153.782 139.01L22.9904 8.21754C21.7789 8.73199 20.5754 9.27151 19.3809 9.83609ZM26.5147 6.80014L155.2 135.485C155.685 134.208 156.143 132.924 156.574 131.632L30.3683 5.42569C29.0764 5.85668 27.7915 6.31482 26.5147 6.80014ZM34.1357 4.25146L157.749 127.864C158.146 126.495 158.513 125.119 158.85 123.738L38.2624 3.14994C36.8807 3.4872 35.5048 3.85437 34.1357 4.25146ZM42.3056 2.25154L159.748 119.694C160.044 118.219 160.307 116.738 160.535 115.253L46.7469 1.46478C45.2619 1.69342 43.7811 1.95568 42.3056 2.25154ZM51.1142 0.890406L161.11 110.886C161.285 109.282 161.421 107.675 161.518 106.067L55.9334 0.481537C54.3246 0.579016 52.7177 0.715307 51.1142 0.890406ZM60.6999 0.306368L161.694 101.3C161.717 99.5334 161.693 97.7663 161.622 96.0007L65.9993 0.377691C64.2337 0.307248 62.4665 0.283473 60.6999 0.306368ZM71.2926 0.7293L161.271 90.7074C161.085 88.7139 160.84 86.7249 160.535 84.7433L77.2567 1.46533C75.2751 1.16015 73.2861 0.914811 71.2926 0.7293ZM83.3259 2.59288L159.407 78.6741C158.893 76.3137 158.292 73.9683 157.604 71.6431L90.3569 4.39571C88.0317 3.70827 85.6863 3.10733 83.3259 2.59288ZM97.8377 6.93484L155.065 64.1623C153.835 60.9638 152.435 57.8159 150.864 54.7326L107.267 11.1364C104.184 9.56503 101.036 8.1645 97.8377 6.93484ZM119.852 18.7798L143.22 42.1476C140.054 37.7134 136.48 33.4803 132.5 29.5C128.52 25.5197 124.287 21.9463 119.852 18.7798Z" fill="url(#paint0_linear)"/>
<defs>
<linearGradient id="paint0_linear" x1="-8.5" y1="29.5" x2="134.974" y2="172.974" gradientUnits="userSpaceOnUse">
<stop stop-color="white"/>
<stop offset="1" stop-color="#A573E9" stop-opacity="0.47"/>
</linearGradient>
</defs>
</svg>
