<svg width="116" height="282" viewBox="0 0 116 282" fill="none" xmlns="http://www.w3.org/2000/svg">
<path opacity="0.3" fill-rule="evenodd" clip-rule="evenodd" d="M64.5168 204.969C66.397 207.212 68.3914 209.391 70.5 211.5C72.6086 213.609 74.7881 215.603 77.031 217.483L64.5168 204.969ZM92.7905 228.301L53.6989 189.209C51.8832 185.925 50.2669 182.56 48.8501 179.132L102.868 233.15C99.4396 231.733 96.0747 230.117 92.7905 228.301ZM110.652 235.993C113.043 236.755 115.457 237.424 117.888 238.001L43.9994 164.112C44.5762 166.543 45.2455 168.957 46.0071 171.348L110.652 235.993ZM42.7332 157.904L124.096 239.267C126.114 239.612 128.141 239.895 130.173 240.116L41.884 151.827C42.1047 153.859 42.3878 155.886 42.7332 157.904ZM41.4459 146.447L135.553 240.554C137.343 240.651 139.136 240.701 140.929 240.702L41.298 141.071C41.2992 142.864 41.3486 144.657 41.4459 146.447ZM41.4108 136.242L145.758 240.589C147.385 240.512 149.012 240.395 150.635 240.238L41.7617 131.365C41.6051 132.988 41.4881 134.615 41.4108 136.242ZM42.2872 126.949L155.051 239.713C156.551 239.5 158.048 239.254 159.539 238.973L43.027 122.461C42.7462 123.952 42.4996 125.449 42.2872 126.949ZM43.8847 118.377L163.623 238.115C165.018 237.792 166.407 237.438 167.79 237.054L44.9463 114.21C44.5621 115.593 44.2082 116.982 43.8847 118.377ZM46.0853 110.408L171.592 235.915C172.896 235.496 174.192 235.049 175.481 234.575L47.4247 106.519C46.9507 107.808 46.5042 109.104 46.0853 110.408ZM48.8106 102.963L179.037 233.189C180.259 232.686 181.473 232.157 182.678 231.603L50.3974 99.3219C49.8431 100.527 49.3142 101.741 48.8106 102.963ZM52.0062 95.9891L186.011 229.994C187.158 229.413 188.297 228.809 189.426 228.181L53.819 92.5738C53.1911 93.7029 52.5869 94.8415 52.0062 95.9891ZM55.6336 89.4468L192.553 226.366C193.631 225.714 194.7 225.04 195.758 224.343L57.6571 86.2422C56.9603 87.3002 56.2859 88.3686 55.6336 89.4468ZM59.6651 83.3085L198.691 222.335C199.704 221.615 200.706 220.874 201.696 220.112L61.8882 80.3035C61.126 81.2944 60.385 82.2962 59.6651 83.3085ZM64.0809 77.5545L204.445 217.919C205.395 217.134 206.332 216.329 207.259 215.504L66.4957 74.7413C65.6705 75.6676 64.8656 76.6055 64.0809 77.5545ZM68.867 72.171L209.829 213.133C210.391 212.596 210.948 212.052 211.5 211.5C211.821 211.179 212.14 210.856 212.456 210.531L71.4685 69.5444C71.144 69.8603 70.8212 70.1788 70.5 70.5C69.9478 71.0522 69.4035 71.6092 68.867 72.171ZM74.015 67.1492L214.851 207.985C215.684 207.067 216.498 206.138 217.291 205.197L76.8026 64.7088C75.862 65.5021 74.9326 66.3156 74.015 67.1492ZM79.5271 62.4916L219.508 202.473C220.279 201.491 221.029 200.498 221.758 199.494L82.5057 60.2421C81.5021 60.9709 80.509 61.7207 79.5271 62.4916ZM85.4138 58.2086L223.791 196.586C224.497 195.537 225.181 194.478 225.843 193.409L88.5908 56.1574C87.5218 56.819 86.4626 57.5027 85.4138 58.2086ZM91.691 54.3159L227.684 190.309C228.322 189.19 228.936 188.061 229.526 186.923L95.0769 52.4737C93.939 53.0644 92.8101 53.6784 91.691 54.3159ZM98.3809 50.8361L231.164 183.619C231.728 182.425 232.268 181.221 232.782 180.01L101.99 49.2175C100.779 49.732 99.5754 50.2715 98.3809 50.8361ZM105.515 47.8001L234.2 176.485C234.685 175.208 235.143 173.924 235.574 172.632L109.368 46.4257C108.076 46.8567 106.792 47.3148 105.515 47.8001ZM113.136 45.2515L236.749 168.864C237.146 167.495 237.513 166.119 237.85 164.738L117.262 44.1499C115.881 44.4872 114.505 44.8544 113.136 45.2515ZM121.306 43.2515L238.748 160.694C239.044 159.219 239.307 157.738 239.535 156.253L125.747 42.4648C124.262 42.6934 122.781 42.9557 121.306 43.2515ZM130.114 41.8904L240.11 151.886C240.285 150.282 240.421 148.675 240.518 147.067L134.933 41.4815C133.325 41.579 131.718 41.7153 130.114 41.8904ZM139.7 41.3064L240.694 142.3C240.717 140.533 240.693 138.766 240.622 137.001L144.999 41.3777C143.234 41.3072 141.467 41.2835 139.7 41.3064ZM150.293 41.7293L240.271 131.707C240.085 129.714 239.84 127.725 239.535 125.743L156.257 42.4653C154.275 42.1602 152.286 41.9148 150.293 41.7293ZM162.326 43.5929L238.407 119.674C237.893 117.314 237.292 114.968 236.604 112.643L169.357 45.3957C167.032 44.7083 164.686 44.1073 162.326 43.5929ZM176.838 47.9348L234.065 105.162C232.835 101.964 231.435 98.8159 229.864 95.7326L186.267 52.1364C183.184 50.565 180.036 49.1645 176.838 47.9348ZM198.852 59.7798L222.22 83.1476C219.054 78.7134 215.48 74.4803 211.5 70.5C207.52 66.5197 203.287 62.9463 198.852 59.7798Z" fill="url(#paint0_linear)"/>
<defs>
<linearGradient id="paint0_linear" x1="70.5" y1="70.5" x2="213.974" y2="213.974" gradientUnits="userSpaceOnUse">
<stop stop-color="white"/>
<stop offset="1" stop-color="#A573E9" stop-opacity="0.47"/>
</linearGradient>
</defs>
</svg>
